<svg width="100" height="100" viewBox="0 0 100 100" xmlns="http://www.w3.org/2000/svg">
  <circle cx="50" cy="50" r="50" fill="#3d619e"></circle>
  <path d="M65.21,68.66c-3.24,2.15-6.82,3.22-10.74,3.22-5.83,0-10.55-1.98-14.14-5.93s-5.4-9.14-5.4-15.57c0-6.7,1.91-11.97,5.72-15.83,3.81-3.86,8.89-5.78,15.24-5.78,3.57,0,6.79,0.88,9.67,2.63l-2.67,7.3c-2.12-1.35-4.35-2.03-6.69-2.03-3.2,0-5.85,1.18-7.95,3.55-2.1,2.37-3.15,5.56-3.15,9.59,0,4.21,1.06,7.52,3.17,9.94,2.11,2.42,4.84,3.63,8.18,3.63,2.72,0,5.23-0.74,7.52-2.21l2.24,7.49Z" fill="#ffffff"></path>
</svg>
