<svg id="Layer_1" data-name="Layer 1" xmlns="http://www.w3.org/2000/svg" width="193.77" height="52.49" viewBox="0 0 193.77 52.49"><defs><style>.cls-1{fill:#4467b1;}</style></defs><title>Angularicon</title><path class="cls-1" d="M686,1129.21q11.5-4.06,23-8.1a3.76,3.76,0,0,1,2.14-.34c8.11,2.7,16.19,5.48,24.4,8.28-0.54,4.39-1.06,8.69-1.59,13-0.71,5.69-1.48,11.37-2.1,17.07a3.82,3.82,0,0,1-2.18,3.38c-5.73,3.06-11.39,6.24-17.06,9.39-0.69.38-1.31,0.88-2,1.32h-0.38a13.14,13.14,0,0,0-1.56-1.2c-5.61-3.14-11.19-6.32-16.87-9.34a4,4,0,0,1-2.33-3.46q-1.12-10.62-2.39-21.23c-0.3-2.55-.74-5.08-1.12-7.62v-1.14Zm40.46,31.4-16-34.19-15.36,34.19c1.64,0,2.82,0,4,0a2.44,2.44,0,0,0,2.69-2,26.65,26.65,0,0,1,1.84-4.54,2.48,2.48,0,0,1,1.72-1.21c3.66-.12,7.32-0.12,11,0a2.28,2.28,0,0,1,1.63,1.08c0.92,1.79,1.58,3.71,2.49,5.51a2.46,2.46,0,0,0,1.61,1.16A35.51,35.51,0,0,0,726.43,1160.61Z" transform="translate(-685.97 -1120.7)"/><path class="cls-1" d="M760.73,1154.22v-18.41h2.81v23.41c-1.87.62-3.12,0.08-4.3-1.55-3.84-5.32-7.85-10.52-11.79-15.76-0.37-.49-0.77-1-1.46-1.83v19.2h-2.71v-23.41a3.31,3.31,0,0,1,4.13,1.4c4.2,5.75,8.59,11.38,12.9,17Z" transform="translate(-685.97 -1120.7)"/><path class="cls-1" d="M861.68,1135.71c4,0,7.74-.1,11.52,0a5,5,0,0,1,5,3.6,5.61,5.61,0,0,1-1.93,6.45,38.64,38.64,0,0,1-4.29,2.6l7.74,10.73c-3.19.72-3.45,0.62-5.15-1.79s-3.61-5-5.33-7.6a13.13,13.13,0,0,1-1-2.67c1.66-.58,3-1,4.25-1.51a4.24,4.24,0,0,0,2.8-3.52c0.25-2.38-.66-3.61-3.06-3.81-1.94-.17-3.91-0.06-5.86-0.19-1.37-.09-1.72.48-1.7,1.76,0.05,5.75,0,11.5,0,17.25,0,0.74-.06,1.48-0.1,2.3h-2.87v-23.62Z" transform="translate(-685.97 -1120.7)"/><path class="cls-1" d="M792.5,1135.73h2.93c0,2.9,0,5.72,0,8.54,0,2.21-.05,4.42,0,6.63,0.14,4.08,2.44,6.22,6.69,6.34s6.85-2.11,7-6.22c0.17-4.41.07-8.83,0.09-13.25,0-.62,0-1.24,0-2h2.84c0,0.53.11,1.08,0.1,1.62-0.09,5.23,0,10.47-.38,15.68-0.24,3.27-2.49,5.4-5.71,6a20.88,20.88,0,0,1-6.56.25c-4.49-.62-6.89-3.42-7-8C792.4,1146.18,792.5,1141,792.5,1135.73Z" transform="translate(-685.97 -1120.7)"/><path class="cls-1" d="M858.06,1159.17c-3.05.58-3,.57-4.08-1.91-0.73-1.73-1.07-4.1-2.38-5s-3.64-.3-5.52-0.35c-0.62,0-1.25,0-2.06,0,1-4.29,4.46-1.25,6.59-2.87l-4.32-10.51c-1.48,3.56-2.76,6.66-4,9.77s-2.42,6-3.64,8.93c-0.94,2.3-.95,2.3-3.95,2.07l11.72-26.74Z" transform="translate(-685.97 -1120.7)"/><path class="cls-1" d="M787.11,1138.59c-1.92-.26-3.77-0.65-5.64-0.73-7.25-.3-11,3.76-10.15,11,0.87,7.67,6.42,8.75,12,8a2.09,2.09,0,0,0,1-1.6c0.12-2.07,0-4.15,0-6.38h2.85c0,3,0,6.06,0,9.12a1.56,1.56,0,0,1-1,.87,17.59,17.59,0,0,1-12-.59,8.78,8.78,0,0,1-5.37-6.87,24.07,24.07,0,0,1-.17-7.12c0.65-4.83,3.59-7.84,8.37-8.41a54.63,54.63,0,0,1,8.45.14C787.27,1136,787.66,1137,787.11,1138.59Z" transform="translate(-685.97 -1120.7)"/><path class="cls-1" d="M820.64,1157h12.42v2.4c-4.82,0-9.54,0-14.25,0a1.42,1.42,0,0,1-1-1c-0.06-7.49,0-15,0-22.6h2.84V1157Z" transform="translate(-685.97 -1120.7)"/><path class="cls-1" d="M706.19,1148.08l4.31-10.33,4.95,10.33h-9.26Z" transform="translate(-685.97 -1120.7)"/></svg>