<?xml version="1.0" encoding="UTF-8"?>
<svg version="1.1" xmlns="http://www.w3.org/2000/svg" width="865" height="608">
<path d="M0 0 C285.45 0 570.9 0 865 0 C865 200.64 865 401.28 865 608 C579.55 608 294.1 608 0 608 C0 407.36 0 206.72 0 0 Z " fill="#000000" transform="translate(0,0)"/>
<path d="M0 0 C285.45 0 570.9 0 865 0 C865 200.64 865 401.28 865 608 C579.55 608 294.1 608 0 608 C0 407.36 0 206.72 0 0 Z M17 17 C17 152.63 17 288.26 17 428 C39.11 428 61.22 428 84 428 C84 427.34 84 426.68 84 426 C82.94039063 425.79503906 81.88078125 425.59007812 80.7890625 425.37890625 C79.40101178 425.10692334 78.01299256 424.83477956 76.625 424.5625 C75.57699219 424.36043945 75.57699219 424.36043945 74.5078125 424.15429688 C69.2265625 423.11328125 69.2265625 423.11328125 67 422 C67.33 420.02 67.66 418.04 68 416 C71.39741967 416.61657042 74.79259528 417.24474119 78.1875 417.875 C79.14720703 418.04902344 80.10691406 418.22304688 81.09570312 418.40234375 C82.49272461 418.66337891 82.49272461 418.66337891 83.91796875 418.9296875 C84.77156982 419.08679199 85.6251709 419.24389648 86.50463867 419.40576172 C91.65124004 420.6313588 91.65124004 420.6313588 94 422 C94.64030457 425.08175659 94.64030457 425.08175659 95 428 C96.19845328 428.00173625 97.39690657 428.0034725 98.63167661 428.00526136 C151.44545991 428.08183961 204.25924128 428.15963815 257.07301331 428.2436676 C257.87250172 428.24493928 258.67199013 428.24621096 259.49570546 428.24752118 C276.87045118 428.27516508 294.24519655 428.30302813 311.61994156 428.33111694 C320.14042647 428.34489021 328.66091146 428.35861506 337.18139648 428.37231445 C338.0292903 428.37367854 338.87718412 428.37504262 339.75077169 428.37644804 C367.23688777 428.42064474 394.72300749 428.46164312 422.20913091 428.50098413 C450.45305001 428.54142666 478.69696234 428.58509341 506.94087011 428.63282111 C510.92948833 428.63955973 514.91810661 428.64626147 518.90672493 428.65294075 C519.6917476 428.65425648 520.47677026 428.65557221 521.28558149 428.6569278 C533.92581216 428.67801842 546.56604541 428.69570693 559.20628291 428.71212531 C571.91183866 428.72870105 584.61738473 428.74885595 597.32292902 428.77266841 C604.20792407 428.78547284 611.09291279 428.79669028 617.97791672 428.80341911 C624.27909042 428.80973167 630.58023941 428.82057011 636.88139952 428.8350333 C639.16283392 428.83946652 641.44427229 428.84222791 643.7257108 428.84316199 C646.82447007 428.84467364 649.92315805 428.8522493 653.02190304 428.8613348 C653.90952813 428.86031213 654.79715321 428.85928946 655.71167603 428.85823581 C661.21307806 428.88250343 666.54105901 429.30807407 672 430 C671.97643433 430.95253662 671.97643433 430.95253662 671.95239258 431.92431641 C671.8897141 434.8244523 671.85090583 437.72444524 671.8125 440.625 C671.78736328 441.62402344 671.76222656 442.62304688 671.73632812 443.65234375 C671.68109533 449.21244479 671.83511757 453.20085838 675 458 C676.20774253 459.42724406 676.20774253 459.42724406 679.75 459.25 C686.02357176 459.20945996 691.960345 457.56825663 698 456 C696.99667638 464.04156396 694.99753989 471.41096876 692.34765625 479.05078125 C690.99516311 482.96131361 689.78608608 486.90386643 688.625 490.875 C688.42414795 491.56005615 688.2232959 492.2451123 688.01635742 492.95092773 C686.73907343 497.34980519 685.51287925 501.76135053 684.3046875 506.1796875 C673.78895057 544.56341773 673.78895057 544.56341773 663.125 551.5 C662.34382812 551.9434375 661.56265625 552.386875 660.7578125 552.84375 C659.88769531 553.41609375 659.88769531 553.41609375 659 554 C659 554.66 659 555.32 659 556 C660.32 556 661.64 556 663 556 C659.60442541 559.79505395 655.76201132 562.11412374 651.4375 564.6875 C638.27871901 572.38127984 638.27871901 572.38127984 629 584 C629.21849209 587.23556199 629.21849209 587.23556199 630 590 C631.32 590.33 632.64 590.66 634 591 C633.34 590.01 632.68 589.02 632 588 C631.45132132 584.52503504 631.83833678 583.25404221 633.75 580.25 C636.09202015 577.90797985 636.79631408 577.29439276 640 577 C644.94965726 579.06839336 649.50112319 581.87131045 652.5 586.375 C655.19738801 589.20725741 655.51845559 589.45058023 659.1875 589.625 C667.2507564 589.13009953 675.1856018 586.94008789 683 585 C683.98097656 584.76152344 684.96195313 584.52304687 685.97265625 584.27734375 C694.78810735 582.00194911 703.38512577 578.9284886 712 576 C712 572.04 712 568.08 712 564 C714.99479167 563.28385417 717.98958333 562.56770833 720.984375 561.8515625 C723.55852722 561.12466459 725.67600186 560.2973776 728 559 C728.58305731 552.00331228 726.35192501 547.45158884 722.44970703 541.72485352 C720.813267 538.64901868 720.62609546 536.86961653 720.63671875 533.41015625 C720.63607422 532.25837891 720.63542969 531.10660156 720.63476562 529.91992188 C720.65216797 528.64697266 720.66957031 527.37402344 720.6875 526.0625 C720.69628997 524.70768437 720.70474157 523.35286651 720.71289062 521.99804688 C720.92466782 498.99169381 722.05909628 475.98493364 723 453 C731.91 453 740.82 453 750 453 C750.66 455.97 751.32 458.94 752 462 C752.64545457 464.76061774 753.29535522 467.51968527 753.953125 470.27734375 C754.32619639 471.84708076 754.69924228 473.41682384 755.07226562 474.98657227 C755.26473877 475.79554962 755.45721191 476.60452698 755.65551758 477.4380188 C758.63660446 489.9718976 761.60254343 502.50898624 764.5 515.0625 C764.86399902 516.63729126 764.86399902 516.63729126 765.23535156 518.24389648 C767.41496249 527.71822421 769.19544033 536.20572025 767 545.875 C765.77943751 551.55600043 764.99554171 557.22862098 766 563 C768.08204608 566.00172287 770.75441217 567.37720608 774 569 C774 573.95 774 578.9 774 584 C783.20677376 587.50116749 792.52173647 590.3481051 802 593 C802.70946777 593.20189941 803.41893555 593.40379883 804.14990234 593.61181641 C817.60775593 597.78300278 817.60775593 597.78300278 831.15234375 596.12109375 C833.21129265 594.97195068 833.21129265 594.97195068 835.3125 592.6875 C839.39450384 588.60549616 843.79629787 585.49367782 849 583 C847.37982158 581.66081194 845.75370657 580.3288031 844.125 579 C843.22007812 578.2575 842.31515625 577.515 841.3828125 576.75 C839.2240716 574.80268789 839.2240716 574.80268789 837 575 C836.4225 575.7425 835.845 576.485 835.25 577.25 C832.72692377 580.33375983 830.55131793 582.1881031 827 584 C822.4748812 583.20810421 819.27926462 580.0556784 816 577 C815.67 576.01 815.34 575.02 815 574 C813.12612784 573.19787372 813.12612784 573.19787372 810.9375 572.8125 C809.83728516 572.57466797 809.83728516 572.57466797 808.71484375 572.33203125 C808.14894531 572.22246094 807.58304688 572.11289062 807 572 C807 571.34 807 570.68 807 570 C810.10523354 570.08088175 813.20850333 570.1937189 816.3125 570.3125 C817.19357422 570.33505859 818.07464844 570.35761719 818.98242188 570.38085938 C819.82998047 570.41630859 820.67753906 570.45175781 821.55078125 570.48828125 C822.33106689 570.51446533 823.11135254 570.54064941 823.9152832 570.56762695 C826.44921166 571.0931671 827.36927777 572.0408526 829 574 C829.99 573.34 830.98 572.68 832 572 C832.33 572.99 832.66 573.98 833 575 C833.66 575 834.32 575 835 575 C835 574.01 835 573.02 835 572 C835.66 572 836.32 572 837 572 C835.43727522 568.2285078 833.07921327 565.84402385 830.1875 563 C829.33542969 562.154375 828.48335937 561.30875 827.60546875 560.4375 C825.10848693 557.99839081 825.10848693 557.99839081 822.51025391 556.203125 C819.66600388 553.70686822 818.66977429 551.79065935 817.23046875 548.3125 C816.74231689 547.15693604 816.25416504 546.00137207 815.7512207 544.81079102 C815.49732574 544.19197052 815.24343079 543.57315002 814.98184204 542.93557739 C813.88608488 540.2655402 812.75962878 537.60879558 811.63499451 534.95082092 C811.03333458 533.52823984 810.43323826 532.10499656 809.83460999 530.68113708 C806.61184428 523.02932027 803.23287867 515.44882969 799.84390259 507.86950684 C798.14858761 504.07748296 796.45866531 500.28306169 794.76953125 496.48828125 C794.44685776 495.76345551 794.12418427 495.03862976 793.79173279 494.2918396 C789.46254588 484.55639639 785.21874263 474.78376049 781 465 C782.12277344 464.96261719 783.24554687 464.92523438 784.40234375 464.88671875 C797.33553621 464.82694878 797.33553621 464.82694878 808.703125 459.546875 C810.20498911 458.02522411 810.20498911 458.02522411 810.375 455.625 C809.92384899 452.46694293 808.63832615 450.72781428 807 448 C802.25607701 437.20279525 802.49228141 426.68280336 802.6875 415.125 C802.69902183 413.36459395 802.70879791 411.60417558 802.71679688 409.84375 C802.73021024 408.14842443 802.74513025 406.45310997 802.76171875 404.7578125 C802.76910568 403.98164581 802.77649261 403.20547913 802.78410339 402.40579224 C802.86328821 397.85084814 803.2612649 393.49635747 804 389 C804.99 389 805.98 389 807 389 C807.66 391.31 808.32 393.62 809 396 C811.24875747 396.86850174 811.24875747 396.86850174 814 397 C815.69672386 395.70513179 817.3603279 394.36639342 819 393 C821.32873375 392.31744011 823.66182791 391.64949225 826 391 C827.0194119 390.01979625 828.02246356 389.02196992 829 388 C831.6875 387.3125 831.6875 387.3125 834 387 C834.61558972 382.22917966 835.10705413 377.49762841 835.25 372.6875 C835.27578125 371.88699219 835.3015625 371.08648437 835.328125 370.26171875 C834.89913112 367.3047252 834.20532357 366.02539131 832 364 C829.10238161 363.67305321 829.10238161 363.67305321 825.875 363.875 C821.82139661 363.68583184 819.66119517 363.49688619 816.390625 361.0390625 C814.08062612 358.45027065 812.03547207 355.81054506 810 353 C809.43277725 352.46127258 808.8655545 351.92254517 808.28114319 351.36749268 C801.16282319 344.01257465 802.08384881 335.56393611 802.23828125 326.015625 C802.2390546 324.26926464 802.23616055 322.52289918 802.2297821 320.77655029 C802.22023041 316.20127523 802.24872302 311.627143 802.28894043 307.05206299 C802.3506149 299.71679592 802.37015279 292.38181174 802.35912132 285.04631805 C802.36322124 282.49053396 802.39349652 279.93599028 802.42610168 277.38043213 C802.42998262 275.8125428 802.4329367 274.24465082 802.43481445 272.67675781 C802.45885597 271.61686897 802.45885597 271.61686897 802.48338318 270.53556824 C802.45581973 265.75433339 801.32201596 263.40179614 798 260 C796.5385774 261.43435921 795.08096951 262.87260586 793.625 264.3125 C792.81289063 265.11300781 792.00078125 265.91351563 791.1640625 266.73828125 C788.87395158 269.00009937 788.87395158 269.00009937 787 272 C785.12704468 272.39872742 785.12704468 272.39872742 782.82568359 272.43237305 C781.96494232 272.45216721 781.10420105 272.47196136 780.21737671 272.49235535 C778.8220018 272.50194023 778.8220018 272.50194023 777.3984375 272.51171875 C776.44683746 272.52966995 775.49523743 272.54762115 774.51480103 272.56611633 C771.4682461 272.62040249 768.42184943 272.65417359 765.375 272.6875 C763.31247788 272.72065692 761.24997671 272.75514504 759.1875 272.79101562 C754.1251139 272.87613944 749.06277622 272.94286304 744 273 C743.97290112 274.60146874 743.95355919 276.20307001 743.9375 277.8046875 C743.92009766 279.14249268 743.92009766 279.14249268 743.90234375 280.50732422 C744.01385248 283.35358457 744.66045329 285.48834992 746 288 C745.34 288.185625 744.68 288.37125 744 288.5625 C738.9084552 291.00219855 734.96777138 295.03222862 731 299 C730.28714844 298.25234375 729.57429687 297.5046875 728.83984375 296.734375 C721.72932779 289.30077311 721.72932779 289.30077311 713 284 C712.34 284 711.68 284 711 284 C711 283.01 711 282.02 711 281 C711.804375 280.690625 712.60875 280.38125 713.4375 280.0625 C715.89080405 279.23664655 715.89080405 279.23664655 717 278 C717.50042146 275.08461971 717.50042146 275.08461971 717 272 C712.42288105 267.9093861 706.26053384 268.16976985 700.4375 267.625 C688.67912433 266.34477631 679.730766 263.91396531 670 257 C669.34 257 668.68 257 668 257 C667.731875 258.11375 667.46375 259.2275 667.1875 260.375 C666 264 666 264 663 266 C663.0825 264.824375 663.165 263.64875 663.25 262.4375 C663.27347625 259.10974215 662.78204945 257.17984544 661 254.375 C658.82212449 250.69983509 658.55679629 249.16611491 659 245 C659.28875 244.030625 659.5775 243.06125 659.875 242.0625 C660.02208331 238.45895886 659.57159759 238.12426286 657.25 235.5625 C656.41855469 234.69625 656.41855469 234.69625 655.5703125 233.8125 C653.2336629 231.1154716 652.22346435 228.33054184 651 225 C650.34 225 649.68 225 649 225 C645.72427868 217.93342377 645.69908141 209.99534785 648.09765625 202.62890625 C652.89037665 192.39165547 659.22723341 188.3148795 668.83203125 182.921875 C672.06058944 180.96324291 674.92191165 178.78735401 677.875 176.4375 C696.74558834 161.92547275 721.8438277 160.97419074 744.70703125 163.42578125 C757.92379553 165.24930635 776.20323664 169.97085648 785.1328125 180.51953125 C785.74898437 181.33808594 786.36515625 182.15664062 787 183 C788.90796038 184.62362646 790.87015637 186.18514262 792.875 187.6875 C794.38707031 188.83798828 794.38707031 188.83798828 795.9296875 190.01171875 C798.928028 191.95339218 801.57445303 193.0439145 805 194 C805.66 193.01 806.32 192.02 807 191 C808.32 191 809.64 191 811 191 C809.60707554 183.69524496 803.61737757 178.35957443 798.22265625 173.640625 C797 172 797 172 797.05859375 170.171875 C798 168 798 168 800.02946472 165.71954346 C803.44327278 160.60300019 802.52798849 154.21723414 802.4699707 148.31542969 C802.47047989 146.91879106 802.47273809 145.52215215 802.47660828 144.1255188 C802.48201517 140.34467513 802.46265235 136.56432376 802.43850732 132.78356838 C802.41718206 128.82604452 802.41780504 124.8685219 802.41581726 120.91094971 C802.40937601 114.26997421 802.38814848 107.62918333 802.35668945 100.98828125 C802.31633304 92.45780631 802.2989912 83.92745138 802.28938007 75.39689255 C802.28108725 68.0654853 802.26385187 60.73410358 802.24434257 53.40271854 C802.23827328 51.04377661 802.23313264 48.6848337 802.2279911 46.32588959 C802.21922176 42.62571418 802.20492648 38.92559846 802.1862812 35.22546005 C802.17721784 33.21488376 802.17297696 31.20428756 802.16885376 29.19369507 C802.1581208 27.4103627 802.1581208 27.4103627 802.14717102 25.59100342 C802.14289754 24.55348309 802.13862406 23.51596275 802.13422108 22.44700241 C802.1622518 19.99320729 802.1622518 19.99320729 801 18 C779.90356976 17.24565686 758.83658632 16.85209631 737.72587107 16.87773381 C733.86461985 16.88125631 730.00337085 16.87878094 726.14211899 16.87715632 C719.41383763 16.87510863 712.68556523 16.8766809 705.95728493 16.88079453 C695.95297921 16.88689384 685.948679 16.88712445 675.94437176 16.88625254 C659.10583616 16.88494628 642.26730452 16.88825072 625.42877007 16.89426994 C608.77930112 16.9002062 592.12983384 16.90403975 575.48036385 16.90512276 C574.44148582 16.9051915 573.4026078 16.90526024 572.33224862 16.90533106 C567.05537053 16.90566944 561.77849244 16.9059708 556.50161434 16.90625793 C519.21730232 16.90835307 481.93299245 16.91507563 444.64868164 16.92456055 C408.44881196 16.9337589 372.24894288 16.94081875 336.04907227 16.94506836 C333.76897039 16.945339 331.48886851 16.94560971 329.20876664 16.94588047 C310.67916611 16.94806955 292.14956557 16.95011201 273.61996502 16.95211896 C188.07997465 16.96148931 102.53998988 16.98156422 17 17 Z " fill="#FEFEFE" transform="translate(0,0)"/>
<path d="M0 0 C8.61287674 3.57405089 14.75686208 10.32957508 21 17 C23.70109308 15.78033117 24.89762774 15.14028792 26.6875 12.6875 C30.48606589 8.27295045 35.27405282 5.63798764 40.9375 4.3125 C49.35549859 6.20225478 56.27923301 11.93019751 61 19 C62.40306709 21.71844248 63.72819729 24.46358727 65.03295898 27.23022461 C73.08737341 43.82594269 86.06677676 58.1721619 98.9375 71.1875 C99.5766333 71.83605957 100.2157666 72.48461914 100.87426758 73.15283203 C101.78535278 74.05751221 101.78535278 74.05751221 102.71484375 74.98046875 C103.25230225 75.51567139 103.78976074 76.05087402 104.34350586 76.60229492 C108.80803212 80.36934177 113.70043105 80.66802968 119.3203125 81.4375 C122 82 122 82 124 84 C124.50408478 89.24248173 123.90170246 92.60064465 121 97 C116.52175683 101.6365649 111.57351065 105.46777501 105.0625 106.4375 C102 106 102 106 99.91015625 103.5078125 C99.30042969 102.39148438 98.69070313 101.27515625 98.0625 100.125 C97.37734232 98.92184019 96.68981252 97.72002834 96 96.51953125 C95.66355469 95.92092285 95.32710937 95.32231445 94.98046875 94.70556641 C90.34052156 86.63418417 84.3667258 79.74123909 78 73 C77.39027344 72.33742188 76.78054688 71.67484375 76.15234375 70.9921875 C71.25246385 65.83559407 66.01458384 61.64374444 59 60 C59.77550051 81.88359454 59.77550051 81.88359454 65 103 C65.64884087 104.92313179 66.28092231 106.85135813 66.91308594 108.7800293 C67.54427441 110.69471342 68.19375127 112.60333833 68.84375 114.51171875 C69.83870167 117.51338036 70.72188244 120.51526133 71.5625 123.5625 C72.76943125 127.63005834 74.46830433 130.5540809 77 134 C82.1643499 141.72306577 86.69685471 149.70859232 91 157.9375 C91.59683594 159.04673828 92.19367188 160.15597656 92.80859375 161.29882812 C93.36675781 162.36423828 93.92492187 163.42964844 94.5 164.52734375 C95.0053125 165.48374756 95.510625 166.44015137 96.03125 167.42553711 C97 170 97 170 96.81274414 172.265625 C96 174 96 174 93.49609375 175.22265625 C80.36607656 178.14206789 68.25001866 175.97347932 56 171 C53.9401306 170.24280496 51.87785267 169.49210822 49.8125 168.75 C48.97332031 168.43546875 48.13414062 168.1209375 47.26953125 167.796875 C40.18740174 165.31020646 32.92063126 165.71549295 25.5 165.6875 C24.74645233 165.68355225 23.99290466 165.67960449 23.21652222 165.67553711 C10.21515893 165.64388646 -2.16620642 166.92427437 -14.99609375 169.125 C-20.54153332 170.01957002 -26.41400789 170.93952258 -32 170 C-35.3086823 165.03697655 -34.55856657 159.98897071 -33.48828125 154.26171875 C-29.47835502 139.49345387 -21.84865991 125.09645355 -13.75 112.1875 C-13.34209229 111.53426758 -12.93418457 110.88103516 -12.51391602 110.20800781 C-10.74544326 107.44980643 -9.01941544 105.02095635 -6.78515625 102.609375 C-1.48519063 96.77416532 -1.39605318 91.27045966 -1.625 83.6875 C-2.15466255 74.00334814 -4.23639168 66.84031314 -10 59 C-13.76036474 60.53677007 -15.89620215 62.84815446 -18.625 65.8125 C-23.94132793 71.23076342 -29.23318484 75.16696434 -36.81640625 76.4921875 C-41.55302395 75.75990059 -44.15668002 73.10183788 -47.6875 70 C-49.1077993 68.80151559 -50.52967868 67.60490122 -51.953125 66.41015625 C-52.64341797 65.82508301 -53.33371094 65.24000977 -54.04492188 64.63720703 C-60.29255189 59.40536302 -66.5746983 54.7486701 -74.22265625 51.7890625 C-76 51 -76 51 -78 49 C-77.83991975 43.36349005 -75.14538402 39.40377919 -72.1875 34.8125 C-71.74857422 34.10158203 -71.30964844 33.39066406 -70.85742188 32.65820312 C-66.65298805 26.01732176 -66.65298805 26.01732176 -63 24 C-60.5 24 -60.5 24 -58 25 C-55.33874283 27.66125717 -53.75314808 30.44237618 -52.1875 33.8125 C-49.42377493 39.59219488 -45.32681713 44.44878858 -40 48 C-35.44020141 48.66464861 -31.33693748 48.61034102 -27.125 46.6875 C-24.45180464 43.3066941 -23.30047162 39.97843373 -21.9609375 35.90625 C-21.10719038 33.32418554 -20.13180789 30.87290323 -19.0625 28.375 C-16.87973964 23.03840873 -15.34462587 17.53444344 -13.83813477 11.97607422 C-12.70531241 7.91846805 -11.49175887 4.46995599 -9 1 C-5.93907106 -0.53046447 -3.29851222 -0.6108356 0 0 Z " fill="#FDFDFD" transform="translate(709,284)"/>
<path d="M0 0 C0.01981934 1.24612061 0.03963867 2.49224121 0.06005859 3.77612305 C0.13623654 8.40751051 0.22493532 13.03858881 0.31738281 17.66967773 C0.35562217 19.67254524 0.39048381 21.67548025 0.421875 23.6784668 C0.46763496 26.56062917 0.52561154 29.44232894 0.5859375 32.32421875 C0.60326431 33.66355721 0.60326431 33.66355721 0.62094116 35.029953 C0.72527597 39.44334705 0.9372088 42.9866045 3 47 C5.28836222 47.41986946 5.28836222 47.41986946 8 47 C13.08010335 42.98939209 16.41352619 37.32286459 20 32 C20.99 32.33 21.98 32.66 23 33 C22.86682711 41.25671944 20.12171076 45.66417852 15 52 C14.41476562 52.74894531 13.82953125 53.49789062 13.2265625 54.26953125 C9.29509085 59.06379193 5.3544929 63.27563885 -1.04296875 64.33984375 C-5.56051405 64.55173612 -8.55172488 63.88909537 -12 61 C-13.81978015 58.73784236 -15.39597166 56.4289572 -17 54 C-17.56847656 54.85722656 -18.13695312 55.71445313 -18.72265625 56.59765625 C-30.48146148 74.11044366 -30.48146148 74.11044366 -40 77 C-43.79764974 77.69048177 -45.91787568 77.70851073 -49.18359375 75.5703125 C-55.30539212 70.4851823 -55.30539212 70.4851823 -56 66 C-56.66 66 -57.32 66 -58 66 C-58.23460937 66.51691406 -58.46921875 67.03382813 -58.7109375 67.56640625 C-63.0099225 75.68236884 -68.95963327 85.7642939 -78 89 C-81.29593867 89.7399046 -82.89102476 89.6330202 -85.8203125 87.9609375 C-90.85623612 84.18926249 -92.59553781 80.01912369 -94 74 C-94.66 74 -95.32 74 -96 74 C-96.26296875 74.85464844 -96.5259375 75.70929688 -96.796875 76.58984375 C-99.69821748 84.81345409 -103.48778695 93.20497039 -111 98 C-111.928125 98.61875 -112.85625 99.2375 -113.8125 99.875 C-118.17056256 101.41313973 -121.57254296 101.27270107 -126 100 C-130.33493695 97.71353326 -133.58650511 94.47273125 -137 91 C-137.61746094 91.845625 -138.23492187 92.69125 -138.87109375 93.5625 C-143.98757771 100.46150753 -149.06909393 106.80501147 -156 112 C-156.58652344 112.45246094 -157.17304688 112.90492188 -157.77734375 113.37109375 C-164.281342 117.48412546 -172.63427468 116.89327399 -180 116 C-183.9741932 114.49749117 -186.68397152 112.39440238 -189.57421875 109.33203125 C-190.91837504 107.77244173 -190.91837504 107.77244173 -193 108 C-194.25033597 109.57716239 -195.42442042 111.21501322 -196.5625 112.875 C-209.38536031 130.9202616 -209.38536031 130.9202616 -218.25 132.625 C-222.86857427 131.85523762 -225.65617638 130.5099831 -229.23828125 127.51171875 C-232.88530979 122.31207495 -231.5946475 116.03319448 -231 110 C-230.938125 108.93007813 -230.87625 107.86015625 -230.8125 106.7578125 C-230.50694252 102.05986628 -229.90061747 98.34206104 -228 94 C-233.49814861 97.6431907 -237.18467457 100.95380295 -240 107 C-240.85131664 108.81533714 -241.70366613 110.63025127 -242.57202148 112.4375 C-243.18366038 113.71452348 -243.78124103 114.99838979 -244.36352539 116.2890625 C-246.50953077 120.79794049 -246.50953077 120.79794049 -249.21875 121.9140625 C-249.8065625 121.94242187 -250.394375 121.97078125 -251 122 C-250.70233657 117.47346297 -250.35320914 113.34422738 -248.4375 109.1875 C-246.72592816 105.97505053 -246.72592816 105.97505053 -247 102 C-249.37612865 100.39092892 -249.37612865 100.39092892 -252 99 C-255.11845791 94.32231313 -254.46440574 89.4785365 -254 84 C-252.40198153 79.29005081 -250.2712346 76.58260697 -246 74 C-242.91404395 73.56796615 -241.00836313 73.30322353 -238.39453125 75.109375 C-236.38353616 77.83576611 -236.24165577 80.3532898 -235.8125 83.6875 C-235.65394531 84.86699219 -235.49539063 86.04648437 -235.33203125 87.26171875 C-235.16767578 88.61716797 -235.16767578 88.61716797 -235 90 C-228.89402491 85.78396958 -226.30468433 80.52535126 -223 74 C-219.42801556 67.42801556 -219.42801556 67.42801556 -217 65 C-216.01 65 -215.02 65 -214 65 C-214.02356567 66.96791504 -214.02356567 66.96791504 -214.04760742 68.97558594 C-214.10191032 73.84336202 -214.13635154 78.71111132 -214.16479492 83.57910156 C-214.17988069 85.6859182 -214.20035193 87.79270344 -214.22631836 89.89941406 C-214.26271053 92.9278132 -214.2797285 95.95579709 -214.29296875 98.984375 C-214.30845261 99.92617615 -214.32393646 100.86797729 -214.33988953 101.83831787 C-214.34022942 103.15923431 -214.34022942 103.15923431 -214.34057617 104.50683594 C-214.34723801 105.27960876 -214.35389984 106.05238159 -214.36076355 106.84857178 C-213.9085421 109.54541296 -212.76221857 110.95121566 -211 113 C-205.69279186 112.35255708 -203.83615297 110.24488269 -200.578125 106.21484375 C-196.39044089 100.33757422 -195.8853632 95.32665154 -195.625 88.3125 C-195.1562117 76.72615468 -191.36642695 66.28292968 -183 58 C-176.35758144 52.62114797 -169.84515876 49.44460009 -161.1875 49.60546875 C-157.39364901 50.28971688 -155.62379384 52.24501646 -153 55 C-150.98589621 59.02820758 -151.41390202 63.6303784 -152 68 C-156.04423952 77.86282918 -166.10941486 84.91779569 -174.6015625 90.80859375 C-175.06304687 91.20175781 -175.52453125 91.59492188 -176 92 C-176.22667128 94.09834756 -176.22667128 94.09834756 -174.6015625 95.5078125 C-169.86643552 99.38200731 -166.4684128 100.81486182 -160.31640625 100.3828125 C-153.60685825 99.27398332 -149.15578437 95.12449868 -145 90 C-140.58456611 83.54143475 -139.63292044 77.94403198 -139.2890625 70.234375 C-138.29955836 59.16262595 -131.66507807 47.8433357 -124 40 C-117.3258523 34.92423137 -111.6182212 31.38441277 -103 32 C-102.13375 32.350625 -101.2675 32.70125 -100.375 33.0625 C-97.25148913 34.29546482 -96.13055585 34.26712975 -93 33 C-90.51571889 30.80732751 -88.27802124 28.40306776 -86 26 C-83.75 24 -83.75 24 -82 23 C-81.01 23.33 -80.02 23.66 -79 24 C-78.98018066 25.10400146 -78.96036133 26.20800293 -78.93994141 27.34545898 C-78.86333927 31.47751025 -78.77471025 35.60923418 -78.68261719 39.7409668 C-78.64455144 41.52247613 -78.6096613 43.30405648 -78.578125 45.08569336 C-78.53198341 47.6602501 -78.4740754 50.23432729 -78.4140625 52.80859375 C-78.39673569 53.98572182 -78.39673569 53.98572182 -78.37905884 55.18663025 C-78.23611651 60.65484431 -77.36084299 65.70514344 -76 71 C-73.2553656 71.58776634 -73.2553656 71.58776634 -70 71 C-64.99089042 66.985346 -60.78430676 60.22448201 -59.60946655 53.89648438 C-59.4480581 51.70505786 -59.39424306 49.54103859 -59.390625 47.34375 C-59.37408875 46.55601196 -59.35755249 45.76827393 -59.34051514 44.95666504 C-59.29240802 42.47102781 -59.27074884 39.98600051 -59.25 37.5 C-59.2218089 35.80205326 -59.19187713 34.10413447 -59.16015625 32.40625 C-59.08666016 28.27088367 -59.03685913 24.13584854 -59 20 C-56.18926431 18.49667622 -53.37612794 16.99790265 -50.5625 15.5 C-49.76005859 15.07074219 -48.95761719 14.64148438 -48.13085938 14.19921875 C-47.36708984 13.79316406 -46.60332031 13.38710937 -45.81640625 12.96875 C-45.10943604 12.59169922 -44.40246582 12.21464844 -43.67407227 11.82617188 C-42 11 -42 11 -41 11 C-40.98018066 12.16982422 -40.96036133 13.33964844 -40.93994141 14.54492188 C-40.86347389 18.91361862 -40.77482197 23.28200004 -40.68261719 27.65039062 C-40.64449662 29.53574364 -40.60961519 31.42116521 -40.578125 33.30664062 C-40.53210468 36.02759179 -40.47417386 38.74807793 -40.4140625 41.46875 C-40.39673569 42.71924133 -40.39673569 42.71924133 -40.37905884 43.99499512 C-40.261475 53.24568549 -40.261475 53.24568549 -36 61 C-33.62875402 61.58488562 -33.62875402 61.58488562 -31 61 C-24.2261422 55.87830264 -21.9071743 47.99510649 -20.35131836 39.96801758 C-19.95162503 36.59131721 -20.01500371 33.39327679 -20.1484375 29.99609375 C-20.83988396 10.62799446 -20.83988396 10.62799446 -17.43945312 5.77099609 C-12.83025608 1.7707564 -6.05393464 -2.01797821 0 0 Z " fill="#F9F9F9" transform="translate(520,188)"/>
<path d="M0 0 C6.24249141 2.88114988 10.59210565 8.52110748 13.14453125 14.828125 C16.53350268 27.39362639 13.38949301 40.76437356 7.390625 52.01953125 C2.37668291 59.68994266 -4.20999562 65.17464145 -13 68 C-16.87990073 68.38799007 -20.26647598 68.24450801 -24 67 C-23.90912109 67.65895264 -23.81824219 68.31790527 -23.72460938 68.99682617 C-20.55893163 92.23817692 -20.55893163 92.23817692 -21 104 C-28.92 107.96 -28.92 107.96 -37 112 C-39.25421757 104.11023851 -39.25421757 104.11023851 -39.78125 100.12890625 C-39.89992432 99.23655273 -40.01859863 98.34419922 -40.14086914 97.42480469 C-40.25938232 96.48024414 -40.37789551 95.53568359 -40.5 94.5625 C-40.62818115 93.56766602 -40.7563623 92.57283203 -40.88842773 91.54785156 C-41.93297961 83.16258519 -42.67841817 74.76332844 -43.265625 66.33422852 C-43.74661446 59.78585193 -44.70500986 53.4366559 -46 47 C-46.39832031 47.84304688 -46.79664063 48.68609375 -47.20703125 49.5546875 C-47.73683594 50.65039062 -48.26664063 51.74609375 -48.8125 52.875 C-49.33457031 53.96554687 -49.85664063 55.05609375 -50.39453125 56.1796875 C-52 59 -52 59 -55 61 C-55.63604482 52.81804709 -53.8353157 46.29641261 -51.125 38.625 C-48.89045269 32.21350737 -46.94297843 26.24395167 -46.17578125 19.4765625 C-45.43504498 14.49171808 -45.43504498 14.49171808 -43.58691406 12.40283203 C-41.78087983 11.25441329 -40.07052305 10.48498922 -38.0625 9.75 C-37.42892578 9.47027344 -36.79535156 9.19054687 -36.14257812 8.90234375 C-33.29325219 7.68591228 -31.11807945 7 -28 7 C-28 10.3 -28 13.6 -28 17 C-25.49609553 14.49609553 -24.48017045 13.16139323 -22.9375 10.1875 C-17.92530396 2.06894294 -9.37216248 -1.85490716 0 0 Z " fill="#FAFAFA" transform="translate(239,276)"/>
<path d="M0 0 C0.94875 0.04125 1.8975 0.0825 2.875 0.125 C2.09204887 9.20723313 0.03737192 17.93818944 -1.953125 26.8203125 C-3.37210828 33.26138366 -4.55833592 39.5516967 -5.125 46.125 C-2.15170149 45.58440027 0.14174065 45.10018505 2.0234375 42.59765625 C4.47970361 37.79319974 6.12754999 32.67831274 7.75 27.54296875 C9.08939806 24.66419306 10.06378188 23.59405669 12.875 22.125 C16.125 21.9375 16.125 21.9375 18.875 22.125 C18.39896226 24.25070312 17.91907402 26.37554427 17.4375 28.5 C17.17066406 29.68335938 16.90382812 30.86671875 16.62890625 32.0859375 C15.875 35.125 15.875 35.125 14.875 37.125 C14.80503986 38.83202735 14.79059846 40.54168003 14.8125 42.25 C14.82152344 43.16007812 14.83054688 44.07015625 14.83984375 45.0078125 C14.85144531 45.70648438 14.86304688 46.40515625 14.875 47.125 C18.19858483 46.18584828 19.59642196 45.54516124 21.53515625 42.62109375 C21.99792969 41.61175781 22.46070313 40.60242188 22.9375 39.5625 C23.44023437 38.49128906 23.94296875 37.42007813 24.4609375 36.31640625 C25.99539182 32.85328696 27.50780724 29.38293264 28.91796875 25.8671875 C29.875 24.125 29.875 24.125 32.875 22.125 C36.0625 22 36.0625 22 38.875 22.125 C38.6584375 22.93582031 38.441875 23.74664062 38.21875 24.58203125 C36.37328425 31.92117514 35.46592697 38.56472437 35.875 46.125 C38.95245908 44.91034783 41.93676804 43.64852768 44.875 42.125 C43.73562202 46.96735642 40.93199718 49.13120859 37.05078125 51.8984375 C33.91955619 53.66361644 31.44245187 53.97635617 27.875 54.125 C24.875 50.5 24.875 50.5 24.875 47.125 C21.30327668 49.20455211 21.30327668 49.20455211 18.0625 51.75 C14.78035345 53.81306354 11.71757727 53.80478523 7.875 54.125 C4.875 49.5 4.875 49.5 4.875 46.125 C4.30652344 46.61871094 3.73804688 47.11242187 3.15234375 47.62109375 C-1.57433479 51.54289547 -4.85285914 54.25300287 -11.125 54.125 C-13.6904594 51.5595406 -13.66546087 49.64813332 -14.125 46.125 C-14.69347656 46.61871094 -15.26195312 47.11242187 -15.84765625 47.62109375 C-24.23264873 54.57825779 -24.23264873 54.57825779 -30.125 54.125 C-33.0625 52.4375 -33.0625 52.4375 -35.125 49.125 C-36.30927076 42.94346549 -35.95408478 37.62912639 -32.5625 32.25 C-31.45725914 30.84216419 -30.31164826 29.46493467 -29.125 28.125 C-28.61839844 27.50238281 -28.11179688 26.87976563 -27.58984375 26.23828125 C-24.84551354 23.34560887 -23.03245931 22.23088923 -19.01171875 21.76171875 C-16.02363608 21.75118497 -13.10046255 21.86116588 -10.125 22.125 C-10.0425 20.866875 -9.96 19.60875 -9.875 18.3125 C-9.18222592 11.98717144 -7.62214649 0.30488586 0 0 Z " fill="#F5F5F5" transform="translate(179.125,167.875)"/>
<path d="M0 0 C8.17825577 0.55445802 13.4553759 2.70610238 19 9 C21.15040386 11.81777057 21.98253574 13.93263784 22.875 17.375 C22 21 22 21 19.71484375 22.72265625 C17.73696856 23.89127968 15.75225884 25.0483944 13.76171875 26.1953125 C9.74947916 28.81717204 8.04288253 31.76234776 6 36 C5.56042969 36.84304687 5.12085938 37.68609375 4.66796875 38.5546875 C2.56678206 42.63595501 0.66469928 46.72043061 -1 51 C-10.79747487 51.39989693 -17.62519344 48.97550866 -26 44 C-26.46612972 38.17337852 -25.33707542 35.69276231 -22 31 C-22 29.68 -22 28.36 -22 27 C-23.98 26.34 -25.96 25.68 -28 25 C-26.09953999 15.55900511 -16.17151102 10.09803705 -8.70703125 5.06835938 C-6.23231807 3.51954003 -3.62732716 2.26674703 -1 1 C-0.67 0.67 -0.34 0.34 0 0 Z " fill="#FCFCFC" transform="translate(644,147)"/>
<path d="M0 0 C2.96310474 2.96310474 3.14552867 6.44940838 4.0234375 10.46875 C5.22307242 13.5782037 6.06201034 13.68448224 9 15 C12.7500836 19.66517577 15.13866094 24.45109664 16 30.375 C16.61890541 34.55211911 16.61890541 34.55211911 20.0625 37.375 C21.031875 37.91125 22.00125 38.4475 23 39 C24.08402409 41.4574721 24.12415604 42.62074739 23.28515625 45.18359375 C20.22240354 50.82962671 17.09681219 54.62131949 11 57 C7.125 57.4375 7.125 57.4375 4 57 C2 55 2 55 1.1875 51.5625 C-0.23008327 47.30975018 -1.28364491 47.13690418 -5 45 C-7.91524892 39.5859663 -7.40111195 32.9980229 -7 27 C-6.67 26.67 -6.34 26.34 -6 26 C-5.51027531 19.63357898 -6.7664854 14.11614037 -8.34375 7.953125 C-9 5 -9 5 -9 1 C-5.98675805 -0.50662097 -3.31713623 -0.17770373 0 0 Z " fill="#FAFAFA" transform="translate(614,271)"/>
<path d="M0 0 C4.91760033 1.02450007 7.01364646 4.1806966 9.75 8.1875 C14.32649077 17.111657 12.54310279 28.83551795 9.921875 38.12109375 C8.24111438 42.68621051 5.97665285 44.9738981 2 47.625 C-3.17580071 48.20008897 -3.17580071 48.20008897 -6 47.625 C-9.00878656 44.69336181 -10.90767499 42.16416987 -11.16113281 37.9387207 C-11.20658601 34.27154637 -11.23530823 30.60493305 -11.25 26.9375 C-11.270625 25.66970703 -11.29125 24.40191406 -11.3125 23.09570312 C-11.34759141 14.71324289 -10.96275619 9.38850111 -5.6875 2.6875 C-3 0.625 -3 0.625 0 0 Z " fill="#070707" transform="translate(224,290.375)"/>
<path d="M0 0 C6.32926932 7.49518735 5.77298034 16.69751051 5 26 C3.59210253 33.44502304 1.56595396 39.72699099 -4 45 C-6.87470493 46.43735246 -8.81894588 46.38172649 -12 46 C-16.5959145 41.78707837 -17.76167012 36.51354888 -18.3359375 30.45703125 C-18.44048894 20.70238207 -17.68159366 11.20977752 -11.375 3.3125 C-7.64897656 -0.3154702 -5.18600241 -0.62589684 0 0 Z " fill="#040404" transform="translate(417,226)"/>
<path d="M0 0 C-1.14969474 13.22148949 -8.17804215 22.93759111 -17.875 31.6875 C-21 34 -21 34 -24 34 C-23.32026896 29.11968388 -22.05954524 24.61194737 -20.5625 19.9375 C-20.34529297 19.24333984 -20.12808594 18.54917969 -19.90429688 17.83398438 C-16.34985299 6.59425641 -16.34985299 6.59425641 -10 3 C-6.64208309 1.33527001 -3.82142914 0 0 0 Z " fill="#F6F6F6" transform="translate(365,198)"/>
<path d="M0 0 C2.375 1.9375 2.375 1.9375 4 5 C4.49172929 11.15832397 2.51717293 16.9919657 -1 22 C-3.14142119 24.28775977 -5.32153988 26.35936549 -8 28 C-8.99 28 -9.98 28 -11 28 C-12.60503133 24.78993735 -12.26782728 21.33568869 -12.3125 17.8125 C-12.34150391 17.06935547 -12.37050781 16.32621094 -12.40039062 15.56054688 C-12.46499071 9.89064728 -11.27723696 6.64718105 -8 2 C-4.75846834 -0.1610211 -3.76307099 -0.64247553 0 0 Z " fill="#070707" transform="translate(351,246)"/>
<path d="M0 0 C1.79232337 0.30871122 3.58384321 0.62209064 5.375 0.9375 C6.87160156 1.19853516 6.87160156 1.19853516 8.3984375 1.46484375 C11 2 11 2 13 3 C12.8125 4.8125 12.8125 4.8125 12 7 C8.65188866 9.53370588 7.29875783 10 3 10 C2.88398437 10.87011719 2.88398437 10.87011719 2.765625 11.7578125 C1.74189744 14.75587178 0.21101865 15.91107452 -2.25 17.875 C-3.01828125 18.51179687 -3.7865625 19.14859375 -4.578125 19.8046875 C-7 21 -7 21 -9.55859375 20.3828125 C-11.87158846 19.07273229 -13.81119286 17.74405851 -15.8125 16 C-16.41707031 15.484375 -17.02164063 14.96875 -17.64453125 14.4375 C-19 13 -19 13 -19 11 C-16.09399739 9.74335022 -14.20395416 9 -11 9 C-10.505 8.505 -10.01 8.01 -9.5 7.5 C-9.005 7.005 -8.51 6.51 -8 6 C-7.01 6 -6.02 6 -5 6 C-4.67 5.01 -4.34 4.02 -4 3 C-3.01 3 -2.02 3 -1 3 C-0.67 2.01 -0.34 1.02 0 0 Z " fill="#E9E9E9" transform="translate(668,556)"/>
<path d="M0 0 C0.58265625 0.28875 1.1653125 0.5775 1.765625 0.875 C11.74950333 5.39600151 21.36207238 4.31797333 32 3 C27.85714286 10.57142857 27.85714286 10.57142857 25 13 C24.13375 12.67 23.2675 12.34 22.375 12 C17.35946314 10.49327494 12.28108289 11.04286036 7.109375 11.3203125 C4 11 4 11 2.12109375 9.2265625 C0.60310332 6.21173829 0.32076963 3.33600416 0 0 Z " fill="#0B0B0B" transform="translate(717,251)"/>
<path d="M0 0 C3.53571429 0.53571429 3.53571429 0.53571429 5 2 C5.89147685 8.53325179 5.06792389 13.01419047 1.2890625 18.40625 C0 20 0 20 -2 22 C-4.625 21.625 -4.625 21.625 -7 21 C-7.64485917 13.20436913 -7.06150005 8.1198137 -2 2 C-1.34 1.34 -0.68 0.68 0 0 Z " fill="#080808" transform="translate(161,192)"/>
<path d="M0 0 C-5.7533738 3.30491525 -11.93668115 4.79132532 -18.3125 6.5 C-24.96309319 8.30128426 -31.57842229 10.09891209 -38.08666992 12.36914062 C-49.99449671 16.29536551 -64.65546502 15.12092683 -76 10 C-76.66 9.34 -77.32 8.68 -78 8 C-75.08529038 8.54650805 -72.2710649 9.20226164 -69.41015625 9.99609375 C-48.67071925 15.13498585 -26.55127189 7.93441185 -7.3359375 0.14453125 C-3.95236519 -1.01634309 -3.20579485 -1.02272632 0 0 Z " fill="#545454" transform="translate(712,583)"/>
<path d="M0 0 C0.53625 0.17015625 1.0725 0.3403125 1.625 0.515625 C7.57593841 2.3557178 13.57340136 3.9215357 19.62988281 5.36914062 C23.17876204 6.23375872 26.64867886 7.18384142 30.10546875 8.3671875 C45.79455979 13.673628 61.05939432 13.43381085 77 9 C77 9.66 77 10.32 77 11 C62.84297656 15.74016928 48.24331888 17.54469201 33.9375 12.34765625 C27.10357998 9.88386827 19.95816597 8.29216478 12.93530273 6.46264648 C11.84161377 6.17333252 10.7479248 5.88401855 9.62109375 5.5859375 C8.6355249 5.3286084 7.64995605 5.0712793 6.63452148 4.80615234 C4.24514266 4.07501261 2.18734998 3.19522011 0 2 C0 1.34 0 0.68 0 0 Z " fill="#464646" transform="translate(775,590)"/>
<path d="M0 0 C3.625 0.3125 3.625 0.3125 5.5625 1.75 C7.15981938 5.6023585 7.45380422 9.21495391 6.625 13.3125 C4.4375 15.4375 4.4375 15.4375 1.625 16.3125 C-1.1875 16 -1.1875 16 -3.375 15.3125 C-2.385 14.9825 -1.395 14.6525 -0.375 14.3125 C-1.035 12.0025 -1.695 9.6925 -2.375 7.3125 C-3.365 7.6425 -4.355 7.9725 -5.375 8.3125 C-4.36852641 0.40449319 -4.36852641 0.40449319 0 0 Z " fill="#444444" transform="translate(707.375,214.6875)"/>
<path d="M0 0 C2.625 0.375 2.625 0.375 4.9375 1.8125 C7.40940626 5.56613544 7.43625617 9.00415045 6.625 13.375 C5 15.4375 5 15.4375 2.625 16.375 C-0.625 16.5625 -0.625 16.5625 -3.375 16.375 C-3.375 15.715 -3.375 15.055 -3.375 14.375 C-2.385 14.375 -1.395 14.375 -0.375 14.375 C-1.035 12.065 -1.695 9.755 -2.375 7.375 C-3.365 7.705 -4.355 8.035 -5.375 8.375 C-4.37266355 0.69042056 -4.37266355 0.69042056 0 0 Z " fill="#2D2D2D" transform="translate(755.375,215.625)"/>
<path d="M0 0 C3.68069887 1.53643852 5.98775204 3.78150945 8.75 6.625 C9.54921875 7.44226563 10.3484375 8.25953125 11.171875 9.1015625 C12.07679688 10.04128906 12.07679688 10.04128906 13 11 C13.66 10.29875 14.32 9.5975 15 8.875 C17.25724164 6.63065689 19.62673742 4.59779776 22.125 2.625 C22.78757812 2.10164063 23.45015625 1.57828125 24.1328125 1.0390625 C24.74898437 0.69617188 25.36515625 0.35328125 26 0 C26.99 0.33 27.98 0.66 29 1 C27.13133976 2.42018178 25.26195848 3.82313244 23.31640625 5.13671875 C19.52732809 7.71981074 16.70175938 10.21753686 14 14 C10.37406397 12.47677573 8.09945753 10.30646461 5.375 7.5 C4.59898437 6.7059375 3.82296875 5.911875 3.0234375 5.09375 C2.35570312 4.4028125 1.68796875 3.711875 1 3 C0.34 2.34 -0.32 1.68 -1 1 C-0.67 0.67 -0.34 0.34 0 0 Z " fill="#151515" transform="translate(718,288)"/>
<path d="M0 0 C1.32 0.33 2.64 0.66 4 1 C4 4.3 4 7.6 4 11 C1.36 11 -1.28 11 -4 11 C-3.71758359 9.53984709 -3.42373386 8.08190207 -3.125 6.625 C-2.96257813 5.81289063 -2.80015625 5.00078125 -2.6328125 4.1640625 C-2 2 -2 2 0 0 Z " fill="#E8E8E8" transform="translate(708,475)"/>
<path d="M0 0 C2.625 0.4375 2.625 0.4375 5 2.75 C5.53625 3.636875 6.0725 4.52375 6.625 5.4375 C6.295 6.4275 5.965 7.4175 5.625 8.4375 C5.026875 8.128125 4.42875 7.81875 3.8125 7.5 C1.53543228 6.33540296 1.53543228 6.33540296 -1.375 5.4375 C-1.705 6.0975 -2.035 6.7575 -2.375 7.4375 C-3.365 7.7675 -4.355 8.0975 -5.375 8.4375 C-4.37968933 0.80678488 -4.37968933 0.80678488 0 0 Z " fill="#565656" transform="translate(755.375,215.5625)"/>
<path d="M0 0 C2.10304477 -0.1080023 4.20766909 -0.18558987 6.3125 -0.25 C8.07013672 -0.31960938 8.07013672 -0.31960938 9.86328125 -0.390625 C13 0 13 0 14.90625 1.71875 C16.1421347 4.29645237 16.31278617 5.9101801 16.1875 8.75 C16.16042969 9.54921875 16.13335938 10.3484375 16.10546875 11.171875 C16.07066406 11.77515625 16.03585937 12.3784375 16 13 C15.01 13.33 14.02 13.66 13 14 C13 10.7 13 7.4 13 4 C8.66579301 1.96834048 4.71403788 1.47939368 0 1 C0 0.67 0 0.34 0 0 Z " fill="#101010" transform="translate(819,364)"/>
<path d="M0 0 C4.875 1.75 4.875 1.75 6 4 C6.375 6.8125 6.375 6.8125 6 10 C3.625 12.875 3.625 12.875 1 15 C0.34 15 -0.32 15 -1 15 C0 12 0 12 1.5625 10.625 C3.23362963 9.03449298 3.23362963 9.03449298 3.375 6.4375 C3.25125 5.633125 3.1275 4.82875 3 4 C2.01 3.34 1.02 2.68 0 2 C0 1.34 0 0.68 0 0 Z " fill="#1A1A1A" transform="translate(809,239)"/>
<path d="M0 0 C2.96175123 0.61277612 4.38058783 1.25372522 7 3 C7.33 2.01 7.66 1.02 8 0 C8 1.65 8 3.3 8 5 C6.02 5.66 4.04 6.32 2 7 C0 4 0 4 0 0 Z " fill="#0C0C0C" transform="translate(754,221)"/>
<path d="M0 0 C0 0.66 0 1.32 0 2 C-5.52760359 4.10575375 -10.06997733 5.37851209 -16 5 C-13.02880106 3.41075405 -10.10429288 2.32932834 -6.875 1.375 C-6.00617187 1.11460937 -5.13734375 0.85421875 -4.2421875 0.5859375 C-2 0 -2 0 0 0 Z " fill="#2F2F2F" transform="translate(681,591)"/>
<path d="M0 0 C0.99 0.66 1.98 1.32 3 2 C-1.625 6 -1.625 6 -5 6 C-6.67099977 6.31088368 -8.33871537 6.64080332 -10 7 C-6.80331012 4.3513141 -3.60513403 2.06007659 0 0 Z " fill="#282828" transform="translate(659,560)"/>
<path d="M0 0 C0.66 0.33 1.32 0.66 2 1 C-0.97 5.95 -0.97 5.95 -4 11 C-4.66 10.34 -5.32 9.68 -6 9 C-5.38245741 7.68397477 -4.75571258 6.37226444 -4.125 5.0625 C-3.77695312 4.33160156 -3.42890625 3.60070312 -3.0703125 2.84765625 C-2 1 -2 1 0 0 Z " fill="#232323" transform="translate(639,313)"/>
<path d="M0 0 C-4.79482068 2.75702189 -8.58609132 3.53328373 -14 4 C-11.97803833 1.97803833 -10.74135514 1.32448642 -8.125 0.3125 C-7.44695313 0.04050781 -6.76890625 -0.23148438 -6.0703125 -0.51171875 C-3.68892218 -1.07336741 -2.29569809 -0.76694846 0 0 Z " fill="#2C2C2C" transform="translate(712,583)"/>
<path d="M0 0 C0.1875 2.875 0.1875 2.875 0 6 C-3 8 -3 8 -5.1875 7.625 C-5.785625 7.41875 -6.38375 7.2125 -7 7 C-6.195625 6.54625 -5.39125 6.0925 -4.5625 5.625 C-1.91143428 4.25274335 -1.91143428 4.25274335 -1 2 C-1.66 1.67 -2.32 1.34 -3 1 C-1 0 -1 0 0 0 Z " fill="#0A0A0A" transform="translate(714,222)"/>
<path d="M0 0 C-2.55991624 2.01136276 -5.04590299 3.62845496 -8 5 C-8 4.01 -8 3.02 -8 2 C-3.71900826 -1.23966942 -3.71900826 -1.23966942 0 0 Z " fill="#292929" transform="translate(747,289)"/>
</svg>
