<svg id="Layer_1" data-name="Layer 1" xmlns="http://www.w3.org/2000/svg" width="62.25" height="88.26" viewBox="0 0 62.25 88.26"><defs><style>.cls-1{fill:#4467b1;}</style></defs><title>cssicon</title><path class="cls-1" d="M578.21,995.79c10,0,20,0,30,0,0.95,0,1.22.21,1.13,1.19-0.57,6-1.08,12.05-1.61,18.08-0.44,5.08-.86,10.15-1.31,15.23-0.52,5.89-1.05,11.78-1.57,17.68-0.31,3.47-.63,6.95-0.86,10.43a1.41,1.41,0,0,1-1.24,1.51q-11.63,3.29-23.23,6.69a3.8,3.8,0,0,1-2.2,0q-12-3.39-24-6.71a1.35,1.35,0,0,1-1.15-1.46c-0.49-6.38-1-12.75-1.55-19.12-0.37-4.53-.73-9.07-1.1-13.6q-0.78-9.46-1.57-18.91c-0.28-3.41-.54-6.82-0.86-10.22-0.09-1,.54-0.74,1-0.74h30.08Zm0.27,36.51c2.76,0,5.53.07,8.29,0,0.73,0,1,.13,1,1-0.33,2.95-.6,5.9-0.87,8.86a0.89,0.89,0,0,1-1,.83c-2.47.47-4.94,1-7.41,1.45-2.77-.6-5.53-1.23-8.31-1.78a1,1,0,0,1-.94-1.08c-0.11-1.36-.3-2.72-0.43-4.08a0.84,0.84,0,0,0-1-.94c-2,.05-4,0-6,0-0.68,0-.88.19-0.82,0.87,0.34,3.5.66,7,.95,10.52a1,1,0,0,0,.86,1c5,1.36,10,2.75,15,4.14a1,1,0,0,0,1.06,0c4.89-1.5,9.78-3,14.68-4.5a0.74,0.74,0,0,0,.54-0.84q0.21-2.5.44-5c0.52-5.82,1-11.64,1.58-17.47,0.07-.72-0.21-0.86-0.85-0.85-2.12,0-4.24,0-6.37,0h-9a2.16,2.16,0,0,1,.86-0.55c5.31-2.18,10.61-4.37,15.93-6.51a1.12,1.12,0,0,0,.88-1.25q-0.09-2.87,0-5.75c0-.78-0.23-1-1-1-5.48,0-11,0-16.43,0-0.58,0-1.16,0-1.74.07q-9.75,0-19.5-.06c-0.68,0-.7.34-0.63,0.84,0.27,1.89.61,3.78,0.75,5.69,0.08,1,.49,1.17,1.39,1.16,5.37,0,10.75,0,16.12,0a1.49,1.49,0,0,1,1,.15l-2.91,1.28q-7.15,3.1-14.29,6.2c-0.33.14-.85,0.15-0.75,0.78,0.32,2.09.64,4.19,0.92,6.29a0.54,0.54,0,0,0,.66.56Z" transform="translate(-547.08 -978.47)"/><path class="cls-1" d="M586.93,978.54l9.82,0c0,1.1-.05,2.19,0,3.28,0.06,0.83-.26,1-1,0.93s-1.23,0-2.09,0a21.4,21.4,0,0,0,2.07,2.65c1.48,1.38.86,3.1,1,4.71,0,0.37-.26.33-0.49,0.33-2.84,0-5.68,0-8.52,0-0.44,0-.5-0.2-0.49-0.56,0-.92,0-1.85,0-2.77a0.47,0.47,0,0,1,.57-0.59c0.78,0,1.56,0,2.55,0-0.83-1.18-1.5-2.27-2.31-3.25a4.29,4.29,0,0,1-1.11-3.47A8.1,8.1,0,0,0,586.93,978.54Z" transform="translate(-547.08 -978.47)"/><path class="cls-1" d="M580.29,982.86c0.56,0.73,1.07,1.49,1.69,2.15a4.56,4.56,0,0,1,1.28,3.7c-0.12,1.68,0,1.69-1.74,1.69-2.33,0-4.65,0-7,0-0.6,0-.86-0.1-0.81-0.77a19.57,19.57,0,0,0,0-2.46c0-.51.1-0.74,0.67-0.7,0.75,0.05,1.5,0,2.44,0-1-1.37-1.78-2.69-2.76-3.89s-0.5-2.54-.6-3.83c0-.36.3-0.3,0.52-0.3,2.91,0,5.82,0,8.72,0,0.41,0,.56.15,0.51,0.54a0.82,0.82,0,0,0,0,.1c0,1.06.3,2.25-.08,3.15C582.67,983.39,581.27,982.32,580.29,982.86Z" transform="translate(-547.08 -978.47)"/><path class="cls-1" d="M559.79,978.47l9.84,0.06c0,1-.07,2.05,0,3.07,0.06,0.81-.25,1-1,0.95-1.3-.06-2.6,0-3.89,0a0.64,0.64,0,0,0-.79.81,18.18,18.18,0,0,1,0,2.36c0,0.62.13,0.84,0.78,0.81,1.4-.05,2.8,0,4.2,0a0.55,0.55,0,0,1,.69.7,24.86,24.86,0,0,0,0,2.56c0,0.58-.22.67-0.72,0.66-2.84,0-5.67,0-8.51,0-0.32,0-.7.11-0.7-0.46C559.76,986.12,559.59,982.29,559.79,978.47Z" transform="translate(-547.08 -978.47)"/></svg>