<svg id="Layer_1" data-name="Layer 1" xmlns="http://www.w3.org/2000/svg" viewBox="0 0 53.49 53.5"><defs><style>.cls-1{fill:#4467b1;}</style></defs><title>githubicon</title><path class="cls-1" d="M463.08,1517.7V1521c-0.08.67-.16,1.34-0.25,2a25.55,25.55,0,0,1-6.36,13.87c-7.06,7.76-15.86,10.74-26.09,8.46a26.41,26.41,0,0,1-19.76-33.08c3-10.61,10.26-17,21.07-19.25,0.95-.2,1.92-0.28,2.88-0.42H438l1.08,0.13a26.11,26.11,0,0,1,11.81,4.2,26.43,26.43,0,0,1,11.87,18.47C462.89,1516.19,463,1516.95,463.08,1517.7Zm-22.4,12a5.9,5.9,0,0,1,1.41,4.29c0,2,0,4,0,6.06,0,1.33.7,1.82,2,1.37a23.46,23.46,0,0,0,13.79-31.34,23.38,23.38,0,0,0-44.54,13.09,22.73,22.73,0,0,0,11.32,16.4,31,31,0,0,0,4.11,1.89,1.23,1.23,0,0,0,1.85-1c0.05-1.35,0-2.71,0-4.08-0.59.07-1.14,0.16-1.69,0.21-2.77.25-5.43-.88-6.44-3.69a6,6,0,0,0-2.55-3.14c-0.35-.22-0.91-0.51-0.72-1a1.1,1.1,0,0,1,1.31-.33,4.55,4.55,0,0,1,3.27,2.36c1.55,2.61,4,3,6.55,2a0.58,0.58,0,0,0,.34-0.33,5.8,5.8,0,0,1,1.4-2.92c-1-.21-2-0.36-3-0.61a9.27,9.27,0,0,1-6.46-4.84,12.53,12.53,0,0,1-1.15-4.46,9.85,9.85,0,0,1,2.06-7.64,0.75,0.75,0,0,0,.11-0.59,8.53,8.53,0,0,1,0-4.68c0.36-1.31.46-1.36,1.81-1.07a14.92,14.92,0,0,1,4.59,2.06,1.09,1.09,0,0,0,.76.14,21.37,21.37,0,0,1,11,0,1.2,1.2,0,0,0,.76-0.12c1.07-.54,2.09-1.18,3.19-1.64a11.93,11.93,0,0,1,2.37-.52,0.44,0.44,0,0,1,.55.34,8.72,8.72,0,0,1,.3,5.43,0.75,0.75,0,0,0,.17.79,7.79,7.79,0,0,1,1.94,4.53A21.26,21.26,0,0,1,451,1521a8.82,8.82,0,0,1-6.16,7.64C443.52,1529.11,442.09,1529.37,440.68,1529.73Z" transform="translate(-409.59 -1492.64)"/></svg>