<svg id="Layer_1" data-name="Layer 1" xmlns="http://www.w3.org/2000/svg" width="62.29" height="88.02" viewBox="0 0 62.29 88.02"><defs><style>.cls-1{fill:#4467b1;}</style></defs><title>htmlicon</title><path class="cls-1" d="M392.43,996.05h62.29c-0.15,1.82-.29,3.57-0.44,5.32q-0.58,6.48-1.17,13-0.68,7.5-1.36,15c-0.37,4.15-.73,8.3-1.1,12.45q-0.67,7.55-1.36,15.1c0,0.07,0,.14,0,0.2-0.29,2.64-.29,2.63-2.82,3.33-7.3,2-14.59,4.06-21.89,6.05a4.12,4.12,0,0,1-2.07,0c-7.83-2.14-15.64-4.33-23.47-6.48a1.23,1.23,0,0,1-1.08-1.28c-0.43-5.21-.91-10.41-1.38-15.61-0.52-5.75-1.06-11.49-1.57-17.24-0.44-5-.86-9.94-1.3-14.9-0.38-4.22-.78-8.43-1.15-12.65C392.47,997.6,392.47,996.89,392.43,996.05Zm14,40.41c0,0.54,0,.91,0,1.28,0.32,3.43.67,6.86,0.94,10.3a1.06,1.06,0,0,0,.91,1.11c4.9,1.34,9.79,2.72,14.69,4.05a2.39,2.39,0,0,0,1.2,0c4.93-1.34,9.85-2.72,14.78-4.07a1,1,0,0,0,.81-1c0.14-1.9.37-3.8,0.55-5.7q0.61-6.68,1.2-13.35c0.13-1.44.21-2.89,0.32-4.46H413.25l-0.7-7.84h30l0.68-7.85H403.88c0,0.56,0,1,.08,1.51q0.37,4.18.75,8.36c0.38,4.22.79,8.43,1.12,12.65,0.08,1,.47,1.25,1.44,1.25,8.14,0,16.27,0,24.41,0H433c0,0.45,0,.79,0,1.11-0.25,2.65-.54,5.29-0.74,7.95a1,1,0,0,1-.89,1.1c-2.44.63-4.87,1.3-7.31,1.94a2.07,2.07,0,0,1-1,0c-2.51-.65-5-1.34-7.51-2a0.84,0.84,0,0,1-.72-0.92q-0.14-2.35-.43-4.69a1.14,1.14,0,0,0-.61-0.83C411.34,1036.44,408.92,1036.46,406.38,1036.46Z" transform="translate(-392.43 -978.58)"/><path class="cls-1" d="M424.22,978.6c1.24,0,2.41,0,3.56,0a1.42,1.42,0,0,1,.92.6c0.74,1.1,1.4,2.24,2.16,3.47,0.73-1.2,1.42-2.26,2-3.36a1.3,1.3,0,0,1,1.39-.75c1.05,0.06,2.11,0,3.22,0v11.8h-3.93v-5.29l-0.24-.08-2.5,3.82-2.5-3.83-0.2,0v5.37h-3.9V978.6Z" transform="translate(-392.43 -978.58)"/><path class="cls-1" d="M405.67,978.65h3.92v11.76h-3.85v-3.82h-3.63v3.81h-4V978.68h3.92v3.75h3.61v-3.77Z" transform="translate(-392.43 -978.58)"/><path class="cls-1" d="M418.94,990.45h-4v-7.94h-3.45v-3.87h10.87v3.83h-3.38v8Z" transform="translate(-392.43 -978.58)"/><path class="cls-1" d="M443.52,978.65v7.86H449v3.91h-9.46V978.65h3.95Z" transform="translate(-392.43 -978.58)"/></svg>