<svg id="Layer_1" data-name="Layer 1" xmlns="http://www.w3.org/2000/svg" viewBox="0 0 161.28 45.63"><defs><style>.cls-1{fill:#4467b1;}</style></defs><title>jqueryicon</title><path class="cls-1" d="M742.41,1283.19l3.71,0.18-1.6,6.63h-5.63c-4.89,0-9.77,0-14.66-.06-2.93,0-5.67-.67-7.79-2.93a9.64,9.64,0,0,1-2.64-5.58c-0.88-7.8,1-14.88,6.31-20.73,4.71-5.15,13.18-6.63,19.53-3.77a12.18,12.18,0,0,1,6.88,12.33c-0.57,4.29-2.13,8.28-3.55,12.32Zm-11.93,0v-0.11c1.22,0,2.45,0,3.67,0a1.15,1.15,0,0,0,.87-0.59c1.16-4.27,2.37-8.53,3.34-12.84a5.34,5.34,0,0,0-2.33-5.87c-3-2-9.29-1.58-11.4,3.16a33.66,33.66,0,0,0-2.72,10.8,4.38,4.38,0,0,0,3.77,5.08A42.48,42.48,0,0,0,730.48,1283.23Z" transform="translate(-691.41 -1255.48)"/><path class="cls-1" d="M799.6,1283.63l-1.39,6.41c-1.72,0-3.4,0-5.07,0-3.8-.07-7.61,0-11.39-0.28a6.4,6.4,0,0,1-6.14-7.2,38.53,38.53,0,0,1,3-12.76c1.59-3.6,4.64-5.47,8.21-6.62a16,16,0,0,1,9.78-.21c3.91,1.21,5.94,4,5.59,8.13-0.21,2.49-.69,5-1.13,7.43a1.25,1.25,0,0,1-1,.55c-4.12,0-8.25,0-12.37,0-1,0-2,.06-3,0a1.05,1.05,0,0,0-1.3,1.06,2.5,2.5,0,0,0,2.51,3.12c1.56,0.14,3.14.18,4.7,0.24s2.93,0.1,4.39.13S797.93,1283.63,799.6,1283.63Zm-5.22-10.43a3,3,0,0,0-1-3.51,5.7,5.7,0,0,0-8.46,3.51h9.49Z" transform="translate(-691.41 -1255.48)"/><path class="cls-1" d="M768.93,1263.19h7l-5.64,26.8c-1.59,0-3.15,0-4.71,0-3.59,0-7.2.07-10.78-.19-3.78-.28-6-2.75-5.83-6.57a58.16,58.16,0,0,1,1-8.08c0.66-3.74,1.51-7.44,2.24-11.16a0.86,0.86,0,0,1,1-.86c2,0,4,0,6.37,0-0.69,3.35-1.3,6.52-2,9.68a29.36,29.36,0,0,0-.95,8.49c0,0.59.14,1.17,0.22,1.91h4.93c2.71,0,2.69,0,3.26-2.62C766.36,1274.81,767.65,1269,768.93,1263.19Z" transform="translate(-691.41 -1255.48)"/><path class="cls-1" d="M852.69,1259.11c-1.48,2.18-2.72,4.15-4.12,6-3.26,4.32-6.65,8.53-9.87,12.87a40.74,40.74,0,0,0-5.89,11.14,1.12,1.12,0,0,1-.71.69c-2.44.05-4.88,0-7.29,0,0.38-1.39.85-2.7,1.08-4a15.08,15.08,0,0,0-.73-6.69c-0.62-2.21-1.24-4.42-1.86-6.63-0.07-.26-0.09-0.54-0.17-1h3.28c1.22,0,2.45,0,3.67,0a1,1,0,0,1,1.25.9c0.27,1.06.63,2.1,1,3.37,0.46-.65.8-1.12,1.13-1.59q4.93-7.15,9.86-14.3a1.52,1.52,0,0,1,.92-0.69C846.93,1259.08,849.61,1259.11,852.69,1259.11Z" transform="translate(-691.41 -1255.48)"/><path class="cls-1" d="M830.56,1269.64H814.19c-0.65,3-1.29,6-1.93,9-0.75,3.47-1.52,6.94-2.22,10.43a0.91,0.91,0,0,1-1.1.88c-2.06,0-4.12,0-6.35,0l5.74-27c3.88,0,7.68,0,11.49,0,2,0,4,0,6.07.17,2.39,0.16,3.44,1.07,4.06,3.36C830.2,1267.49,830.34,1268.49,830.56,1269.64Z" transform="translate(-691.41 -1255.48)"/><path class="cls-1" d="M691.41,1301.09c0.54-2.28,1-4.21,1.47-6.13a1.16,1.16,0,0,1,.76-0.63,9.21,9.21,0,0,1,2.27-.29,1.72,1.72,0,0,0,1.69-1.1c1.73-3.1,2.42-6.5,3.13-9.92,0.75-3.6,1.63-7.18,2.44-10.78a1,1,0,0,1,1.25-.88c2.16,0.05,4.32,0,6.59,0-0.51,2.35-1,4.59-1.5,6.82-1.31,5.52-2.54,11.06-4,16.53-1.17,4.36-3.62,6.19-8,6.35C695.56,1301.15,693.58,1301.09,691.41,1301.09Z" transform="translate(-691.41 -1255.48)"/><path class="cls-1" d="M703.71,1269.24c0.44-1.93.82-3.74,1.27-5.53a1,1,0,0,1,.67-0.6c2.3,0,4.6,0,7.08,0-0.35,1.7-.74,3.27-1,4.86a1.3,1.3,0,0,1-1.62,1.32C708,1269.18,706,1269.24,703.71,1269.24Z" transform="translate(-691.41 -1255.48)"/></svg>