<svg id="Layer_1" data-name="Layer 1" xmlns="http://www.w3.org/2000/svg" width="68.11" height="96.26" viewBox="0 0 68.11 96.26"><defs><style>.cls-1{fill:#4467b1;}</style></defs><title>jsicon</title><path class="cls-1" d="M698.78,993.6H766.9c-0.11,1.59-.21,3.14-0.34,4.68-0.34,3.87-.7,7.74-1,11.6q-0.63,7-1.26,13.95c-0.33,3.68-.65,7.37-1,11q-0.63,7.09-1.28,14.17c-0.33,3.68-.7,7.36-1,11.05-0.2,3-.13,3-3,3.82-8.05,2.23-16.1,4.48-24.16,6.68a4.07,4.07,0,0,1-2,0c-8.53-2.34-17-4.73-25.56-7.07a1.54,1.54,0,0,1-1.39-1.53c-0.21-2.79-.47-5.58-0.72-8.37q-0.64-7.14-1.29-14.28c-0.32-3.61-.63-7.22-1-10.83q-0.64-7.2-1.3-14.39-0.48-5.36-.94-10.71C699.35,1000.16,699.07,996.93,698.78,993.6Zm55.7,14c-0.53,0-.9-0.07-1.26-0.07-5.91,0-11.82,0-17.74,0-1,0-1.25.29-1.25,1.27,0,7.89,0,15.79,0,23.68,0,1.31.13,1.35,1.43,1.24,2.75-.24,5.51-0.38,8.26-0.59,0.82-.06,1.19.2,1.1,1.07s-0.16,1.86-.23,2.79l-0.5,6a1.47,1.47,0,0,1-1.32,1.5c-2.59.57-5.14,1.28-7.72,1.91a1.12,1.12,0,0,0-1,1.3c0.05,2.43,0,4.86,0,7.3a6.28,6.28,0,0,0,.11.79,2.54,2.54,0,0,0,.6,0c5-1.38,10-2.76,15-4.18a1.1,1.1,0,0,0,.64-0.76c0.27-2.48.48-5,.7-7.46,0.26-2.86.5-5.72,0.76-8.58s0.52-5.87.82-8.8c0.1-1-.32-1.19-1.21-1.17-2.92,0-5.84,0-8.76,0-0.77,0-1.1-.23-1-1q0.24-3.35.42-6.71a0.77,0.77,0,0,1,.91-0.84c2.09,0,4.18-.14,6.28-0.2,1.08,0,2.17,0,3.26,0a0.87,0.87,0,0,0,1.07-.93c0.09-1.6.28-3.19,0.43-4.79Zm-23.36,48.22v-48.19h-7.49l1.26,37.23c-1.28-.35-2.34-0.69-3.42-0.92s-1.59-.59-1.5-1.76a11,11,0,0,0-.2-2.56,1.33,1.33,0,0,0-.55-1c-1.69-.37-3.41-0.62-5.21-0.93,0,0.35,0,.53,0,0.7q0.47,5.24.94,10.49c0.22,2.47.21,2.48,2.56,3.14Z" transform="translate(-698.78 -974.47)"/><path class="cls-1" d="M738.33,983.16a31.5,31.5,0,0,0-2.58-3.6c-1.44-1.52-1.15-3.26-1.11-5.09h10.63V979h-3.35c1,1.23,1.68,2.27,2.52,3.2a3.38,3.38,0,0,1,.91,2.75c-0.07.77,0,1.56,0,2.4H735v-4.19h3.33Z" transform="translate(-698.78 -974.47)"/><path class="cls-1" d="M720.47,987.36v-5.87h4.24l0.2,1.47h1.59v-8.48h4.38v12.89H720.47Z" transform="translate(-698.78 -974.47)"/></svg>