<?xml version="1.0" standalone="no"?>
<!DOCTYPE svg PUBLIC "-//W3C//DTD SVG 20010904//EN"
 "http://www.w3.org/TR/2001/REC-SVG-20010904/DTD/svg10.dtd">
<svg version="1.0" xmlns="http://www.w3.org/2000/svg"
  viewBox="0 0 200.000000 200.000000"
 preserveAspectRatio="xMidYMid meet">

<g transform="translate(0.000000,200.000000) scale(0.100000,-0.100000)"
fill="#222055" stroke="none">
<path d="M575 1333 l-50 -17 51 -7 c116 -15 198 -68 249 -160 27 -49 30 -62
30 -149 0 -80 -4 -102 -23 -138 -51 -96 -138 -155 -249 -171 l-58 -7 59 -18
c176 -54 355 26 435 194 21 46 26 69 26 140 0 71 -5 94 -26 140 -37 78 -88
131 -161 170 -55 30 -74 34 -148 37 -59 2 -100 -2 -135 -14z"/>
<path d="M470 1301 c-87 -27 -165 -94 -202 -176 -32 -70 -32 -180 0 -250 39
-85 126 -157 216 -179 26 -6 23 -2 -26 43 -80 73 -113 149 -113 261 0 111 33
188 112 260 56 51 57 54 13 41z"/>
<path d="M1174 1147 c-2 -7 -3 -78 -2 -157 l3 -145 33 -3 32 -3 0 160 0 161
-30 0 c-17 0 -33 -6 -36 -13z"/>
<path d="M1300 1000 l0 -160 30 0 29 0 3 108 3 107 39 -73 c34 -64 42 -73 65
-70 20 2 34 19 66 73 l40 70 3 -108 3 -108 27 3 27 3 0 155 0 155 -27 3 c-30
4 -52 -25 -105 -133 -15 -30 -30 -55 -33 -55 -4 0 -17 23 -31 52 -13 28 -36
71 -51 95 -23 35 -33 43 -58 43 l-30 0 0 -160z"/>
<path d="M1700 1000 l0 -160 30 0 30 0 0 160 0 160 -30 0 -30 0 0 -160z"/>
</g>
</svg>
