<svg width="718.7662353515625" height="642.9993896484375" xmlns="http://www.w3.org/2000/svg" xmlns:xlink="http://www.w3.org/1999/xlink">
 <defs>
  <path id="reuse-0" d="m36,413.667l0,-23.804l19.064,-6.798l19.056,6.798l0,23.806l-16.876,6.025c0.341,-0.816 1.137,-2.712 1.137,-2.712s-2.969,1.505 -3.317,1.681c-0.348,-0.176 -3.316,-1.681 -3.316,-1.681s0.797,1.896 1.14,2.713l-16.888,-6.028z"/>
 </defs>
 <defs>
  <clipPath id="e" clipPathUnits="userSpaceOnUse">
   <use xlink:href="#reuse-0" id="svg_1"/>
  </clipPath>
  <clipPath id="f" clipPathUnits="userSpaceOnUse">
   <use xlink:href="#reuse-0" id="svg_2"/>
  </clipPath>
  <clipPath id="g" clipPathUnits="userSpaceOnUse">
   <use xlink:href="#reuse-0" id="svg_3"/>
  </clipPath>
 </defs>
 <g>
  <title>background</title>
  <rect x="-1" y="-1" width="720.76624" height="644.99939" id="canvas_background" fill="none"/>
 </g>
 <g>
  <title>Layer 1</title>
  <g id="svg_19">
   <path fill="#222055" d="m372.99365,512.86873l-241.43424,107.69366l0,303.26294l241.30935,108.20878l241.31265,-108.20878l0,-303.26304l-241.18776,-107.69356z" transform="translate(-75.0432, -571.723) scale(1.1557)" id="svg_4" stroke="#ffffff"/>
   <path fill="#fff" fill-rule="evenodd" d="m96.21295,484.36494l0,2.00492c50.65524,28.93714 172.60801,79.42709 257.66771,117.25852c85.05971,-37.83143 207.01227,-88.32138 257.6675,-117.25852l0,-2.00492c-85.89718,34.66782 -171.77971,69.37211 -257.6675,104.06327c-85.94493,-34.54872 -171.69392,-69.58641 -257.66771,-104.06327z" id="svg_6"/>
   <path fill="#222055" d="m529.15732,501.67866c-43.83061,25.03856 -149.35291,68.72628 -222.953,101.4609l0,15.03125l241.3125,-108.20898l-18.3595,-8.28317z" transform="translate(6.005e-05, -93.4206) scale(1.1557)" id="svg_7"/>
   <path fill="#222055" d="m306.20432,603.13956c-73.60009,-32.73462 -179.12238,-76.42234 -222.95312,-101.46094l-18.35547,8.28321l241.30859,108.20898l0,-15.03125z" transform="translate(6.005e-05, -93.4206) scale(1.1557)" id="svg_8"/>
   <g id="svg_9">
    <path stroke="#210408" fill="#ffffff" d="m436.76375,149.95171c-0.18298,2.26129 1.56222,4.19952 3.88445,4.39617c2.30817,0.19663 4.33485,-1.4888 4.51782,-3.73605c0.18297,-2.23319 -1.56224,-4.18548 -3.89855,-4.36807c-2.32224,-0.18259 -4.33484,1.47474 -4.50372,3.70795m24.42883,-17.28423s-17.0455,24.04004 9.7461,27.52758c0,0 -10.90869,2.28838 -17.61754,-1.99621c-6.708,-4.29864 -2.86997,-15.9023 7.87144,-25.53137" id="svg_10"/>
    <path stroke="#210408" fill="#ffffff" d="m454.78633,162.24497c1.73447,5.24399 6.37928,6.46455 12.55217,7.29786c6.18688,0.83171 16.44432,5.0421 12.54754,15.4132c-2.1451,5.63222 -7.97554,8.77462 -16.4649,3.42848c-8.42543,-5.2828 -12.53552,-15.06113 -8.63481,-26.13954m-20.62836,-44.91978c-12.07563,-2.02252 -17.73343,-5.80069 -18.49344,-9.04517c0,0 -8.72597,8.82045 -3.47631,16.48917c0,0 -7.72672,3.91862 -12.7371,0.82868c0,0 -5.75635,6.44678 -1.77336,15.15486c0.09849,0.26687 0.28149,0.51966 0.40815,0.78653c-5.57335,3.35682 -9.85191,4.08717 -12.16007,3.24445c0,0 2.42076,7.50017 10.18969,8.20244c0,0 -0.64743,5.08441 -5.03855,6.15186c0,0 2.05483,5.21079 10.00673,6.88219c4.32077,0.91293 11.35783,0.941 16.49491,-1.91017c-3.78595,-3.27255 -4.60225,-6.74174 -3.983,-10.02833c0.67557,-2.62648 1.82965,-4.81753 3.27929,-6.68556c1.61853,-1.91015 3.58891,-3.55347 5.47485,-4.70517l0,-0.0282c7.69856,-4.5226 18.40899,-4.60687 25.44607,-3.06189l1.88594,-0.99722c3.80002,-6.19397 -0.8726,-18.8347 -15.5238,-21.27859" id="svg_11"/>
    <g fill="#fff" id="svg_12">
     <path stroke="#210408" d="m270.58027,289.26535c-0.04573,0.13897 -0.08593,0.27131 -0.13086,0.40955l0.12856,0.17618l0.03902,-0.0389c-0.00588,-0.11457 -0.03667,-0.54682 -0.03667,-0.54682l-0.00005,-0.00001zm-0.28009,3.17116c-3.88223,12.93011 -4.52424,22.59511 -3.04196,29.55638c1.59991,7.51371 5.46798,12.08136 9.97074,14.91088c4.50278,2.82953 9.66249,3.89302 13.76344,4.23738c2.05046,0.1722 3.83433,0.16659 5.13575,0.11667c0.04866,-0.00234 0.0697,-0.00468 0.11707,-0.00703c-12.05997,-5.87181 -18.63353,-18.32152 -22.14778,-29.5701c-2.8422,-9.09749 -3.53291,-15.86151 -3.79727,-19.24435l0.00001,0.00017zm77.73875,-39.45882c-4.13241,23.73462 -13.97972,56.7864 -15.28786,81.21709c-1.37628,25.92582 4.30777,44.75223 10.32431,57.0993c4.96575,10.19068 9.30937,14.92259 10.96253,16.62003c-2.45603,-10.90545 -3.04959,-27.6702 -1.2627,-45.11934c1.89534,-18.50815 6.38746,-37.51473 14.07797,-50.26734c5.71419,-9.50024 12.3835,-27.65834 17.04645,-39.70365c-4.04736,-2.70417 -7.79356,-5.18201 -10.69162,-6.77706l-0.01376,-0.00702l-0.01834,-0.01172c-0.00235,-0.00117 -0.00235,-0.00351 -0.0047,-0.00468c-8.51279,-4.68856 -16.71314,-9.54335 -25.13234,-13.04616l0.00006,0.00055zm-26.73711,-104.50665c-1.31839,0.00469 -2.64061,0.03831 -3.96718,0.1052c-18.9482,0.95223 -41.50319,7.62355 -58.98421,19.21461c40.37713,-10.15949 70.69649,2.22462 86.65572,30.00711l0.01176,0.02285l0.0094,0.02061c0.259,0.55138 0.77121,1.67538 1.14102,2.50308c17.26965,2.05733 32.35828,9.15647 45.49168,17.56038l-0.39029,-11.75803c-2.43661,-11.29312 -8.99073,-24.07179 -17.66634,-34.30396c-13.90204,-16.38275 -32.53187,-23.43083 -52.30107,-23.37191l-0.00049,0.00006z" id="svg_13" fill="#ffffff"/>
     <path stroke="#210408" d="m336.09149,203.68275c-11.27901,0 -26.77131,1.2784 -40.19752,6.64205c-0.00235,0.00118 -0.00352,0.00118 -0.0047,0.00235l-0.00705,0.00234c-40.65886,17.28948 -52.64855,47.97642 -52.673,75.93869c-0.0122,13.98252 2.99355,27.27722 6.95174,37.80461c3.42556,9.11079 7.56397,15.94594 10.9832,19.52121c-3.74519,-10.85411 -5.13638,-27.31757 -0.7622,-44.28193c4.66466,-18.09095 15.81517,-36.49237 37.35527,-48.2356l0.00941,-0.00468l0.0094,-0.00469c16.29947,-8.148 30.00639,-8.42948 42.43364,-5.07479c12.42727,3.35467 23.57738,10.30225 34.94238,16.56054c8.23375,4.53 20.26671,13.65946 33.74625,21.49804c5.3023,-6.28337 10.35978,-12.87738 14.70244,-19.89186c2.2743,-4.67922 4.03255,-8.85312 5.4319,-13.16515c-0.53908,-0.37719 -1.08277,-0.75251 -1.62314,-1.14857c-21.13539,-15.49901 -50.73666,-46.16267 -91.29787,-46.16267l-0.00015,0.00011zm152.13939,50.52588c-3.76093,5.60348 -8.30354,9.16445 -13.39611,10.85198c-5.64502,1.87059 -11.87449,1.58235 -18.25406,-0.08236c-6.09391,14.91192 -12.28186,23.30291 -20.86901,30.85367c4.74007,1.24187 9.46955,1.99219 14.10092,1.91733c17.24997,-0.27851 26.90062,-11.73204 32.33434,-23.23234c4.43066,-9.37737 5.66166,-17.1777 6.08392,-20.30827l0,-0.00001z" id="svg_14" fill="#ffffff"/>
     <path stroke="#210408" fill-rule="evenodd" d="m286.42372,171.4906c-3.48545,0.01616 -6.98082,0.27092 -10.45057,0.74359c-18.49753,2.51982 -36.2329,11.26752 -47.7301,23.1088c-22.16636,25.94535 -22.83262,51.70427 -17.99004,71.05838c4.12938,16.50372 11.90313,27.74768 14.21571,30.86511c0.50072,-19.61451 0.35801,-33.83455 3.16594,-46.33427c2.90021,-12.91061 8.97875,-24.19188 22.08579,-38.28509l0.01837,-0.01827l0.01837,-0.01828c25.95088,-23.40928 43.73184,-24.76099 77.41734,-27.16541c-10.7559,-9.03723 -23.83732,-13.32897 -37.27034,-13.89044c-1.15847,-0.04838 -2.31864,-0.06946 -3.48046,-0.06408l-0.00001,-0.00004zm189.74951,35.54863c1.62715,15.10954 4.87694,37.30559 -9.29577,54.17754c5.8524,0.52235 10.639,-1.76945 14.26393,-5.73602c3.84127,-4.2033 6.36648,-10.18833 7.34662,-16.20131c1.11845,-11.24768 -1.45624,-22.18347 -12.31478,-32.24021z" id="svg_15" fill="#ffffff"/>
     <path stroke="#210408" d="m427.18962,186.17268s0.08228,0.16532 0.09874,0.19677l0.03209,-0.12127c-0.04455,-0.02436 -0.08616,-0.05119 -0.13087,-0.07544l0.00004,-0.00006zm1.40504,1.60161c2.0817,4.32603 8.93241,19.9937 8.22133,39.49773c-0.61645,16.90799 -3.69717,26.45111 -9.70902,38.79073l-0.01375,0.02741l-0.01375,0.02519c-9.17253,14.85856 -21.2624,27.69049 -32.1851,39.41307c-10.20559,10.95297 -19.21125,20.93396 -24.06937,30.60885c0.50663,-0.32757 0.92659,-0.5997 1.62543,-1.04791c2.28092,-1.46284 5.54783,-3.55198 9.54602,-6.15014c7.98317,-5.18773 18.88535,-12.41187 30.62853,-20.71326l0.04819,-0.03432l0.00235,0c24.03487,-17.01961 32.48666,-21.48832 43.84328,-54.15694c6.94037,-26.56856 -2.56319,-51.55922 -27.92406,-66.26045l-0.00008,0.00004zm-59.39056,150.07214c-0.01552,0.03514 -0.03503,0.07005 -0.05055,0.10519l0,0.01605c0.00353,-0.00703 0.12576,-0.0861 0.14235,-0.10062l-0.0918,-0.02062z" id="svg_16" fill="#ffffff"/>
    </g>
    <g fill="#fff" fill-rule="evenodd" id="svg_17">
     <path stroke="#210408" d="m219.94729,429.45339l0,68.71112l17.73236,0l0,-23.64268l45.87671,0l0,-14.28562l-45.87671,0l0,-15.42839l52.97618,0l0,-15.35443l-70.70854,0zm104.64896,0l0,68.71112l17.73237,0l0,-23.64268l45.87671,0l0,-14.28562l-45.87671,0l0,-15.42839l52.97618,0l0,-15.35443l-70.70855,0zm104.64895,0l0,68.71112l17.73236,0l0,-23.64268l45.87671,0l0,-14.28562l-45.87671,0l0,-15.42839l52.97618,0l0,-15.35443l-70.70854,0z" id="svg_18" fill="#ffffff"/>
    </g>
   </g>
   <g id="svg_5"/>
  </g>
 </g>
</svg>