<?xml version="1.0" encoding="UTF-8" standalone="no" ?>
<!DOCTYPE svg PUBLIC "-//W3C//DTD SVG 1.1//EN" "http://www.w3.org/Graphics/SVG/1.1/DTD/svg11.dtd">
<svg xmlns="http://www.w3.org/2000/svg" xmlns:xlink="http://www.w3.org/1999/xlink" version="1.1" width="1080" height="1080" viewBox="0 0 1080 1080" xml:space="preserve">
<desc>Created with Fabric.js 5.2.4</desc>
<defs>
</defs>
<g transform="matrix(1 0 0 1 540 540)" id="e8356d65-b453-4181-8779-1cb822cc9a3d"  >
<rect style="stroke: none; stroke-width: 1; stroke-dasharray: none; stroke-linecap: butt; stroke-dashoffset: 0; stroke-linejoin: miter; stroke-miterlimit: 4; fill: rgb(255,255,255); fill-rule: nonzero; opacity: 1; visibility: hidden;" vector-effect="non-scaling-stroke"  x="-540" y="-540" rx="0" ry="0" width="1080" height="1080" />
</g>
<g transform="matrix(1 0 0 1 540 540)" id="fdea94bd-1aa9-4608-bdb9-231baf127f1e"  >
</g>
<g transform="matrix(1 0 0 1 540 540)"  >
<g style="" vector-effect="non-scaling-stroke"   >
		<g transform="matrix(1 0 0 1 -0.06 -0.17)"  >
<rect style="stroke: none; stroke-width: 1; stroke-dasharray: none; stroke-linecap: butt; stroke-dashoffset: 0; stroke-linejoin: miter; stroke-miterlimit: 4; fill: rgb(34,32,85); fill-rule: nonzero; opacity: 1; visibility: hidden;" vector-effect="non-scaling-stroke"  x="-540" y="-540" rx="0" ry="0" width="1080" height="1080" />
</g>
		<g transform="matrix(22.02 0 0 22.02 313.17 -110.46)"  >
<path style="stroke: none; stroke-width: 1; stroke-dasharray: none; stroke-linecap: butt; stroke-dashoffset: 0; stroke-linejoin: miter; stroke-miterlimit: 4; fill: rgb(34,32,85); fill-rule: nonzero; opacity: 1;" vector-effect="non-scaling-stroke"  transform=" translate(-1607.47, -5231.52)" d="M 1603.85 5237.67 C 1603.85 5239.67 1603.78 5241.67 1603.6799999999998 5243.67 C 1606.0563337499239 5242.910238387295 1608.186476142536 5241.529270871825 1609.85 5239.67 C 1613.8063755916714 5235.146351109712 1613.8063755916714 5228.393648890288 1609.85 5223.87 C 1607.8225264004539 5221.584954814256 1605.117445981258 5220.008159233118 1602.1299999999999 5219.37 C 1602.7916402294911 5222.377883590217 1603.2394270680336 5225.428849139391 1603.4699999999998 5228.5 C 1603.73 5231.51 1603.85 5234.59 1603.85 5237.67 Z" stroke-linecap="round" />
</g>
		<g transform="matrix(22.02 0 0 22.02 0 0)"  >
<path style="stroke: none; stroke-width: 1; stroke-dasharray: none; stroke-linecap: butt; stroke-dashoffset: 0; stroke-linejoin: miter; stroke-miterlimit: 4; fill: rgb(34,32,85); fill-rule: nonzero; opacity: 1;" vector-effect="non-scaling-stroke"  transform=" translate(-1593.3, -5236.52)" d="M 1560.69 5205.56 L 1560.69 5267.4800000000005 L 1625.9 5267.4800000000005 L 1625.9 5205.56 L 1560.69 5205.56 Z M 1579.2 5246.900000000001 C 1578.9664942781535 5250.00567653965 1578.5086327532817 5253.090393236414 1577.8300000000002 5256.13 C 1577.149355814737 5253.090766889635 1576.6914724768908 5250.005903233927 1576.4600000000003 5246.900000000001 C 1576.2000000000003 5243.820000000001 1576.0900000000004 5240.740000000001 1576.0900000000004 5237.670000000001 C 1576.0900000000004 5234.600000000001 1576.2100000000003 5231.510000000001 1576.4700000000005 5228.440000000001 C 1576.7040687259268 5225.334996229405 1577.1585472887664 5222.250557159545 1577.8300000000004 5219.210000000002 C 1578.5074023719512 5222.249834988461 1578.965250651734 5225.334462450064 1579.2000000000003 5228.440000000001 C 1579.4600000000003 5231.520000000001 1579.5700000000002 5234.600000000001 1579.5800000000004 5237.670000000001 C 1579.5900000000006 5240.740000000001 1579.46 5243.82 1579.2 5246.9 Z M 1593.95 5229.56 C 1593.14 5230.8 1592.27 5231.9800000000005 1591.3700000000001 5233.14 L 1590.44 5234.33 L 1589.1200000000001 5233.17 C 1586.8742422306382 5231.194358944491 1584.7846756749932 5229.047956178532 1582.8700000000001 5226.75 C 1581.8700000000001 5225.6 1581.0000000000002 5224.41 1580.16 5223.17 C 1579.2832639502326 5221.901223060613 1578.5107380111056 5220.563515806714 1577.8500000000001 5219.17 C 1579.2094074921933 5219.908940492471 1580.509915955156 5220.751429265392 1581.7400000000002 5221.6900000000005 Q 1583.5600000000002 5223.06 1585.2200000000003 5224.580000000001 C 1587.0653525062357 5226.276117701332 1588.7989770479207 5228.08990985188 1590.4100000000003 5230.010000000001 C 1591.0900000000004 5229.410000000001 1591.7600000000002 5228.800000000001 1592.4800000000002 5228.230000000001 C 1593.6575312156358 5227.287937502555 1594.896985321247 5226.425999067926 1596.1900000000003 5225.6500000000015 C 1595.549996594822 5227.001738197368 1594.8182891174822 5228.308120040472 1594 5229.56 Z M 1611.79 5241.5 C 1609.520969300503 5243.443644953243 1606.6171532823184 5244.486314185264 1603.6299999999999 5244.43 C 1603.6299999999999 5245.26 1603.55 5246.08 1603.4799999999998 5246.91 C 1603.2479629317472 5250.01584035323 1602.7900856706078 5253.100663068788 1602.11 5256.139999999999 C 1601.429914329392 5253.100663068788 1600.9720370682526 5250.01584035323 1600.74 5246.91 Q 1600.36 5242.29 1600.3700000000001 5237.68 C 1600.3700000000001 5234.6 1600.49 5231.52 1600.74 5228.450000000001 C 1600.9767825485474 5225.375632855597 1601.4278788807715 5222.321543613723 1602.09 5219.31 L 1602.09 5219.31 C 1605.5572443917642 5218.605318575568 1609.153584206125 5219.580408648947 1611.79 5221.9400000000005 C 1614.657789034542 5224.3795816530155 1616.3103125058688 5227.954927279804 1616.3103125058688 5231.72 C 1616.3103125058688 5235.4850727201965 1614.657789034542 5239.060418346985 1611.79 5241.5 Z" stroke-linecap="round" />
</g>
</g>
</g>
<g transform="matrix(NaN NaN NaN NaN 0 0)"  >
<g style=""   >
</g>
</g>
<g transform="matrix(NaN NaN NaN NaN 0 0)"  >
<g style=""   >
</g>
</g>
</svg>