<?xml version="1.0" encoding="UTF-8" standalone="no" ?>
<!DOCTYPE svg PUBLIC "-//W3C//DTD SVG 1.1//EN" "http://www.w3.org/Graphics/SVG/1.1/DTD/svg11.dtd">
<svg xmlns="http://www.w3.org/2000/svg" xmlns:xlink="http://www.w3.org/1999/xlink" version="1.1" width="1080" height="1080" viewBox="0 0 1080 1080" xml:space="preserve">
<desc>Created with Fabric.js 5.2.4</desc>
<defs>
</defs>
<g transform="matrix(1 0 0 1 540 540)" id="ae809452-bc96-4cde-933d-b88797626508"  >
<rect style="stroke: none; stroke-width: 1; stroke-dasharray: none; stroke-linecap: butt; stroke-dashoffset: 0; stroke-linejoin: miter; stroke-miterlimit: 4; fill: rgb(255,255,255); fill-rule: nonzero; opacity: 1; visibility: hidden;" vector-effect="non-scaling-stroke"  x="-540" y="-540" rx="0" ry="0" width="1080" height="1080" />
</g>
<g transform="matrix(1 0 0 1 540 540)" id="596b8cf9-ad98-4776-909a-7b652c3fb759"  >
</g>
<g transform="matrix(1 0 0 1 540 540)"  >
<g style="" vector-effect="non-scaling-stroke"   >
		<g transform="matrix(0.13 0 0 -0.13 -3.22 0)"  >
<path style="stroke: none; stroke-width: 1; stroke-dasharray: none; stroke-linecap: butt; stroke-dashoffset: 0; stroke-linejoin: miter; stroke-miterlimit: 4; fill: rgb(34,32,85); fill-rule: nonzero; opacity: 1;" vector-effect="non-scaling-stroke"  transform=" translate(-3280.72, -2226.23)" d="M 130 2890 L 130 1350 L 398 1351 C 656 1352 663 1352 598 1366 C 497 1388 491 1391 501 1418 C 511 1444 519 1444 630 1421 C 711 1405 715 1403 715 1377 L 714 1350 L 2882 1350 C 4940 1350 5050 1349 5050 1333 C 5050 1323 5046 1298 5041 1278 C 5035 1254 5036 1219 5044 1183 C 5057 1115 5077 1105 5155 1126 C 5239 1148 5244 1146 5236 1100 C 5233 1077 5203 975 5170 872 C 5138 769 5108 664 5104 640 C 5096 589 5049 487 5016 452 C 5005 439 4982 421 4965 412 L 4935 396 L 4965 390 C 4993 385 4990 382 4903 331 C 4787 263 4720 203 4720 166 C 4720 143 4728 135 4772 115 C 4840 85 4947 74 5026 90 C 5058 97 5090 105 5095 110 C 5108 119 5191 144 5265 160 C 5324 173 5349 185 5338 195 C 5335 198 5320 194 5304 185 C 5288 177 5259 167 5240 164 C 5221 161 5157 143 5098 124 C 4984 88 4945 84 4859 100 C 4778 115 4730 139 4730 164 C 4730 187 4774 240 4793 240 C 4813 240 4905 174 4903 162 C 4901 155 4906 150 4913 149 C 4919 149 4934 147 4945 145 C 4989 136 5234 197 5312 236 C 5336 248 5339 248 5343 232 C 5346 218 5341 287 5336 325 C 5336 330 5346 336 5360 337 C 5416 344 5459 361 5465 380 C 5471 399 5441 470 5413 501 C 5401 515 5401 562 5411 839 L 5424 1161 L 5448 1167 C 5472 1173 5620 1164 5628 1156 C 5630 1153 5665 1016 5705 850 C 5764 607 5776 542 5770 512 C 5734 345 5735 334 5791 305 C 5816 291 5820 284 5816 262 C 5809 227 5802 150 5807 172 C 5811 188 5814 188 5838 176 C 5880 155 6058 102 6128 90 C 6195 78 6251 84 6247 102 C 6245 115 6337 180 6357 180 C 6376 180 6420 127 6420 104 C 6420 79 6372 55 6291 40 C 6205 24 6166 28 6052 64 C 5993 83 5929 101 5910 104 C 5891 107 5862 117 5846 125 C 5830 134 5815 138 5812 135 C 5801 125 5826 113 5885 100 C 5957 85 6041 60 6055 50 C 6061 46 6093 37 6127 30 C 6206 14 6308 24 6378 55 C 6447 87 6449 115 6385 174 C 6347 209 6261 269 6282 246 C 6286 241 6269 223 6244 204 L 6200 170 L 6168 192 C 6118 227 6108 239 6116 252 C 6121 260 6118 261 6106 257 C 6095 253 6079 257 6064 269 C 6041 287 6041 287 6122 288 C 6192 288 6203 286 6207 269 C 6212 253 6214 252 6228 266 C 6237 276 6252 279 6269 276 C 6290 271 6280 284 6223 337 L 6150 405 L 6005 732 C 5925 913 5860 1064 5860 1068 C 5860 1073 5892 1078 5931 1079 C 6048 1082 6115 1128 6065 1170 C 6057 1177 6048 1198 6044 1219 C 6040 1239 6032 1266 6026 1280 C 6017 1297 6015 1358 6018 1478 C 6022 1639 6023 1650 6041 1650 C 6055 1650 6060 1643 6060 1620 C 6060 1577 6098 1569 6135 1605 C 6154 1625 6165 1629 6172 1622 C 6180 1614 6189 1618 6202 1636 C 6213 1649 6231 1660 6243 1660 C 6258 1660 6261 1663 6253 1671 C 6245 1679 6246 1689 6256 1708 C 6272 1740 6274 1769 6260 1804 C 6252 1827 6245 1830 6198 1830 L 6145 1831 L 6083 1905 L 6020 1980 L 6020 2279 C 6020 2544 6018 2579 6004 2584 C 5994 2588 5990 2597 5994 2608 C 5998 2617 5978 2600 5951 2570 L 5902 2515 L 5741 2515 L 5580 2516 L 5580 2474 C 5580 2449 5586 2427 5595 2420 C 5608 2409 5605 2405 5572 2390 C 5550 2380 5523 2358 5510 2341 L 5488 2309 L 5441 2358 C 5416 2384 5380 2413 5362 2421 C 5323 2438 5322 2443 5355 2458 C 5373 2466 5380 2477 5380 2498 C 5380 2523 5375 2528 5343 2538 C 5322 2544 5273 2551 5234 2554 C 5151 2561 5107 2574 5063 2606 C 5030 2631 5004 2638 5015 2620 C 5023 2607 4992 2557 4981 2564 C 4976 2567 4975 2580 4977 2592 C 4980 2606 4971 2630 4955 2654 C 4934 2685 4930 2698 4938 2714 C 4957 2753 4956 2762 4923 2795 C 4905 2813 4890 2837 4890 2848 C 4890 2859 4883 2870 4876 2873 C 4868 2876 4856 2897 4850 2918 C 4827 3007 4882 3124 4965 3161 C 5004 3178 5096 3241 5110 3260 C 5121 3274 5213 3313 5267 3325 C 5434 3363 5602 3351 5765 3289 C 5835 3262 5859 3248 5884 3216 C 5901 3195 5942 3159 5974 3138 C 6029 3103 6035 3101 6043 3117 C 6058 3144 6058 3144 6075 3130 C 6121 3092 6056 3199 6007 3241 L 5966 3278 L 5993 3317 L 6020 3356 L 6020 3887 C 6020 4362 6018 4419 6004 4424 C 5995 4427 4670 4430 3059 4430 L 130 4430 L 130 2890 z M 5997 4368 C 5994 4360 5991 4363 5991 4374 C 5990 4385 5993 4391 5996 4387 C 5999 4384 6000 4375 5997 4368 z M 4920 3435 C 4960 3414 4990 3376 4997 3337 C 5002 3305 5000 3299 4978 3291 C 4949 3280 4890 3232 4890 3220 C 4890 3215 4879 3194 4865 3174 C 4852 3154 4838 3123 4834 3104 C 4828 3070 4827 3069 4786 3074 C 4764 3076 4743 3079 4740 3080 C 4737 3081 4731 3082 4725 3080 C 4720 3079 4711 3085 4705 3092 C 4700 3099 4682 3110 4665 3115 C 4626 3129 4623 3153 4654 3200 C 4687 3250 4687 3256 4650 3264 C 4613 3271 4613 3280 4646 3320 C 4673 3352 4781 3430 4798 3430 C 4803 3430 4813 3437 4820 3445 C 4834 3462 4875 3458 4920 3435 z M 1370 3296 C 1370 3293 1357 3236 1341 3168 C 1298 2985 1295 2961 1315 2954 C 1341 2944 1376 2985 1390 3046 C 1406 3113 1416 3126 1456 3133 L 1488 3139 L 1470 3082 C 1440 2985 1437 2951 1455 2943 C 1482 2933 1518 2979 1543 3055 C 1565 3120 1569 3125 1601 3131 C 1620 3135 1636 3137 1637 3136 C 1638 3135 1630 3106 1620 3071 C 1585 2960 1600 2919 1657 2972 C 1676 2989 1680 2990 1680 2978 C 1680 2969 1666 2950 1648 2935 C 1588 2884 1545 2881 1534 2926 C 1527 2954 1518 2956 1499 2934 C 1479 2909 1431 2888 1409 2895 C 1397 2899 1387 2914 1383 2931 L 1377 2961 L 1351 2937 C 1293 2883 1253 2881 1243 2931 C 1236 2965 1229 2967 1213 2940 C 1193 2909 1145 2889 1117 2899 C 1057 2922 1064 3022 1130 3093 C 1164 3130 1173 3135 1216 3135 L 1264 3136 L 1283 3210 C 1293 3251 1307 3288 1313 3292 C 1326 3300 1370 3303 1370 3296 z M 3900 3001 C 3900 2913 3904 2830 3910 2816 C 3930 2763 3984 2791 4037 2880 C 4058 2917 4066 2918 4074 2885 C 4086 2837 3969 2689 3907 2672 C 3861 2659 3819 2679 3794 2724 C 3777 2753 3771 2758 3766 2745 C 3748 2697 3683 2617 3645 2595 C 3578 2555 3530 2566 3491 2631 L 3474 2659 L 3419 2582 C 3375 2519 3357 2502 3324 2491 C 3286 2478 3280 2478 3255 2494 C 3240 2504 3219 2531 3209 2556 L 3189 2600 L 3147 2518 C 3110 2446 3099 2433 3057 2411 C 3014 2389 3005 2388 2970 2399 C 2946 2406 2919 2424 2903 2445 L 2876 2479 L 2844 2432 C 2805 2373 2739 2313 2692 2293 C 2614 2260 2524 2277 2477 2334 C 2462 2353 2459 2353 2450 2339 C 2418 2285 2344 2198 2316 2181 C 2269 2151 2234 2154 2198 2191 L 2167 2221 L 2173 2313 C 2176 2364 2182 2415 2186 2428 L 2193 2451 L 2155 2425 C 2126 2406 2110 2384 2092 2337 C 2078 2303 2060 2265 2052 2253 C 2017 2198 2008 2251 2040 2325 C 2065 2384 2065 2384 2031 2396 C 1998 2409 1985 2453 1999 2513 C 2010 2559 2032 2586 2068 2595 C 2105 2604 2130 2572 2130 2514 C 2130 2490 2134 2470 2139 2470 C 2158 2470 2218 2550 2234 2597 C 2245 2631 2259 2651 2275 2658 L 2299 2669 L 2292 2582 C 2288 2534 2285 2458 2285 2413 C 2285 2342 2288 2328 2307 2309 C 2328 2288 2330 2288 2354 2304 C 2368 2313 2392 2339 2407 2362 C 2430 2396 2435 2415 2436 2474 C 2439 2616 2512 2732 2619 2764 C 2690 2785 2736 2771 2757 2723 C 2784 2657 2746 2588 2637 2507 L 2568 2456 L 2604 2423 C 2670 2362 2752 2384 2819 2480 C 2856 2532 2860 2545 2860 2597 C 2861 2779 3043 2960 3160 2895 C 3184 2882 3188 2884 3237 2931 C 3265 2958 3294 2980 3299 2980 C 3306 2980 3310 2927 3310 2823 C 3310 2658 3318 2618 3353 2612 C 3377 2607 3403 2632 3435 2686 C 3458 2725 3461 2740 3459 2817 C 3459 2866 3459 2925 3459 2950 L 3460 2996 L 3528 3032 L 3596 3069 L 3596 2907 C 3595 2783 3599 2738 3610 2715 C 3632 2672 3661 2672 3698 2714 C 3744 2766 3760 2834 3760 2971 L 3760 3088 L 3823 3124 C 3857 3143 3888 3159 3893 3160 C 3897 3160 3900 3088 3900 3001 z M 2735 3043 C 2731 3023 2719 2988 2708 2966 C 2682 2915 2592 2820 2570 2820 C 2554 2820 2555 2826 2578 2883 C 2592 2917 2605 2963 2608 2985 C 2612 3024 2615 3027 2674 3052 C 2707 3066 2737 3079 2739 3079 C 2741 3080 2739 3063 2735 3043 z M 4615 2518 C 4617 2511 4624 2486 4630 2462 C 4636 2439 4645 2422 4649 2424 C 4668 2436 4729 2329 4730 2283 C 4730 2270 4733 2260 4738 2260 C 4742 2260 4755 2252 4768 2242 L 4791 2224 L 4770 2177 C 4758 2151 4743 2130 4735 2130 C 4728 2130 4714 2123 4706 2114 C 4696 2105 4677 2100 4658 2102 C 4629 2105 4625 2109 4622 2137 C 4620 2158 4612 2171 4600 2175 C 4590 2178 4577 2187 4571 2194 C 4554 2214 4548 2302 4561 2328 C 4571 2345 4570 2366 4557 2428 C 4536 2523 4536 2518 4558 2523 C 4591 2532 4611 2530 4615 2518 z M 1840 2452 C 1903 2390 1917 2290 1879 2178 C 1849 2089 1807 2035 1743 2004 C 1701 1983 1681 1979 1650 1984 L 1610 1990 L 1616 1933 C 1619 1901 1626 1842 1631 1802 C 1636 1762 1640 1724 1640 1719 C 1640 1710 1521 1646 1514 1652 C 1506 1661 1487 1817 1469 2025 L 1457 2165 L 1427 2097 C 1410 2060 1392 2031 1386 2033 C 1368 2039 1376 2090 1409 2177 C 1426 2223 1444 2288 1450 2323 L 1461 2387 L 1516 2413 C 1546 2428 1573 2440 1575 2440 C 1578 2440 1580 2422 1580 2400 C 1580 2353 1593 2348 1610 2389 C 1634 2448 1695 2489 1759 2490 C 1796 2490 1808 2485 1840 2452 z M 5347 2413 C 5367 2404 5406 2372 5434 2342 L 5486 2288 L 5515 2325 C 5530 2346 5562 2371 5586 2382 C 5629 2401 5630 2401 5669 2380 C 5721 2354 5776 2299 5784 2265 C 5788 2250 5799 2226 5809 2211 C 5820 2197 5845 2158 5865 2125 C 5909 2055 6012 1936 6088 1868 C 6133 1826 6146 1820 6183 1820 C 6207 1820 6231 1815 6238 1808 C 6257 1789 6252 1736 6230 1707 C 6207 1678 6126 1630 6101 1630 C 6090 1630 6068 1659 6040 1713 C 5976 1835 5828 1980 5769 1980 C 5760 1980 5759 1949 5764 1858 C 5769 1761 5776 1724 5795 1680 C 5808 1650 5829 1587 5841 1540 C 5857 1479 5871 1447 5892 1425 C 5908 1409 5935 1367 5951 1333 C 5967 1299 5996 1243 6015 1209 C 6034 1176 6050 1145 6050 1141 C 6050 1124 5995 1110 5926 1110 C 5853 1110 5797 1125 5699 1169 C 5618 1206 5467 1206 5235 1169 C 5084 1146 5083 1146 5070 1171 C 5037 1232 5120 1442 5258 1646 L 5312 1725 L 5308 1810 C 5304 1885 5300 1901 5271 1948 L 5238 2000 L 5180 1941 C 5121 1880 5067 1854 5026 1864 C 5014 1867 4962 1906 4911 1950 C 4853 2000 4810 2030 4795 2030 C 4783 2030 4762 2038 4749 2049 C 4724 2069 4726 2077 4762 2135 C 4769 2146 4788 2176 4804 2203 C 4847 2273 4887 2265 4920 2180 C 4928 2161 4953 2127 4976 2103 C 5011 2068 5026 2060 5055 2060 C 5105 2060 5137 2084 5145 2128 C 5149 2148 5160 2176 5170 2190 C 5180 2205 5199 2259 5211 2311 C 5223 2363 5241 2410 5249 2417 C 5271 2434 5306 2433 5347 2413 z M 5341 979 C 5339 971 5338 953 5339 937 C 5340 912 5337 910 5310 912 C 5280 914 5274 920 5287 934 C 5291 937 5295 948 5296 956 C 5301 989 5311 1001 5327 998 C 5337 996 5343 987 5341 979 z M 5890 634 C 5890 624 5863 601 5857 606 C 5848 616 5861 640 5876 640 C 5884 640 5890 637 5890 634 z M 5903 456 C 5906 448 5903 436 5895 430 C 5884 421 5882 423 5885 437 C 5887 447 5889 458 5889 463 C 5890 475 5897 471 5903 456 z M 6060 415 C 6060 407 6058 400 6056 400 C 6054 400 6050 407 6046 415 C 6043 423 6045 430 6050 430 C 6056 430 6060 423 6060 415 z M 5085 375 C 5099 372 5110 365 5110 359 C 5110 340 5066 311 5046 316 C 5034 320 5030 318 5034 311 C 5042 299 5031 287 4982 252 L 4950 230 L 4905 264 C 4879 284 4865 302 4871 305 C 4877 309 4884 309 4887 306 C 4890 303 4899 308 4906 318 C 4917 332 4921 332 4928 322 C 4935 312 4939 314 4943 330 C 4947 345 4954 351 4964 347 C 4973 343 4979 346 4977 353 C 4976 360 4983 364 4992 364 C 5002 363 5009 365 5008 369 C 5006 386 5012 390 5035 385 C 5049 382 5071 378 5085 375 z" stroke-linecap="round" />
</g>
		<g transform="matrix(0.13 0 0 -0.13 -280.59 -108.11)"  >
<path style="stroke: none; stroke-width: 1; stroke-dasharray: none; stroke-linecap: butt; stroke-dashoffset: 0; stroke-linejoin: miter; stroke-miterlimit: 4; fill: rgb(34,32,85); fill-rule: nonzero; opacity: 1;" vector-effect="non-scaling-stroke"  transform=" translate(-1200.49, -3037.02)" d="M 1190 3098 C 1166 3071 1147 3014 1152 2980 C 1154 2961 1161 2955 1179 2955 C 1226 2955 1276 3098 1234 3114 C 1212 3122 1213 3123 1190 3098 z" stroke-linecap="round" />
</g>
		<g transform="matrix(0.13 0 0 -0.13 -29.82 -62.29)"  >
<path style="stroke: none; stroke-width: 1; stroke-dasharray: none; stroke-linecap: butt; stroke-dashoffset: 0; stroke-linejoin: miter; stroke-miterlimit: 4; fill: rgb(34,32,85); fill-rule: nonzero; opacity: 1;" vector-effect="non-scaling-stroke"  transform=" translate(-3081.24, -2693.4)" d="M 3057 2850 C 2984 2792 2971 2557 3040 2523 C 3112 2487 3183 2631 3165 2775 C 3154 2863 3111 2893 3057 2850 z" stroke-linecap="round" />
</g>
		<g transform="matrix(0.13 0 0 -0.13 -93.82 -51.25)"  >
<path style="stroke: none; stroke-width: 1; stroke-dasharray: none; stroke-linecap: butt; stroke-dashoffset: 0; stroke-linejoin: miter; stroke-miterlimit: 4; fill: rgb(34,32,85); fill-rule: nonzero; opacity: 1;" vector-effect="non-scaling-stroke"  transform=" translate(-2601.27, -2610.6)" d="M 2575 2696 C 2547 2668 2536 2617 2543 2554 C 2549 2496 2554 2492 2588 2517 C 2655 2567 2684 2665 2642 2703 C 2617 2726 2603 2724 2575 2696 z" stroke-linecap="round" />
</g>
		<g transform="matrix(0.13 0 0 -0.13 -216.07 3.44)"  >
<path style="stroke: none; stroke-width: 1; stroke-dasharray: none; stroke-linecap: butt; stroke-dashoffset: 0; stroke-linejoin: miter; stroke-miterlimit: 4; fill: rgb(34,32,85); fill-rule: nonzero; opacity: 1;" vector-effect="non-scaling-stroke"  transform=" translate(-1684.33, -2200.43)" d="M 1650 2367 C 1606 2333 1600 2309 1600 2183 C 1600 2052 1605 2037 1656 2024 C 1687 2016 1724 2040 1746 2083 C 1769 2126 1776 2238 1760 2295 C 1741 2363 1688 2398 1650 2367 z" stroke-linecap="round" />
</g>
		<g transform="matrix(0.13 0 0 -0.13 234.48 250.26)"  >
<path style="stroke: none; stroke-width: 1; stroke-dasharray: none; stroke-linecap: butt; stroke-dashoffset: 0; stroke-linejoin: miter; stroke-miterlimit: 4; fill: rgb(34,32,85); fill-rule: nonzero; opacity: 1;" vector-effect="non-scaling-stroke"  transform=" translate(-5063.52, -349.28)" d="M 5057 349 C 5064 342 5072 339 5075 342 C 5078 345 5073 351 5063 354 C 5049 360 5048 359 5057 349 z" stroke-linecap="round" />
</g>
		<g transform="matrix(0.13 0 0 -0.13 226.02 257.5)"  >
<path style="stroke: none; stroke-width: 1; stroke-dasharray: none; stroke-linecap: butt; stroke-dashoffset: 0; stroke-linejoin: miter; stroke-miterlimit: 4; fill: rgb(34,32,85); fill-rule: nonzero; opacity: 1;" vector-effect="non-scaling-stroke"  transform=" translate(-5000, -295)" d="M 4990 301 C 4990 296 4995 288 5000 285 C 5006 282 5010 283 5010 289 C 5010 294 5006 302 5000 305 C 4995 308 4990 307 4990 301 z" stroke-linecap="round" />
</g>
		<g transform="matrix(0.13 0 0 -0.13 220.44 260.83)"  >
<path style="stroke: none; stroke-width: 1; stroke-dasharray: none; stroke-linecap: butt; stroke-dashoffset: 0; stroke-linejoin: miter; stroke-miterlimit: 4; fill: rgb(34,32,85); fill-rule: nonzero; opacity: 1;" vector-effect="non-scaling-stroke"  transform=" translate(-4958.2, -270)" d="M 4950 270 C 4950 265 4955 260 4961 260 C 4966 260 4968 265 4965 270 C 4962 276 4957 280 4954 280 C 4952 280 4950 276 4950 270 z" stroke-linecap="round" />
</g>
		<g transform="matrix(0.13 0 0 -0.13 377.46 -155.86)"  >
<path style="stroke: none; stroke-width: 1; stroke-dasharray: none; stroke-linecap: butt; stroke-dashoffset: 0; stroke-linejoin: miter; stroke-miterlimit: 4; fill: rgb(34,32,85); fill-rule: nonzero; opacity: 1;" vector-effect="non-scaling-stroke"  transform=" translate(-6135.86, -3395.19)" d="M 6128 3393 C 6135 3390 6144 3391 6147 3394 C 6151 3397 6145 3400 6134 3399 C 6123 3399 6120 3396 6128 3393 z" stroke-linecap="round" />
</g>
		<g transform="matrix(0.13 0 0 -0.13 267.49 -88.53)"  >
<path style="stroke: none; stroke-width: 1; stroke-dasharray: none; stroke-linecap: butt; stroke-dashoffset: 0; stroke-linejoin: miter; stroke-miterlimit: 4; fill: rgb(34,32,85); fill-rule: nonzero; opacity: 1;" vector-effect="non-scaling-stroke"  transform=" translate(-5311.1, -2890.19)" d="M 5277 2933 C 5275 2923 5269 2906 5265 2895 C 5259 2878 5262 2879 5280 2900 C 5292 2914 5299 2919 5295 2912 C 5291 2905 5294 2893 5300 2885 C 5314 2868 5305 2835 5290 2845 C 5285 2848 5280 2846 5280 2841 C 5280 2827 5316 2827 5341 2840 C 5354 2847 5360 2861 5360 2883 C 5359 2924 5339 2950 5308 2950 C 5292 2950 5280 2943 5277 2933 z M 5334 2924 C 5350 2918 5357 2890 5342 2890 C 5332 2890 5310 2912 5310 2922 C 5310 2932 5313 2932 5334 2924 z M 5350 2876 C 5350 2874 5342 2866 5333 2859 C 5317 2846 5316 2847 5329 2863 C 5342 2879 5350 2884 5350 2876 z" stroke-linecap="round" />
</g>
		<g transform="matrix(0.13 0 0 -0.13 315.49 -87.19)"  >
<path style="stroke: none; stroke-width: 1; stroke-dasharray: none; stroke-linecap: butt; stroke-dashoffset: 0; stroke-linejoin: miter; stroke-miterlimit: 4; fill: rgb(34,32,85); fill-rule: nonzero; opacity: 1;" vector-effect="non-scaling-stroke"  transform=" translate(-5671.1, -2880.19)" d="M 5637 2923 C 5635 2913 5629 2896 5625 2885 C 5619 2868 5622 2869 5640 2890 C 5652 2904 5659 2909 5655 2902 C 5651 2895 5654 2883 5660 2875 C 5674 2858 5665 2825 5650 2835 C 5645 2838 5640 2836 5640 2831 C 5640 2817 5676 2817 5701 2830 C 5714 2837 5720 2851 5720 2873 C 5719 2914 5699 2940 5668 2940 C 5652 2940 5640 2933 5637 2923 z M 5694 2914 C 5710 2908 5717 2880 5702 2880 C 5692 2880 5670 2902 5670 2912 C 5670 2922 5673 2922 5694 2914 z M 5710 2866 C 5710 2864 5702 2856 5693 2849 C 5677 2836 5676 2837 5689 2853 C 5702 2869 5710 2874 5710 2866 z" stroke-linecap="round" />
</g>
		<g transform="matrix(0.13 0 0 -0.13 357.32 -71.95)"  >
<path style="stroke: none; stroke-width: 1; stroke-dasharray: none; stroke-linecap: butt; stroke-dashoffset: 0; stroke-linejoin: miter; stroke-miterlimit: 4; fill: rgb(34,32,85); fill-rule: nonzero; opacity: 1;" vector-effect="non-scaling-stroke"  transform=" translate(-5984.81, -2765.86)" d="M 5981 2764 C 5981 2753 5984 2750 5987 2758 C 5990 2765 5989 2774 5986 2777 C 5983 2781 5980 2775 5981 2764 z" stroke-linecap="round" />
</g>
		<g transform="matrix(0.13 0 0 -0.13 371.14 -64.68)"  >
<path style="stroke: none; stroke-width: 1; stroke-dasharray: none; stroke-linecap: butt; stroke-dashoffset: 0; stroke-linejoin: miter; stroke-miterlimit: 4; fill: rgb(34,32,85); fill-rule: nonzero; opacity: 1;" vector-effect="non-scaling-stroke"  transform=" translate(-6088.41, -2711.33)" d="M 6070 2761 C 6070 2756 6077 2750 6085 2746 C 6107 2738 6104 2693 6080 2680 C 6051 2665 6055 2648 6084 2661 C 6112 2674 6125 2712 6111 2739 C 6100 2759 6070 2775 6070 2761 z" stroke-linecap="round" />
</g>
		<g transform="matrix(0.13 0 0 -0.13 292.36 -53.65)"  >
<path style="stroke: none; stroke-width: 1; stroke-dasharray: none; stroke-linecap: butt; stroke-dashoffset: 0; stroke-linejoin: miter; stroke-miterlimit: 4; fill: rgb(34,32,85); fill-rule: nonzero; opacity: 1;" vector-effect="non-scaling-stroke"  transform=" translate(-5497.58, -2628.6)" d="M 5382 2648 C 5399 2595 5406 2591 5449 2602 C 5478 2609 5496 2608 5526 2595 L 5565 2579 L 5592 2612 C 5624 2650 5628 2666 5603 2654 C 5593 2650 5558 2644 5524 2642 C 5468 2639 5439 2646 5378 2678 C 5374 2680 5376 2667 5382 2648 z" stroke-linecap="round" />
</g>
		<g transform="matrix(0.13 0 0 -0.13 405.42 76.81)"  >
<path style="stroke: none; stroke-width: 1; stroke-dasharray: none; stroke-linecap: butt; stroke-dashoffset: 0; stroke-linejoin: miter; stroke-miterlimit: 4; fill: rgb(34,32,85); fill-rule: nonzero; opacity: 1;" vector-effect="non-scaling-stroke"  transform=" translate(-6345.57, -1650.13)" d="M 6325 1650 C 6336 1645 6354 1642 6365 1642 C 6381 1642 6380 1644 6360 1650 C 6326 1661 6300 1661 6325 1650 z" stroke-linecap="round" />
</g>
		<g transform="matrix(0.13 0 0 -0.13 414.27 77.41)"  >
<path style="stroke: none; stroke-width: 1; stroke-dasharray: none; stroke-linecap: butt; stroke-dashoffset: 0; stroke-linejoin: miter; stroke-miterlimit: 4; fill: rgb(34,32,85); fill-rule: nonzero; opacity: 1;" vector-effect="non-scaling-stroke"  transform=" translate(-6411.94, -1645.67)" d="M 6400 1653 C 6408 1650 6418 1642 6422 1636 C 6427 1629 6430 1632 6430 1643 C 6430 1654 6423 1660 6408 1659 C 6392 1659 6390 1657 6400 1653 z" stroke-linecap="round" />
</g>
		<g transform="matrix(0.13 0 0 -0.13 409.6 83.26)"  >
<path style="stroke: none; stroke-width: 1; stroke-dasharray: none; stroke-linecap: butt; stroke-dashoffset: 0; stroke-linejoin: miter; stroke-miterlimit: 4; fill: rgb(34,32,85); fill-rule: nonzero; opacity: 1;" vector-effect="non-scaling-stroke"  transform=" translate(-6376.9, -1601.81)" d="M 6365 1600 C 6369 1594 6376 1592 6381 1595 C 6395 1604 6392 1610 6374 1610 C 6366 1610 6362 1605 6365 1600 z" stroke-linecap="round" />
</g>
		<g transform="matrix(0.13 0 0 -0.13 414.22 89.9)"  >
<path style="stroke: none; stroke-width: 1; stroke-dasharray: none; stroke-linecap: butt; stroke-dashoffset: 0; stroke-linejoin: miter; stroke-miterlimit: 4; fill: rgb(34,32,85); fill-rule: nonzero; opacity: 1;" vector-effect="non-scaling-stroke"  transform=" translate(-6411.5, -1552)" d="M 6380 1575 C 6380 1574 6394 1563 6412 1550 L 6443 1527 L 6424 1552 C 6414 1566 6400 1577 6393 1577 C 6386 1577 6380 1576 6380 1575 z" stroke-linecap="round" />
</g>
		<g transform="matrix(0.13 0 0 -0.13 392.68 94.16)"  >
<path style="stroke: none; stroke-width: 1; stroke-dasharray: none; stroke-linecap: butt; stroke-dashoffset: 0; stroke-linejoin: miter; stroke-miterlimit: 4; fill: rgb(34,32,85); fill-rule: nonzero; opacity: 1;" vector-effect="non-scaling-stroke"  transform=" translate(-6250, -1520)" d="M 6245 1520 C 6255 1509 6265 1500 6268 1500 C 6271 1500 6265 1509 6255 1520 C 6245 1531 6235 1540 6232 1540 C 6229 1540 6235 1531 6245 1520 z" stroke-linecap="round" />
</g>
		<g transform="matrix(0.13 0 0 -0.13 413.79 96.07)"  >
<path style="stroke: none; stroke-width: 1; stroke-dasharray: none; stroke-linecap: butt; stroke-dashoffset: 0; stroke-linejoin: miter; stroke-miterlimit: 4; fill: rgb(34,32,85); fill-rule: nonzero; opacity: 1;" vector-effect="non-scaling-stroke"  transform=" translate(-6408.3, -1505.73)" d="M 6403 1512 C 6413 1502 6417 1490 6413 1485 C 6408 1481 6411 1480 6418 1484 C 6429 1490 6428 1496 6414 1511 C 6405 1521 6395 1530 6392 1530 C 6389 1530 6394 1522 6403 1512 z" stroke-linecap="round" />
</g>
		<g transform="matrix(0.13 0 0 -0.13 421.48 95.18)"  >
<path style="stroke: none; stroke-width: 1; stroke-dasharray: none; stroke-linecap: butt; stroke-dashoffset: 0; stroke-linejoin: miter; stroke-miterlimit: 4; fill: rgb(34,32,85); fill-rule: nonzero; opacity: 1;" vector-effect="non-scaling-stroke"  transform=" translate(-6465.96, -1512.4)" d="M 6461 1513 C 6468 1501 6476 1493 6479 1496 C 6482 1498 6476 1508 6466 1518 C 6449 1534 6448 1534 6461 1513 z" stroke-linecap="round" />
</g>
		<g transform="matrix(0.13 0 0 -0.13 407.09 99.84)"  >
<path style="stroke: none; stroke-width: 1; stroke-dasharray: none; stroke-linecap: butt; stroke-dashoffset: 0; stroke-linejoin: miter; stroke-miterlimit: 4; fill: rgb(34,32,85); fill-rule: nonzero; opacity: 1;" vector-effect="non-scaling-stroke"  transform=" translate(-6358.09, -1477.43)" d="M 6338 1491 C 6346 1487 6351 1480 6351 1476 C 6350 1473 6353 1470 6358 1469 C 6362 1469 6372 1463 6380 1457 C 6388 1451 6384 1458 6371 1473 C 6357 1488 6342 1500 6336 1500 C 6330 1500 6331 1496 6338 1491 z" stroke-linecap="round" />
</g>
		<g transform="matrix(0.13 0 0 -0.13 401.34 101.2)"  >
<path style="stroke: none; stroke-width: 1; stroke-dasharray: none; stroke-linecap: butt; stroke-dashoffset: 0; stroke-linejoin: miter; stroke-miterlimit: 4; fill: rgb(34,32,85); fill-rule: nonzero; opacity: 1;" vector-effect="non-scaling-stroke"  transform=" translate(-6314.97, -1467.24)" d="M 6308 1465 C 6310 1451 6316 1443 6321 1446 C 6326 1449 6326 1460 6320 1471 C 6306 1497 6302 1495 6308 1465 z" stroke-linecap="round" />
</g>
		<g transform="matrix(0.13 0 0 -0.13 395.99 101.38)"  >
<path style="stroke: none; stroke-width: 1; stroke-dasharray: none; stroke-linecap: butt; stroke-dashoffset: 0; stroke-linejoin: miter; stroke-miterlimit: 4; fill: rgb(34,32,85); fill-rule: nonzero; opacity: 1;" vector-effect="non-scaling-stroke"  transform=" translate(-6274.81, -1465.86)" d="M 6271 1464 C 6271 1453 6274 1450 6277 1458 C 6280 1465 6279 1474 6276 1477 C 6273 1481 6270 1475 6271 1464 z" stroke-linecap="round" />
</g>
		<g transform="matrix(0.13 0 0 -0.13 417.35 102.84)"  >
<path style="stroke: none; stroke-width: 1; stroke-dasharray: none; stroke-linecap: butt; stroke-dashoffset: 0; stroke-linejoin: miter; stroke-miterlimit: 4; fill: rgb(34,32,85); fill-rule: nonzero; opacity: 1;" vector-effect="non-scaling-stroke"  transform=" translate(-6435.03, -1454.9)" d="M 6420 1466 C 6420 1464 6428 1456 6438 1449 C 6453 1436 6454 1437 6441 1453 C 6428 1469 6420 1474 6420 1466 z" stroke-linecap="round" />
</g>
		<g transform="matrix(0.13 0 0 -0.13 399.24 107.3)"  >
<path style="stroke: none; stroke-width: 1; stroke-dasharray: none; stroke-linecap: butt; stroke-dashoffset: 0; stroke-linejoin: miter; stroke-miterlimit: 4; fill: rgb(34,32,85); fill-rule: nonzero; opacity: 1;" vector-effect="non-scaling-stroke"  transform=" translate(-6299.17, -1421.48)" d="M 6280 1434 C 6280 1414 6307 1397 6316 1411 C 6320 1418 6319 1420 6312 1416 C 6306 1413 6297 1418 6291 1427 C 6285 1437 6280 1440 6280 1434 z" stroke-linecap="round" />
</g>
		<g transform="matrix(0.13 0 0 -0.13 416.61 106.39)"  >
<path style="stroke: none; stroke-width: 1; stroke-dasharray: none; stroke-linecap: butt; stroke-dashoffset: 0; stroke-linejoin: miter; stroke-miterlimit: 4; fill: rgb(34,32,85); fill-rule: nonzero; opacity: 1;" vector-effect="non-scaling-stroke"  transform=" translate(-6429.44, -1428.33)" d="M 6418 1428 C 6423 1423 6434 1420 6441 1422 C 6449 1425 6444 1429 6431 1433 C 6414 1437 6410 1436 6418 1428 z" stroke-linecap="round" />
</g>
		<g transform="matrix(0.13 0 0 -0.13 410.11 107.97)"  >
<path style="stroke: none; stroke-width: 1; stroke-dasharray: none; stroke-linecap: butt; stroke-dashoffset: 0; stroke-linejoin: miter; stroke-miterlimit: 4; fill: rgb(34,32,85); fill-rule: nonzero; opacity: 1;" vector-effect="non-scaling-stroke"  transform=" translate(-6380.72, -1416.48)" d="M 6376 1417 C 6379 1407 6385 1402 6388 1405 C 6391 1408 6388 1416 6381 1423 C 6371 1432 6370 1431 6376 1417 z" stroke-linecap="round" />
</g>
		<g transform="matrix(0.13 0 0 -0.13 393.38 262.5)"  >
<path style="stroke: none; stroke-width: 1; stroke-dasharray: none; stroke-linecap: butt; stroke-dashoffset: 0; stroke-linejoin: miter; stroke-miterlimit: 4; fill: rgb(34,32,85); fill-rule: nonzero; opacity: 1;" vector-effect="non-scaling-stroke"  transform=" translate(-6255.27, -257.5)" d="M 6246 255 C 6250 247 6256 243 6261 246 C 6272 252 6263 270 6250 270 C 6245 270 6243 263 6246 255 z" stroke-linecap="round" />
</g>
		<g transform="matrix(0.13 0 0 -0.13 379.59 264.83)"  >
<path style="stroke: none; stroke-width: 1; stroke-dasharray: none; stroke-linecap: butt; stroke-dashoffset: 0; stroke-linejoin: miter; stroke-miterlimit: 4; fill: rgb(34,32,85); fill-rule: nonzero; opacity: 1;" vector-effect="non-scaling-stroke"  transform=" translate(-6151.8, -240)" d="M 6145 240 C 6142 235 6144 230 6149 230 C 6155 230 6160 235 6160 240 C 6160 246 6158 250 6156 250 C 6153 250 6148 246 6145 240 z" stroke-linecap="round" />
</g>
		<g transform="matrix(0.13 0 0 -0.13 384.92 268.83)"  >
<path style="stroke: none; stroke-width: 1; stroke-dasharray: none; stroke-linecap: butt; stroke-dashoffset: 0; stroke-linejoin: miter; stroke-miterlimit: 4; fill: rgb(34,32,85); fill-rule: nonzero; opacity: 1;" vector-effect="non-scaling-stroke"  transform=" translate(-6191.8, -210)" d="M 6185 210 C 6182 205 6184 200 6189 200 C 6195 200 6200 205 6200 210 C 6200 216 6198 220 6196 220 C 6193 220 6188 216 6185 210 z" stroke-linecap="round" />
</g>
		<g transform="matrix(0.13 0 0 -0.13 208.13 276.14)"  >
<path style="stroke: none; stroke-width: 1; stroke-dasharray: none; stroke-linecap: butt; stroke-dashoffset: 0; stroke-linejoin: miter; stroke-miterlimit: 4; fill: rgb(34,32,85); fill-rule: nonzero; opacity: 1;" vector-effect="non-scaling-stroke"  transform=" translate(-4865.86, -155.19)" d="M 4858 153 C 4865 150 4874 151 4877 154 C 4881 157 4875 160 4864 159 C 4853 159 4850 156 4858 153 z" stroke-linecap="round" />
</g>
		<g transform="matrix(0.13 0 0 -0.13 397.46 284.14)"  >
<path style="stroke: none; stroke-width: 1; stroke-dasharray: none; stroke-linecap: butt; stroke-dashoffset: 0; stroke-linejoin: miter; stroke-miterlimit: 4; fill: rgb(34,32,85); fill-rule: nonzero; opacity: 1;" vector-effect="non-scaling-stroke"  transform=" translate(-6285.86, -95.19)" d="M 6278 93 C 6285 90 6294 91 6297 94 C 6301 97 6295 100 6284 99 C 6273 99 6270 96 6278 93 z" stroke-linecap="round" />
</g>
</g>
</g>
<g transform="matrix(NaN NaN NaN NaN 0 0)"  >
<g style=""   >
</g>
</g>
<g transform="matrix(NaN NaN NaN NaN 0 0)"  >
<g style=""   >
</g>
</g>
</svg>