<svg width="177.3" height="64" xmlns="http://www.w3.org/2000/svg" data-name="Layer 1">

 <title>Untitled-1</title>
 <g>
  <title>Layer 1</title>
  <path fill="#222055" id="svg_1" d="m1.18,27.72c2.08,-8.27 8.76,-14.18 16.72,-14.77a19.35,19.35 0 0 1 19.2,11.62a19.07,19.07 0 0 1 -5.34,21.79c-7.12,6.2 -15.07,6.15 -26.46,-0.38l0,18l-4,0a311.09,311.09 0 0 1 -0.12,-36.26z" class="cls-1"/>
  <path fill="#222055" id="svg_2" d="m177.3,42c-4.84,8 -9.92,10.58 -16.32,8.22a11.55,11.55 0 0 1 -7.32,-8.21c-0.27,-1 -1.11,-2.61 0.63,-2.84c1.34,-0.18 3.33,-1.29 4.15,1.23a9.64,9.64 0 0 0 1.91,3.4a6.19,6.19 0 0 0 7.24,1.77a5.55,5.55 0 0 0 3.86,-5.29c0.13,-3.2 -1.78,-4.86 -4.45,-5.88c-2.17,-0.83 -4.47,-1.35 -6.58,-2.28a9.23,9.23 0 0 1 -5.56,-10.56a10.53,10.53 0 0 1 9.72,-8.55c4.28,-0.32 9.16,2.5 10.44,6.23c0.39,1.12 1.35,2.91 -0.25,3.46c-1.39,0.48 -3.6,1.43 -4.49,-1.23c-1,-3.13 -3.58,-3.83 -6.4,-3.3a4.78,4.78 0 0 0 -4.08,5c0,3.23 2.33,4.76 5,5.38c6,1.37 10.58,4.3 12.47,10.49l0,3l0.03,-0.04z" class="cls-2"/>
  <path fill="#222055" id="svg_3" d="m88.3,0c0,15.65 0,31.31 -0.11,47c0,1.69 1.12,4.11 -2.46,4.12s-2.38,-2.49 -2.39,-4.12c-0.08,-15.65 0,-31.31 0,-47l5,0l-0.04,0z" class="cls-3"/>
  <path fill="#222055" id="svg_4" d="m1.18,27.72l0.12,36.28c-2.22,-0.1 -0.92,-1.75 -0.93,-2.5c-0.1,-11.17 -0.07,-22.33 -0.07,-33.5a4,4 0 0 1 0.88,-0.28z" class="cls-4"/>
  <path fill="#222055" id="svg_5" d="m44.3,25.72l0,-10c0,-1.64 0,-2.8 2.28,-2.8s2.84,0.65 2.79,2.83c-0.13,6 -0.09,12 0,18c0.06,7 4.71,12.11 11.07,12.26c6.61,0.16 11.6,-5 11.71,-12.19c0.09,-6 0,-12 0,-18c0,-1.57 -0.16,-2.92 2.21,-2.88c2.15,0 2.89,0.67 2.85,2.86c-0.12,6.33 0.15,12.67 -0.09,19c-0.38,9.67 -7.39,16.33 -16.68,16.22s-15.88,-7 -16.08,-16.78c-0.11,-2.85 -0.06,-5.69 -0.06,-8.52z" class="cls-1"/>
  <path fill="#222055" id="svg_6" d="m107.18,51a11.77,11.77 0 0 1 -11.42,-8.69c-0.27,-1.09 -1.42,-2.85 0.72,-3.17c1.32,-0.2 3.42,-1.22 4,1.45a6.56,6.56 0 0 0 3.6,4.55c3.5,1.79 6.55,1 8.67,-2.22c1.92,-3 0.56,-6.55 -3,-8.17c-2.26,-1 -4.74,-1.55 -7,-2.52a9.3,9.3 0 0 1 -5.86,-10.43a10.58,10.58 0 0 1 9.54,-8.79c4.27,-0.42 9.14,2.27 10.57,6c0.48,1.25 1.57,3.15 -0.39,3.76c-1.34,0.41 -3.19,1.07 -4.43,-1.55c-1.94,-4.07 -7,-4.44 -9.27,-1.07c-1.88,2.82 -1.39,5.52 1.6,7.22a43.06,43.06 0 0 0 6.49,2.53c6,2.23 8.69,6.53 7.59,12.27c-1.04,4.87 -6.09,8.81 -11.41,8.83z" class="cls-2"/>
  <path fill="#222055" id="svg_7" d="m135.93,51a11.84,11.84 0 0 1 -11.27,-8.92c-0.23,-1 -1.08,-2.63 0.56,-2.9c1.33,-0.22 3.47,-1.35 4.14,1.17a7.15,7.15 0 0 0 4.36,5.11c3.42,1.37 6.48,0.45 8.09,-2.77s0.65,-6.26 -2.89,-7.84c-2.27,-1 -4.73,-1.57 -7,-2.52a9.36,9.36 0 0 1 -6.14,-10.29a10.58,10.58 0 0 1 8.84,-9c4.4,-0.77 9.5,1.79 11.21,5.71c0.56,1.29 1.62,3.18 -0.07,3.87c-1.45,0.59 -3.72,1.41 -4.67,-1.71c-0.83,-2.74 -3.57,-3.36 -6.22,-2.82a4.83,4.83 0 0 0 -4,4.53c-0.25,2.92 1.53,4.59 4.13,5.51c1.72,0.61 3.46,1.16 5.16,1.8c5.73,2.14 8.33,6.36 7.4,12c-0.9,5.1 -6.09,9.16 -11.63,9.07z" class="cls-2"/>
  <path fill="#ffffff" id="svg_8" d="m19.3,17.6587a14,14 0 1 1 -14.07,13.9q0,-0.1 0,-0.21a14,14 0 0 1 14.07,-13.69z" class="cls-5"/>
 </g>
</svg>