<svg xmlns="http://www.w3.org/2000/svg" viewBox="0 0 284 85">
  <defs/>
  <g fill="#222055" fill-rule="evenodd">
    <path d="M275.3615 36.3436c-.429 1.982-1.776 3.704-3.698 4.725-2.202 1.171-4.832 1.249-7.404.22-4.925-1.971-7.239-6.117-8.322-9.854.355.013.706.03 1.068.03 3.128 0 6.497-.471 9.77-1.383 3.083-.859 5.718-2.17 7.936-3.753 1.444 3.909 1.181 7.556.65 10.015m-33.182-17.131c-1.276-3.234-.646-5.683.106-7.167.998-1.973 2.807-3.429 4.961-3.996 1.179-.311 2.431-.464 3.714-.464 2.041 0 4.152.411 6.173 1.169-1.581 2.218-2.892 4.853-3.75 7.934-1.019 3.653-1.478 7.416-1.355 10.84-3.755-1.085-7.911-3.398-9.849-8.316m13.15 8.922c-.147-2.324-.053-6.031 1.21-10.566.812-2.914 2.102-5.371 3.651-7.391 2.737 1.474 5.259 3.323 7.493 5.558 2.26 2.26 4.124 4.796 5.602 7.539-2.02 1.548-4.477 2.838-7.39 3.65-4.535 1.265-8.241 1.357-10.566 1.21m15.897-24.796c2.525-.302 4.747.486 6.592 2.332 1.828 1.828 2.605 4.038 2.308 6.568-.327 2.781-1.776 5.975-4.335 8.75-1.563-2.746-3.502-5.283-5.79-7.571-2.264-2.263-4.786-4.188-7.525-5.746 2.775-2.557 5.968-4.006 8.75-4.333m12.154 9.283c.415-3.527-.707-6.733-3.245-9.269-2.554-2.553-5.774-3.683-9.292-3.269-3.795.446-8.032 2.439-11.504 6.017-4.198-1.831-8.886-2.283-12.928-1.22-3.059.805-5.629 2.877-7.05 5.684-1.492 2.946-1.574 6.443-.231 9.85 2.103 5.336 6.771 9.057 13.208 10.58l.131.131c1.518 6.404 5.237 11.071 10.573 13.205 1.598.64 3.221.959 4.807.959 1.873 0 3.692-.444 5.353-1.327 2.774-1.474 4.728-3.999 5.362-6.926.675-3.12.99-7.869-1.203-12.91 3.58-3.472 5.573-7.71 6.019-11.505M22.2521 84.2069c-12.478 0-22.252-9.627-22.252-21.917 0-12.291 9.774-21.917 22.252-21.917 5.609 0 10.727 1.904 14.8 5.506.146.12.301.282.309.448.007.157-.11.363-.332.581l-2.137 2.106c-.169.167-.334.247-.503.247-.234 0-.47-.153-.627-.282-3.099-2.726-7.192-4.235-11.51-4.235-9.814 0-17.798 7.871-17.798 17.546 0 9.674 7.984 17.546 17.798 17.546 4.317 0 8.41-1.509 11.525-4.248.142-.116.378-.27.612-.27.169 0 .334.08.502.247l2.138 2.107c.222.217.339.424.332.58-.008.167-.163.329-.292.434-4.148 3.564-9.406 5.521-14.817 5.521M50.8264 83.4305c-.579 0-.765-.181-.765-.744v-71.055c0-.564.186-.744.765-.744h2.925c.579 0 .764.18.764.744v71.055c0 .563-.185.744-.764.744h-2.925zM89.8635 44.744c-9.814 0-17.798 7.871-17.798 17.545 0 9.675 7.984 17.547 17.798 17.547 9.815 0 17.799-7.872 17.799-17.547 0-9.674-7.984-17.545-17.799-17.545m0 39.463c-12.478 0-22.252-9.628-22.252-21.918 0-12.085 9.982-21.916 22.252-21.916 12.271 0 22.253 9.831 22.253 21.916 0 12.086-9.982 21.918-22.253 21.918M136.8893 85.0384c-.053 0-.217-.118-.358-.466l-17.328-41.906c-.13-.262-.16-.454-.097-.556.055-.09.234-.186.57-.186h2.812c.53 0 .796.171 1.052.677l13.348 32.422 13.367-32.464c.238-.464.503-.635 1.033-.635h2.814c.335 0 .514.096.568.186.064.102.033.294-.078.515l-17.344 41.943c-.143.352-.306.47-.359.47M166.1159 62.8734l.011-.558c0-1.745.299-3.47.761-5.049l.04-.135c2.221-7.294 9.206-12.387 16.985-12.387 6.266 0 11.909 3.23 15.112 8.354.217.494.122.734-.396.969l-2.663 1.209.01.005-28.702 13.07c-.652-1.714-1.063-3.55-1.158-5.478m39.062-7.371c-.022-.094-.117-.4-.117-.4-2.908-8.627-11.212-14.729-21.148-14.729-12.477 0-22.252 9.626-22.252 21.916 0 12.29 9.775 21.917 22.252 21.917 5.411 0 10.669-1.957 14.817-5.52.13-.106.285-.267.293-.435.007-.156-.111-.362-.332-.579l-2.138-2.108c-.169-.166-.333-.247-.503-.247-.234 0-.47.155-.612.27-3.114 2.739-7.207 4.248-11.525 4.248-5.997 0-11.316-2.967-14.549-7.542l32.485-14.794c.027-.009.049-.009.076-.022l2.773-1.263c.285-.129.449-.279.497-.43.027-.087.007-.175-.017-.282M219.4391 83.4305c-.579 0-.764-.181-.764-.744v-40.128c0-.429.133-.6.166-.62h1.984l1.402 5.513.536-.634c3.642-4.306 8.653-6.445 13.664-6.445h1.688c.578 0 .764.181.764.745v2.882c0 .564-.186.744-.764.744h-1.688c-8.203 0-13.299 5.62-13.299 14.664v23.279c0 .563-.185.744-.764.744h-2.925z"/>
  </g>
</svg>