<svg width="576.4" height="137.95" xmlns="http://www.w3.org/2000/svg" data-name="Layer 1">
 <title>logoduelblack</title>

 <g>
  <title>Layer 1</title>
  <g id="g3431">
   <path stroke="#222055" id="path3433" d="m50,135.22l0,-134.4a8.24,8.24 0 0 1 1.9,-0.6c12.7,0.1 25.4,-0.22 38.1,0.5c13.4,0.7 25.1,10 28.5,21.6a25.91,25.91 0 0 1 0.9,6.8c0.1,24.9 0.4,49.8 -0.1,74.7c-0.2,14.4 -10.6,26.5 -24.6,29.6c-5.7,1.3 -11.7,1.5 -17.6,1.7c-8.8,0.3 -17.7,0.1 -27.1,0.1l0,0zm19.2,-118.9l0,99.8c5.8,0 11.4,0.1 17,0a14.23,14.23 0 0 0 14.1,-14.2c0.1,-23.5 0.1,-47.1 0,-70.6c0,-7.3 -4.3,-12.7 -11.6,-13.8c-6.3,-1 -12.7,-0.9 -19.5,-1.2z" fill="#222055"/>
   <path stroke="#222055" id="path3435" d="m203.3,0l18.6,0l0,101.4c0,8.3 3.8,13.8 11,16.4c7.5,2.7 15.8,1.1 20.1,-5a20.85,20.85 0 0 0 3.7,-11.3c0.3,-31.7 0.2,-63.3 0.2,-95l0,-6.18l19.2,0l0,102.68c0,17.8 -13.8,32.4 -31.5,34.6c-20.8,2.6 -36.4,-10.7 -40.1,-24.6a39.2,39.2 0 0 1 -1.4,-10.2q-0.1,-49.48 -0.1,-98.88a18.45,18.45 0 0 1 0.3,-3.9l0,0l0,-0.02z" fill="#222055"/>
   <path stroke="#222055" id="path3437" d="m359.7,0.32l62,0l0,18.4l-43,0l0,39.6l37.8,0l0,18.68c-1.6,0.1 -3.3,0.3 -5.1,0.3c-9.6,0 -19.1,0.1 -28.7,0c-3.5,-0.1 -4.5,1.1 -4.5,4.5c0.2,10.1 0.2,20.1 0,30.2c-0.1,3.6 1,4.9 4.7,4.8c11,-0.2 22.1,-0.1 33.1,-0.1l6.2,0c0,5.9 0.1,11.4 -0.1,16.9c0,0.8 -1.6,2.2 -2.5,2.2c-19.9,0.1 -39.8,0.1 -60,0.1c0.1,-45.4 0.1,-90.2 0.1,-135.6l0,0l0,0.02z" fill="#222055"/>
   <path stroke="#222055" id="path3439" d="m518.8,0.12l0,116.3l34.2,0l0,19.1c-1.6,0.1 -3,0.3 -4.5,0.3c-14.7,0 -29.3,-0.1 -44,0.1c-3.4,0 -5,-0.6 -5,-4.6q0.15,-63.45 0,-127c0,-3.1 0.8,-4.5 4.2,-4.3c4.8,0.3 9.5,0.1 15.1,0.1l0,0z" fill="#222055"/>
   <path id="path3441" d="m161.3,59.12a8,8 0 0 1 8.2,8.5a8.44,8.44 0 0 1 -8.1,8.3a8.4,8.4 0 1 1 -0.1,-16.8z" fill="#222055" stroke="#222055"/>
   <path stroke="#222055" id="path3443" d="m16.1,67.32c0.1,5 -3.3,8.6 -8,8.6s-8.1,-3.6 -8.1,-8.5a7.87,7.87 0 0 1 7.8,-8.3c5,-0.12 8.3,3.1 8.3,8.2z" fill="#222055"/>
   <path stroke="#222055" id="path3445" d="m459,59.12c4.6,0.2 7.7,3.7 7.6,8.5c-0.1,5 -3.7,8.5 -8.4,8.2s-7.9,-4.1 -7.6,-9.1c0.2,-4.6 3.7,-7.7 8.4,-7.6l0,0z" fill="#222055"/>
   <path stroke="#222055" id="path3447" d="m317.7,59.12a8.07,8.07 0 0 1 8,8.2a8.27,8.27 0 0 1 -8.2,8.6c-4.8,0 -8,-3.6 -7.8,-8.8c0.1,-5 3.2,-8 8,-8z" fill="#222055"/>
   <path stroke="#222055" id="path3449" d="m568.4,59.12c5.1,-0.1 8,2.9 8,8.3s-3,8.5 -7.9,8.5a8.41,8.41 0 0 1 -0.1,-16.8z" fill="#222055"/>
  </g>
 </g>
</svg>