<svg width="232" height="56" xmlns="http://www.w3.org/2000/svg">
 <style type="text/css">.st0{fill:#FFFFFF;}</style>

 <metadata/>
 <g>
  <title>background</title>
  <rect fill="none" id="canvas_background" height="644.99939" width="720.76624" y="-1" x="-1"/>
 </g>
 <g>
  <title>Layer 1</title>
  <g id="Groupe_53">
   <g id="Groupe_51">
    <path stroke="#222055" d="m27.8,6.452c2.3,0 4.1,1.8 4.1,4.1l0,17.9l-26.6,0c-2.3,0 -4.1,-1.8 -4.1,-4.1l0,-17.9l26.6,0m0,-0.4l-27.1,0l0,18.4c0,2.5 2.1,4.6 4.6,4.6l27.1,0l0,-18.4c0,-2.5 -2.1,-4.6 -4.6,-4.6l0,0z" class="st0" id="Tracé_531"/>
    <path stroke="#222055" d="m62,28.952l-27.1,0l0,-18.3c0,-2.5 2.1,-4.6 4.6,-4.6l27.1,0l0,18.4c0,2.5 -2,4.6 -4.6,4.5z" class="st0" id="Tracé_532"/>
    <path stroke="#222055" d="m27.8,53.552l-27.1,0l0,-18.3c0,-2.5 2.1,-4.6 4.6,-4.6l27.1,0l0,18.4c0,2.5 -2.1,4.5 -4.6,4.5z" class="st0" id="Tracé_533"/>
    <path stroke="#222055" d="m62,31.052c2.3,0 4.1,1.8 4.1,4.1l0,17.9l-26.5,0c-2.3,0 -4.1,-1.8 -4.1,-4.1l0,-17.9l26.5,0m0,-0.5l-27.1,0l0,18.4c0,2.5 2.1,4.6 4.6,4.6l27.1,0l0,-18.3c0,-2.6 -2,-4.6 -4.6,-4.7l0,0z" class="st0" id="Tracé_534"/>
    <g id="Groupe_48">
     <rect stroke="#222055" height="4.4" width="1.5" class="st0" y="7.734" x="15.756" id="Rectangle_125"/>
     <rect stroke="#222055" height="4.4" width="1.5" class="st0" transform="matrix(0.866, -0.5, 0.5, 0.866, -0.9868, 3.837)" y="10.89305" x="7.52757" id="Rectangle_126"/>
     <rect stroke="#222055" height="4.4" width="1.5" class="st0" transform="matrix(0.5, -0.866, 0.866, 0.5, -3.7939, 6.6874)" y="13.26189" x="-0.13679" id="Rectangle_127"/>
     <rect stroke="#222055" height="1.5" width="4.4" class="st0" y="16.934" x="6.756" id="Rectangle_128"/>
     <rect stroke="#222055" height="1.5" width="4.4" class="st0" transform="matrix(0.866, -0.5, 0.5, 0.866, -6.649, 3.9294)" y="22.89305" x="3.42757" id="Rectangle_129"/>
     <rect stroke="#222055" height="1.5" width="4.4" class="st0" transform="matrix(0.5, -0.866, 0.866, 0.5, -11.4143, 14.5275)" y="25.26189" x="1.46321" id="Rectangle_130"/>
     <rect stroke="#222055" height="4.4" width="1.5" class="st0" y="23.134" x="16.056" id="Rectangle_131"/>
     <rect stroke="#222055" height="4.4" width="1.5" class="st0" transform="matrix(0.866, -0.5, 0.5, 0.866, -6.5532, 9.5259)" y="24.09305" x="15.32757" id="Rectangle_132"/>
     <rect stroke="#222055" height="4.4" width="1.5" class="st0" transform="matrix(0.5, -0.866, 0.866, 0.5, -3.6295, 22.0282)" y="20.86189" x="13.26321" id="Rectangle_133"/>
     <rect stroke="#222055" height="1.5" width="4.4" class="st0" y="16.734" x="22.156" id="Rectangle_134"/>
     <rect stroke="#222055" height="1.5" width="4.4" class="st0" transform="matrix(0.866, -0.5, 0.5, 0.866, -0.9289, 9.4644)" y="14.99305" x="16.62757" id="Rectangle_135"/>
     <rect stroke="#222055" height="1.5" width="4.4" class="st0" transform="matrix(0.5, -0.866, 0.866, 0.5, 3.9575, 14.2886)" y="11.86189" x="8.96321" id="Rectangle_136"/>
    </g>
    <g id="Groupe_50">
     <circle stroke="#222055" r="2.2" cy="48.589" cx="44.789" class="st0" id="Ellipse_23"/>
     <g id="Groupe_49">
      <path stroke="#222055" d="m43.194,36.189c7.7,0 14,6.3 14,14l2.7,0c0,-9.3 -7.5,-16.8 -16.8,-16.8c0,0 0,0 0,0l0.1,2.8l0,0z" class="st0" id="Tracé_535"/>
      <path stroke="#222055" d="m43.194,42.489c4.1,0.3 7.3,3.6 7.7,7.7l2.5,0c-0.4,-5.5 -4.8,-9.9 -10.3,-10.3l0.1,2.6z" class="st0" id="Tracé_536"/>
     </g>
    </g>
   </g>
   <g id="Groupe_52">
    <path stroke="#222055" d="m75.386,22.7c-1.7,-1.7 -2.7,-4.1 -2.6,-6.6c-0.1,-2.5 0.9,-4.8 2.7,-6.6c3.2,-3 8,-3.5 11.7,-1.1c1.5,1 2.7,2.5 3.3,4.2l-4.4,0c-0.8,-1.6 -2.4,-2.5 -4.1,-2.4c-1.5,-0.1 -2.9,0.5 -4,1.6c-1,1.2 -1.6,2.7 -1.5,4.3c-0.1,1.6 0.5,3.1 1.5,4.3c1,1.1 2.3,1.6 3.8,1.6c1.3,0.1 2.5,-0.3 3.5,-1.1c0.9,-0.8 1.4,-1.8 1.6,-2.9l-6,0l0,-2.8l9.8,0l0,2.8c-0.7,4.3 -4.5,7.4 -8.9,7.3c-2.3,0 -4.6,-1 -6.4,-2.6z" class="st0" id="Tracé_537"/>
    <path stroke="#222055" d="m103.586,7.1l0,2.8l-6.7,0l0,4.7l6,0l0,2.8l-6,0l0,5l6.7,0l0,2.8l-10.3,0l0,-18l10.3,-0.1zm-8.3,-3.5l5.9,-3.1l0,2.9l-5.9,2.7l0,-2.5z" class="st0" id="Tracé_538"/>
    <path stroke="#222055" d="m118.786,7.1l3.6,0l0,18l-3.6,0l-8.1,-12.4l0,12.4l-3.6,0l0,-18l3.6,0l8.1,12.4l0,-12.4z" class="st0" id="Tracé_539"/>
    <path stroke="#222055" d="m136.286,7.1l0,2.8l-6.7,0l0,4.7l6,0l0,2.8l-6,0l0,5l6.7,0l0,2.8l-10.3,0l0,-18l10.3,-0.1zm-8.3,-3.5l5.9,-3.1l0,2.9l-5.9,2.7l0,-2.5z" class="st0" id="Tracé_540"/>
    <path stroke="#222055" d="m143.386,18l0,7.1l-3.6,0l0,-18l6.6,0c1.7,-0.1 3.4,0.4 4.7,1.5c1.1,1 1.7,2.4 1.7,3.9c0,1.1 -0.4,2.3 -1,3.2c-0.8,1.1 -1.9,1.8 -3.2,2l4.5,7.4l-4.3,0l-4.2,-7.1l-1.2,0zm0,-8.1l0,5.2l2.9,0c0.8,0 1.5,-0.2 2.1,-0.7c1,-1.1 1,-2.8 0,-3.9c-0.6,-0.5 -1.3,-0.7 -2.1,-0.7l-2.9,0l0,0.1z" class="st0" id="Tracé_541"/>
    <path stroke="#222055" d="m167.886,25.1l-1.2,-3.4l-7,0l-1.2,3.4l-3.8,0l6.3,-18l4.3,0l6.3,18l-3.7,0zm-7.1,-6.1l5.1,0l-2.6,-7.5l-2.5,7.5z" class="st0" id="Tracé_542"/>
    <path stroke="#222055" d="m172.986,9.9l0,-2.8l13.3,0l0,2.8l-4.9,0l0,15.1l-3.6,0l0,-15.1l-4.8,0z" class="st0" id="Tracé_543"/>
    <path stroke="#222055" d="m188.786,25.1l0,-18l3.6,0l0,17.9l-3.6,0.1l0,0z" class="st0" id="Tracé_544"/>
    <path stroke="#222055" d="m204.186,25.3c-4.9,0.1 -9,-3.7 -9.2,-8.7c0,-0.2 0,-0.3 0,-0.5c-0.1,-2.5 0.9,-4.9 2.7,-6.6c1.7,-1.7 4.1,-2.7 6.6,-2.6c2.4,-0.1 4.8,0.9 6.5,2.6c1.7,1.7 2.7,4.1 2.6,6.6c0.1,2.5 -0.8,4.8 -2.6,6.6c-1.8,1.7 -4.2,2.6 -6.6,2.6zm4,-5c1,-1.2 1.6,-2.7 1.5,-4.3c0.1,-1.6 -0.5,-3.1 -1.5,-4.3c-2.2,-2.1 -5.7,-2.1 -7.9,0c-1,1.2 -1.6,2.7 -1.5,4.3c-0.1,1.6 0.5,3.1 1.5,4.3c2.2,2.2 5.6,2.2 7.9,0z" class="st0" id="Tracé_545"/>
    <path stroke="#222055" d="m227.686,7.1l3.6,0l0,18l-3.6,0l-8.1,-12.4l0,12.4l-3.6,0l0,-18l3.6,0l8.1,12.4l0,-12.4z" class="st0" id="Tracé_546"/>
    <path stroke="#222055" d="m85.486,33.7l3.6,0l0,18l-3.6,0l-8.1,-12.4l0,12.4l-3.7,0l0,-18l3.6,0l8.1,12.4l0.1,-12.4l0,0z" class="st0" id="Tracé_547"/>
    <path stroke="#222055" d="m92.886,44.8l0,-11l3.6,0l0,11c-0.1,1 0.3,2 0.9,2.8c0.7,0.7 1.7,1 2.7,0.9c1.8,0.2 3.4,-1.1 3.6,-2.8c0,-0.3 0,-0.6 0,-0.9l0,-11l3.6,0l0,11c0.1,2 -0.6,3.9 -2.1,5.2c-3,2.5 -7.3,2.5 -10.3,0c-1.4,-1.3 -2.1,-3.2 -2,-5.2z" class="st0" id="Tracé_548"/>
    <path stroke="#222055" d="m130.786,33.8l0,17.9l-3.6,0l0,-11.4l-4.9,11.4l-2.6,0l-4.9,-11.3l0,11.3l-3.6,0l0,-17.9l4,0l5.7,13.3l5.7,-13.3l4.2,0z" class="st0" id="Tracé_549"/>
    <path stroke="#222055" d="m144.886,33.7l0,2.8l-6.7,0l0,4.7l6,0l0,2.8l-6,0l0,5l6.7,0l0,2.8l-10.3,0l0,-18l10.3,-0.1zm-8.3,-3.5l5.9,-3.1l0,2.9l-5.9,2.7l0,-2.5z" class="st0" id="Tracé_550"/>
    <path stroke="#222055" d="m152.186,44.6l0,7.2l-3.6,0l0,-18l6.6,0c1.7,-0.1 3.4,0.4 4.8,1.5c1.1,1 1.7,2.4 1.7,3.9c0,1.1 -0.4,2.3 -1,3.2c-0.8,1.1 -1.9,1.8 -3.2,2l4.5,7.4l-4.3,0l-4.3,-7.2l-1.2,0l0,0zm0,-8l0,5.2l2.9,0c0.8,0 1.5,-0.2 2.1,-0.7c1,-1.1 1,-2.8 0,-3.9c-0.6,-0.5 -1.3,-0.7 -2.1,-0.7l-2.9,0l0,0.1z" class="st0" id="Tracé_551"/>
    <path stroke="#222055" d="m165.286,51.7l0,-17.9l3.6,0l0,17.9l-3.6,0z" class="st0" id="Tracé_552"/>
    <path stroke="#222055" d="m180.886,51.9c-4.9,0.1 -9,-3.7 -9.2,-8.7c0,-0.2 0,-0.3 0,-0.5c-0.1,-2.5 0.9,-4.9 2.7,-6.6c1.7,-1.7 4.1,-2.7 6.6,-2.6c2.4,-0.1 4.8,0.9 6.5,2.6c1.7,1.7 2.7,4.1 2.6,6.6c0,1.5 -0.3,3 -1,4.3c-0.7,1.3 -1.6,2.4 -2.8,3.2l4,4.6l-4.5,0l-2.6,-3.2c-0.8,0.2 -1.5,0.3 -2.3,0.3zm0,-15.1c-1.5,-0.1 -2.9,0.5 -4,1.6c-2,2.5 -2,6.1 0,8.6c2.2,2.1 5.7,2.1 7.9,0c2,-2.5 2,-6.1 0,-8.6c-1,-1.1 -2.4,-1.7 -3.9,-1.6l0,0z" class="st0" id="Tracé_553"/>
    <path stroke="#222055" d="m192.986,44.8l0,-11l3.6,0l0,11c-0.1,1 0.3,2 0.9,2.8c0.7,0.7 1.7,1 2.7,0.9c1.8,0.2 3.4,-1.1 3.6,-2.8c0,-0.3 0,-0.6 0,-0.9l0,-11l3.6,0l0,11c0.1,2 -0.6,3.9 -2.1,5.2c-1.4,1.3 -3.3,1.9 -5.2,1.9c-1.9,0.1 -3.7,-0.6 -5.1,-1.9c-1.4,-1.3 -2.1,-3.2 -2,-5.2z" class="st0" id="Tracé_554"/>
    <path stroke="#222055" d="m221.586,33.7l0,2.8l-6.7,0l0,4.7l6,0l0,2.8l-6,0l0,5l6.7,0l0,2.8l-10.3,0l0,-18l10.3,0l0,-0.1z" class="st0" id="Tracé_555"/>
   </g>
  </g>
 </g>
</svg>