<?xml version="1.0" encoding="utf-8"?>
<!-- Generator: Adobe Illustrator 17.0.0, SVG Export Plug-In . SVG Version: 6.00 Build 0)  -->
<!DOCTYPE svg PUBLIC "-//W3C//DTD SVG 1.1//EN" "http://www.w3.org/Graphics/SVG/1.1/DTD/svg11.dtd">
<svg version="1.1" id="Calque_1" xmlns="http://www.w3.org/2000/svg" xmlns:xlink="http://www.w3.org/1999/xlink" x="0px" y="0px"
	 width="100px" height="75.459px" viewBox="0 0 100 75.459" enable-background="new 0 0 100 75.459" xml:space="preserve">
<g>
	<path fill="#B2B2B2" d="M11.674,67.845v-0.453c0.012-0.012,0-0.027-0.027-0.066c-0.027-0.014-0.041-0.029-0.068-0.041h-0.027H1.235
		c-0.014,0-0.041,0-0.068-0.027c0-0.012,0-0.027-0.014-0.053V58.66c-0.012-0.027-0.027-0.066-0.039-0.107
		c-0.027-0.014-0.041-0.027-0.08-0.027L0.994,58.5H0.367l-0.039,0.027c-0.029,0-0.053,0.012-0.068,0.041
		c-0.014,0.027-0.027,0.053-0.027,0.092l-0.012,0.068v8.984v0.08c0,0.041,0.012,0.068,0.025,0.094
		c0.014,0.027,0.041,0.027,0.068,0.039l0.041,0.014l11.185-0.014c0.012,0.014,0.039,0,0.092-0.039
		C11.659,67.886,11.659,67.859,11.674,67.845"/>
	<path fill="#B2B2B2" d="M86.834,67.325c0.36-0.24,0.6-0.559,0.721-0.905c0.107-0.266,0.107-0.534,0.027-0.841
		c-0.08-0.305-0.319-0.678-0.733-1.106c-0.414-0.414-1.067-0.919-1.947-1.534c-0.199-0.133-0.467-0.305-0.813-0.545
		c-0.334-0.242-0.692-0.496-1.12-0.774c-0.24-0.16-0.491-0.334-0.745-0.532c-0.268-0.188-0.481-0.362-0.694-0.549
		c-0.227-0.172-0.375-0.334-0.479-0.467c-0.094-0.133-0.135-0.278-0.135-0.44c-0.027-0.158,0.027-0.305,0.107-0.453
		c0.109-0.145,0.242-0.24,0.428-0.319c0.174-0.053,0.373-0.092,0.6-0.107c0.213-0.027,0.428-0.027,0.653-0.027
		c0.213,0.012,0.387,0.041,0.52,0.08c0.346,0.094,0.653,0.24,0.905,0.414c0.268,0.172,0.481,0.346,0.653,0.491
		c0.174,0.174,0.268,0.268,0.307,0.321c0.014,0,0.041,0.027,0.08,0.053c0.041,0.041,0.08,0.066,0.121,0.066
		c0.027-0.012,0.041-0.025,0.041-0.053v-0.027l-0.068-0.573c0-0.012-0.014-0.039-0.041-0.08c-0.025-0.012-0.053-0.053-0.092-0.078
		l-0.041-0.055c-0.133-0.133-0.332-0.278-0.612-0.426c-0.266-0.16-0.626-0.281-1.054-0.373c-0.186-0.029-0.412-0.068-0.678-0.068
		c-0.266-0.012-0.534-0.012-0.827,0c-0.307,0.027-0.573,0.068-0.854,0.133c-0.44,0.133-0.706,0.321-0.839,0.534
		c-0.121,0.213-0.16,0.411-0.133,0.586c0.039,0.174,0.172,0.399,0.426,0.653c0.24,0.266,0.559,0.52,0.934,0.801
		c0.387,0.293,0.813,0.559,1.253,0.839c0.319,0.201,0.639,0.414,0.934,0.639c0.293,0.215,0.585,0.416,0.854,0.614
		c0.559,0.373,0.946,0.733,1.212,1.067c0.24,0.346,0.387,0.665,0.426,0.987c0.053,0.319,0.027,0.612-0.039,0.893
		c-0.094,0.467-0.414,0.852-0.946,1.147c-0.52,0.28-1.294,0.414-2.322,0.399c-0.44-0.027-0.866-0.119-1.265-0.293
		c-0.401-0.172-0.76-0.387-1.079-0.626c-0.322-0.24-0.6-0.493-0.827-0.733c-0.242-0.254-0.428-0.452-0.547-0.614
		c-0.133-0.16-0.186-0.24-0.186-0.252c0-0.014-0.041-0.027-0.094-0.041c-0.027,0-0.039,0.014-0.08,0.027
		c-0.012,0.027-0.027,0.027-0.039,0.027l-0.428,0.348c-0.012,0-0.012,0.012-0.027,0.025c-0.027,0.014-0.027,0.041-0.039,0.055
		c0,0.039,0.012,0.066,0.012,0.066c0,0.014,0.094,0.133,0.266,0.36c0.174,0.213,0.455,0.479,0.827,0.772
		c0.375,0.295,0.854,0.561,1.439,0.8c0.588,0.227,1.28,0.36,2.093,0.401c1.014,0.012,1.841-0.041,2.482-0.147
		C85.982,67.767,86.488,67.579,86.834,67.325"/>
	<path fill="#B2B2B2" d="M98.341,63.273c0.225,0,0.399-0.027,0.479-0.068c0.094-0.025,0.133-0.104,0.119-0.213
		c0.014-0.107-0.025-0.199-0.092-0.252c-0.066-0.068-0.227-0.106-0.452-0.106h-9.185c0,0.012-0.014,0.012-0.041,0
		c-0.041-0.014-0.053-0.014-0.08-0.029c-0.012-0.025-0.012-0.039-0.012-0.066v-0.041v-3.106v-0.066c0-0.053,0.012-0.094,0.025-0.121
		c0.014-0.027,0.027-0.053,0.068-0.066h0.041l9.785-0.014c0.225,0.014,0.399-0.027,0.479-0.068c0.094-0.051,0.133-0.133,0.133-0.252
		c0-0.094-0.039-0.186-0.121-0.227c-0.08-0.053-0.24-0.08-0.479-0.08H88.728c-0.08,0-0.147,0.027-0.227,0.027
		c-0.092,0.014-0.16,0.053-0.213,0.094c-0.08,0.133-0.133,0.252-0.147,0.387c-0.012,0.133-0.012,0.213,0,0.225l-0.012,8.014v0.186
		c0.012,0.107,0.053,0.225,0.121,0.334c0.092,0.092,0.199,0.145,0.332,0.158c0.133,0.014,0.215,0.014,0.242,0.014H99.1
		c0.24,0,0.412-0.014,0.506-0.068c0.107-0.051,0.16-0.133,0.16-0.24c0.014-0.24-0.24-0.346-0.719-0.36h-9.838l-0.055-0.025
		c-0.039-0.014-0.053-0.014-0.066-0.055c-0.012-0.027-0.012-0.066-0.012-0.092v-0.053v-3.614c-0.014-0.012,0-0.039,0.012-0.107
		c0.012-0.012,0.027-0.053,0.066-0.053H98.341z"/>
	<g>
		<rect x="38.972" fill="#B2B2B2" width="22.055" height="50.245"/>
		<g>
			<defs>
				<rect id="SVGID_1_" x="44.765" y="34.67" width="13.763" height="11.327"/>
			</defs>
			<clipPath id="SVGID_2_">
				<use xlink:href="#SVGID_1_"  overflow="visible"/>
			</clipPath>
			<path clip-path="url(#SVGID_2_)" fill="#FFFFFF" d="M52.748,45.992v-0.004l5.612-0.006c0.01,0.006,0.043-0.002,0.113-0.037
				c0.021-0.014,0.041-0.037,0.047-0.059v-0.541c0.008-0.01-0.004-0.037-0.035-0.088c-0.025-0.014-0.049-0.027-0.076-0.033
				l-0.035-0.014H45.979c-0.008,0.006-0.031-0.002-0.076-0.025c-0.006-0.018-0.016-0.037-0.023-0.061v-10.26
				c-0.008-0.043-0.023-0.088-0.049-0.137c-0.025-0.025-0.053-0.041-0.086-0.047l-0.047-0.012h-0.762L44.89,34.68
				c-0.035,0.006-0.063,0.029-0.086,0.059c-0.016,0.035-0.027,0.076-0.027,0.125l-0.012,0.072v4.769h0.004v0.711h-0.004v5.409
				c0,0.045,0.01,0.084,0.025,0.109c0.025,0.025,0.053,0.041,0.084,0.049l0.049,0.012L52.748,45.992z"/>
		</g>
		<g>
			<path fill="#FFFFFF" d="M51.509,45.274c-0.002-0.023-0.008-0.041-0.014-0.063c-0.121-0.371-0.42-0.811-0.903-1.317
				c-0.51-0.524-1.323-1.165-2.437-1.914c-0.248-0.168-0.581-0.399-1.009-0.688c-0.387-0.27-0.815-0.563-1.28-0.876v0.641
				c0.248,0.16,0.487,0.332,0.719,0.502c0.375,0.272,0.725,0.528,1.056,0.766c0.69,0.469,1.194,0.915,1.507,1.343
				c0.307,0.426,0.485,0.831,0.539,1.224c0.016,0.107,0.025,0.215,0.031,0.319c0.012,0.274-0.014,0.538-0.082,0.794v0.008
				c-0.121,0.588-0.512,1.065-1.173,1.429c-0.659,0.356-1.624,0.524-2.899,0.5c-0.561-0.029-1.095-0.145-1.595-0.358
				c-0.493-0.221-0.94-0.487-1.339-0.79c-0.412-0.307-0.76-0.614-1.046-0.921c-0.299-0.303-0.522-0.561-0.678-0.766l-0.246-0.317
				l-0.1-0.053c-0.035,0.01-0.07,0.022-0.1,0.041l-0.602,0.473l-0.025,0.025c-0.027,0.025-0.041,0.051-0.051,0.076
				c0,0.059,0.01,0.086,0.025,0.076c0,0.018,0.111,0.168,0.334,0.446c0.221,0.272,0.567,0.596,1.034,0.971
				c0.469,0.375,1.065,0.706,1.785,0.997c0.733,0.289,1.611,0.452,2.629,0.498c1.259,0.025,2.297-0.035,3.114-0.18
				c0.811-0.151,1.435-0.383,1.878-0.69c0.442-0.313,0.741-0.696,0.893-1.149c0.041-0.1,0.072-0.205,0.088-0.317
				C51.595,45.773,51.579,45.53,51.509,45.274"/>
			<path fill="#FFFFFF" d="M48.442,37.415c-0.156-0.17-0.401-0.354-0.754-0.549c-0.348-0.197-0.79-0.348-1.325-0.461
				c-0.131-0.025-0.276-0.043-0.438-0.059c-0.123-0.012-0.26-0.023-0.403-0.029c-0.233-0.012-0.475-0.016-0.729-0.004
				c-0.104,0.004-0.213,0.006-0.319,0.018c-0.368,0.025-0.719,0.078-1.061,0.164c-0.534,0.17-0.882,0.391-1.044,0.663
				c-0.156,0.272-0.209,0.514-0.168,0.729c0.045,0.227,0.219,0.506,0.526,0.829c0.303,0.313,0.696,0.645,1.173,0.993
				c0.284,0.213,0.581,0.422,0.893,0.622v0.004v-0.721c-0.291-0.215-0.561-0.424-0.805-0.631c-0.264-0.221-0.459-0.418-0.588-0.588
				c-0.119-0.172-0.178-0.354-0.178-0.549c-0.008-0.205,0.041-0.395,0.154-0.575c0.108-0.178,0.283-0.311,0.524-0.395
				c0.219-0.068,0.465-0.115,0.741-0.139c0.051-0.006,0.1-0.01,0.151-0.012c0.225-0.016,0.446-0.023,0.663-0.014
				c0.174,0.01,0.334,0.027,0.469,0.051c0.07,0.01,0.133,0.023,0.192,0.037c0.428,0.127,0.805,0.301,1.136,0.522
				c0.334,0.223,0.602,0.432,0.805,0.629c0.213,0.201,0.346,0.334,0.395,0.395l0.092,0.076c0.051,0.045,0.1,0.063,0.151,0.063
				c0.033-0.006,0.049-0.029,0.051-0.063v-0.037l-0.076-0.717c0-0.016-0.023-0.051-0.064-0.1c-0.025-0.018-0.059-0.047-0.102-0.09
				L48.442,37.415z"/>
		</g>
		<path fill="#B2B2B2" d="M77.717,58.687v-0.066c0-0.041-0.027-0.068-0.041-0.094c-0.012,0-0.039-0.012-0.066-0.027h-0.708
			c-0.025,0.014-0.053,0.027-0.078,0.027c0,0.027-0.014,0.053-0.014,0.08v8.2v0.133v0.145c-0.041,0-0.066,0-0.119-0.041
			c-0.041-0.025-0.068-0.025-0.068-0.051l-11.865-8.479h-0.774h-0.053c-0.027,0-0.053,0.012-0.08,0.012
			c-0.012,0.027-0.027,0.053-0.039,0.08v0.068v9.064v0.068c0.012,0.041,0.027,0.066,0.039,0.092c0.014,0.014,0.041,0.029,0.08,0.029
			h0.041h0.586c0.014,0.012,0.027,0.012,0.068,0c0.027,0,0.053-0.014,0.068-0.014c0.027-0.041,0.027-0.066,0.027-0.094
			c0.012-0.025,0.012-0.039,0.012-0.039v-8.212c-0.012-0.012-0.012-0.041-0.012-0.121c0-0.078,0-0.133,0.012-0.145
			c0.027-0.014,0.053,0,0.106,0.039c0.041,0.029,0.053,0.041,0.068,0.053l11.877,8.519l0.041,0.014h0.133h0.092l0.506-0.014
			l0.041,0.014c0.027,0,0.053-0.014,0.08-0.014c0.014-0.041,0.041-0.066,0.041-0.094V58.687z"/>
		<path fill="#B2B2B2" d="M26.071,58.541c-0.027-0.014-0.055-0.041-0.094-0.041h-0.692l-0.041,0.027c-0.014,0-0.041,0-0.053,0.014
			c-0.014,0.039-0.027,0.053-0.027,0.08c-0.012,0.027-0.012,0.039-0.012,0.039v7.399c0,0.012,0,0.053-0.014,0.133
			c-0.014,0.094-0.068,0.174-0.133,0.281c-0.068,0.106-0.186,0.199-0.348,0.281c-0.119,0.053-0.332,0.092-0.639,0.133
			c-0.322,0.068-0.694,0.092-1.132,0.145c-0.44,0.055-0.895,0.08-1.362,0.121c-0.479,0.039-0.934,0.068-1.345,0.08
			c-0.428,0.027-0.786,0.041-1.067,0.041c-0.387,0-0.827-0.029-1.36-0.053c-0.534-0.029-1.079-0.068-1.628-0.108
			c-0.547-0.053-1.04-0.107-1.466-0.158c-0.426-0.055-0.733-0.109-0.88-0.135c-0.24-0.066-0.412-0.16-0.506-0.266
			c-0.107-0.094-0.174-0.186-0.174-0.266c-0.027-0.094-0.039-0.133-0.027-0.133v-7.479c0-0.014,0-0.014-0.012-0.053
			c0-0.027,0-0.053-0.027-0.08c-0.014-0.014-0.041-0.041-0.068-0.041h-0.68l-0.039,0.027c-0.027,0-0.053,0.014-0.053,0.027
			c-0.014,0.027-0.029,0.041-0.041,0.068v7.613c0,0.012,0.027,0.066,0.053,0.172c0.027,0.121,0.106,0.242,0.213,0.401
			c0.121,0.147,0.281,0.293,0.493,0.426c0.174,0.092,0.455,0.174,0.88,0.266c0.414,0.08,0.905,0.16,1.478,0.213
			c0.588,0.068,1.202,0.121,1.867,0.162c0.653,0.039,1.306,0.053,1.974,0.066c0.653,0,1.306-0.027,1.959-0.066
			c0.653-0.041,1.265-0.094,1.839-0.162c0.561-0.053,1.054-0.119,1.454-0.201c0.414-0.066,0.706-0.145,0.854-0.211
			c0.225-0.108,0.399-0.242,0.532-0.401c0.133-0.16,0.227-0.307,0.266-0.44c0.055-0.119,0.094-0.186,0.094-0.199v-7.586v-0.053
			C26.11,58.594,26.096,58.553,26.071,58.541"/>
		<path fill="#B2B2B2" d="M61.906,63.273c0.24,0,0.399-0.027,0.479-0.068c0.094-0.025,0.133-0.104,0.121-0.213
			c0.012-0.107-0.014-0.199-0.094-0.252c-0.066-0.068-0.213-0.106-0.453-0.106h-9.16c-0.012,0.012-0.039,0.012-0.066,0
			c-0.027-0.014-0.053-0.014-0.068-0.029c-0.012-0.025-0.025-0.039-0.025-0.066l0.012-3.147c-0.012-0.027-0.012-0.039,0-0.066
			c0-0.053,0.012-0.094,0.012-0.121c0.014-0.027,0.041-0.053,0.068-0.066h0.041l9.785-0.014c0.24,0.014,0.399-0.027,0.493-0.068
			c0.092-0.051,0.133-0.133,0.119-0.252c0.014-0.094-0.027-0.186-0.107-0.227c-0.08-0.053-0.252-0.08-0.481-0.08H52.293
			c-0.068,0-0.147,0.027-0.225,0.027c-0.094,0.014-0.148,0.053-0.201,0.094c-0.094,0.133-0.147,0.252-0.147,0.387
			c-0.014,0.133-0.014,0.213,0,0.225l-0.014,8.014v0.186c0.014,0.107,0.055,0.225,0.121,0.334c0.094,0.092,0.186,0.145,0.319,0.158
			c0.133,0.014,0.227,0.014,0.254,0.014h10.28c0.225,0,0.399-0.014,0.506-0.068c0.107-0.051,0.145-0.133,0.145-0.24
			c0.014-0.24-0.225-0.346-0.706-0.36h-9.85l-0.053-0.025c-0.029-0.014-0.055-0.014-0.055-0.055
			c-0.012-0.027-0.025-0.066-0.025-0.092v-0.053v-3.614c-0.014-0.012,0-0.039,0.025-0.107c0-0.012,0.027-0.053,0.055-0.053H61.906z"
			/>
		<polygon fill="#B2B2B2" points="42.136,58.5 40.788,58.5 26.311,67.927 27.685,67.927 		"/>
		<polygon fill="#B2B2B2" points="40.922,67.939 42.228,67.939 27.924,58.5 26.577,58.5 		"/>
		<path fill="#B2B2B2" d="M50.414,67.353c0.36-0.254,0.586-0.561,0.706-0.907c0.106-0.266,0.121-0.534,0.041-0.839
			c-0.08-0.307-0.334-0.68-0.733-1.108c-0.416-0.414-1.069-0.919-1.961-1.534c-0.186-0.133-0.467-0.305-0.8-0.545
			c-0.332-0.242-0.719-0.495-1.132-0.774c-0.24-0.16-0.493-0.334-0.747-0.532c-0.252-0.188-0.479-0.363-0.692-0.549
			c-0.213-0.172-0.373-0.332-0.467-0.465c-0.092-0.135-0.145-0.281-0.145-0.442c-0.014-0.158,0.025-0.305,0.119-0.453
			c0.092-0.145,0.225-0.24,0.426-0.319c0.174-0.053,0.375-0.092,0.588-0.107c0.227-0.027,0.44-0.041,0.653-0.027
			c0.213,0.012,0.387,0.041,0.534,0.08c0.332,0.094,0.639,0.24,0.905,0.414c0.268,0.172,0.479,0.346,0.641,0.493
			c0.172,0.172,0.279,0.266,0.319,0.319c0.014,0,0.027,0.027,0.068,0.066c0.039,0.029,0.08,0.053,0.119,0.053
			c0.041-0.012,0.053-0.025,0.053-0.053v-0.025l-0.068-0.575c0-0.012-0.025-0.039-0.051-0.078c-0.014-0.014-0.053-0.055-0.082-0.08
			l-0.053-0.041c-0.119-0.133-0.319-0.293-0.6-0.455c-0.278-0.145-0.627-0.266-1.065-0.358c-0.174-0.027-0.401-0.053-0.668-0.068
			c-0.254-0.014-0.547-0.014-0.839,0.014c-0.293,0.012-0.573,0.053-0.842,0.133c-0.438,0.133-0.704,0.305-0.839,0.532
			c-0.119,0.201-0.16,0.399-0.133,0.573c0.027,0.174,0.174,0.401,0.414,0.653c0.254,0.266,0.559,0.52,0.946,0.801
			c0.387,0.293,0.8,0.559,1.241,0.839c0.334,0.201,0.653,0.414,0.946,0.639c0.295,0.215,0.588,0.414,0.854,0.614
			c0.547,0.373,0.946,0.733,1.2,1.067c0.24,0.346,0.387,0.665,0.426,0.987c0.053,0.319,0.041,0.612-0.039,0.893
			c-0.094,0.467-0.399,0.854-0.934,1.147c-0.52,0.28-1.294,0.414-2.32,0.399c-0.452-0.027-0.88-0.119-1.28-0.293
			c-0.399-0.172-0.747-0.387-1.067-0.626c-0.334-0.24-0.6-0.493-0.839-0.733c-0.227-0.254-0.414-0.452-0.534-0.612
			c-0.133-0.162-0.199-0.242-0.199-0.254c0-0.014-0.027-0.027-0.08-0.041c-0.027,0-0.053,0.014-0.08,0.027
			c-0.029,0.027-0.029,0.027-0.041,0.027l-0.44,0.348l-0.027,0.027c-0.012,0.012-0.027,0.039-0.039,0.066
			c0,0.041,0.012,0.068,0.027,0.068c0,0,0.092,0.119,0.266,0.346c0.172,0.213,0.44,0.481,0.825,0.774
			c0.375,0.293,0.842,0.559,1.427,0.801c0.573,0.225,1.28,0.358,2.107,0.399c0.999,0.012,1.826-0.041,2.479-0.147
			C49.56,67.794,50.053,67.605,50.414,67.353"/>
		<rect x="0.22" y="58.408" fill="none" width="99.56" height="9.666"/>
		<g>
			<path fill="#B2B2B2" d="M3.377,75.427v-2.639H1.887v-0.295H5.22v0.295H3.729v2.639H3.377z"/>
			<path fill="#B2B2B2" d="M7.92,74.767H5.519l-0.391,0.659H4.739l1.728-2.934h0.5l1.732,2.934H8.31L7.92,74.767z M7.755,74.487
				l-1.036-1.749l-1.034,1.749H7.755z"/>
			<path fill="#B2B2B2" d="M9.02,75.427v-2.934h0.352v2.934H9.02z"/>
			<path fill="#B2B2B2" d="M10.193,75.427v-2.934h0.354v2.639h2.328v0.295H10.193z"/>
			<path fill="#B2B2B2" d="M15.224,72.46c0.688,0,1.118,0.025,1.29,0.074c0.274,0.076,0.446,0.248,0.516,0.514
				c0.043,0.162,0.066,0.467,0.066,0.913c0,0.446-0.022,0.751-0.066,0.913c-0.068,0.266-0.24,0.436-0.516,0.512
				c-0.172,0.049-0.61,0.074-1.308,0.074c-0.7,0-1.136-0.025-1.308-0.074c-0.274-0.076-0.446-0.246-0.518-0.512
				c-0.043-0.164-0.063-0.469-0.063-0.913c0-0.446,0.02-0.749,0.063-0.913c0.072-0.266,0.244-0.438,0.518-0.514
				C14.069,72.484,14.511,72.46,15.224,72.46z M15.224,72.767c-0.616,0-1.003,0.02-1.157,0.059
				c-0.127,0.033-0.219,0.092-0.274,0.178c-0.049,0.074-0.08,0.195-0.09,0.36c-0.012,0.166-0.02,0.364-0.02,0.596
				c0,0.387,0.014,0.647,0.043,0.776c0.029,0.129,0.082,0.221,0.164,0.283c0.08,0.055,0.211,0.092,0.393,0.111
				c0.154,0.014,0.461,0.023,0.923,0.023c0.498,0,0.831-0.01,1.003-0.031c0.25-0.031,0.401-0.131,0.457-0.303
				c0.041-0.135,0.061-0.42,0.061-0.858c0-0.389-0.012-0.649-0.041-0.776c-0.029-0.131-0.084-0.225-0.166-0.285
				c-0.076-0.053-0.207-0.09-0.393-0.106C15.93,72.777,15.629,72.767,15.224,72.767z"/>
			<path fill="#B2B2B2" d="M17.828,75.427v-2.934h2.42c0.276,0,0.473,0.027,0.592,0.08c0.147,0.066,0.252,0.166,0.311,0.301
				c0.055,0.125,0.082,0.295,0.082,0.514c0,0.326-0.078,0.534-0.233,0.624c-0.086,0.049-0.229,0.084-0.426,0.104
				c0.162,0.016,0.283,0.047,0.364,0.088c0.086,0.045,0.147,0.108,0.186,0.186c0.035,0.072,0.053,0.164,0.053,0.274v0.762h-0.352
				v-0.559c-0.002-0.16-0.012-0.278-0.033-0.352c-0.033-0.121-0.115-0.201-0.25-0.24c-0.078-0.02-0.192-0.031-0.346-0.031H18.18
				v1.181H17.828z M18.18,73.965h1.933c0.301,0,0.5-0.039,0.598-0.117c0.059-0.049,0.098-0.106,0.121-0.178
				c0.023-0.07,0.035-0.17,0.035-0.299c0-0.172-0.025-0.295-0.072-0.369c-0.059-0.096-0.166-0.16-0.317-0.19
				c-0.092-0.016-0.221-0.025-0.385-0.025H18.18V73.965z"/>
			<path fill="#B2B2B2" d="M23.094,75.427v-2.934h0.571l1.771,2.525l1.771-2.525h0.553v2.934h-0.352v-2.645l-1.851,2.645h-0.258
				l-1.851-2.645v2.645H23.094z"/>
			<path fill="#B2B2B2" d="M31.264,74.767h-2.402l-0.391,0.659h-0.389l1.73-2.934h0.5l1.73,2.934h-0.389L31.264,74.767z
				 M31.098,74.487l-1.036-1.749l-1.034,1.749H31.098z"/>
			<path fill="#B2B2B2" d="M32.365,75.427v-2.934h2.283c0.34,0,0.59,0.033,0.747,0.096c0.186,0.076,0.321,0.184,0.405,0.33
				c0.127,0.217,0.19,0.565,0.19,1.04c0,0.477-0.063,0.825-0.19,1.042c-0.098,0.168-0.26,0.289-0.483,0.36
				c-0.145,0.043-0.369,0.066-0.67,0.066H32.365z M32.717,75.132h1.959c0.414,0,0.68-0.094,0.797-0.285
				c0.1-0.162,0.151-0.453,0.151-0.87c0-0.455-0.053-0.764-0.16-0.925c-0.113-0.176-0.385-0.264-0.815-0.264h-1.933V75.132z"/>
			<path fill="#B2B2B2" d="M36.724,75.427v-2.934h2.926v0.295h-2.572v0.979h2.475v0.278h-2.475v1.087h2.592v0.295H36.724z"/>
			<path fill="#B2B2B2" d="M40.991,72.493h0.389l1.218,2.613l1.237-2.613h0.414l1.235,2.613l1.226-2.613h0.371l-1.386,2.934H45.26
				l-1.222-2.592l-1.226,2.592h-0.434L40.991,72.493z"/>
			<path fill="#B2B2B2" d="M47.463,75.427v-2.934h0.352v2.934H47.463z"/>
			<path fill="#B2B2B2" d="M48.636,75.427v-2.934h0.569l2.772,2.682v-2.682h0.352v2.934h-0.567l-2.772-2.682v2.682H48.636z"/>
			<path fill="#B2B2B2" d="M53.153,75.427v-2.934h2.283c0.34,0,0.59,0.033,0.749,0.096c0.184,0.076,0.319,0.184,0.403,0.33
				c0.127,0.217,0.192,0.565,0.192,1.04c0,0.477-0.066,0.825-0.192,1.042c-0.098,0.168-0.26,0.289-0.483,0.36
				c-0.145,0.043-0.368,0.066-0.669,0.066H53.153z M53.505,75.132h1.959c0.414,0,0.68-0.094,0.797-0.285
				c0.1-0.162,0.151-0.453,0.151-0.87c0-0.455-0.053-0.764-0.16-0.925c-0.113-0.176-0.385-0.264-0.815-0.264h-1.933V75.132z"/>
			<path fill="#B2B2B2" d="M59.334,72.46c0.686,0,1.116,0.025,1.29,0.074c0.274,0.076,0.446,0.248,0.516,0.514
				c0.043,0.162,0.066,0.467,0.066,0.913c0,0.446-0.023,0.751-0.066,0.913c-0.07,0.266-0.242,0.436-0.516,0.512
				c-0.174,0.049-0.61,0.074-1.308,0.074c-0.7,0-1.136-0.025-1.308-0.074c-0.274-0.076-0.448-0.246-0.518-0.512
				c-0.043-0.164-0.063-0.469-0.063-0.913c0-0.446,0.02-0.749,0.063-0.913c0.07-0.266,0.244-0.438,0.518-0.514
				C58.18,72.484,58.622,72.46,59.334,72.46z M59.334,72.767c-0.618,0-1.003,0.02-1.157,0.059c-0.127,0.033-0.219,0.092-0.274,0.178
				c-0.049,0.074-0.08,0.195-0.09,0.36c-0.014,0.166-0.02,0.364-0.02,0.596c0,0.387,0.014,0.647,0.043,0.776
				c0.027,0.129,0.082,0.221,0.164,0.283c0.078,0.055,0.211,0.092,0.393,0.111c0.151,0.014,0.459,0.023,0.923,0.023
				c0.496,0,0.831-0.01,1.003-0.031c0.25-0.031,0.401-0.131,0.457-0.303c0.041-0.135,0.061-0.42,0.061-0.858
				c0-0.389-0.014-0.649-0.041-0.776c-0.029-0.131-0.084-0.225-0.166-0.285c-0.076-0.053-0.207-0.09-0.393-0.106
				C60.041,72.777,59.74,72.767,59.334,72.767z"/>
			<path fill="#B2B2B2" d="M61.527,72.493h0.389l1.218,2.613l1.237-2.613h0.416l1.233,2.613l1.226-2.613h0.373l-1.388,2.934h-0.434
				l-1.222-2.592l-1.227,2.592h-0.434L61.527,72.493z"/>
			<path fill="#B2B2B2" d="M72.999,75.42l-0.612-0.319c-0.053,0.086-0.125,0.156-0.221,0.203c-0.094,0.049-0.227,0.082-0.397,0.096
				c-0.184,0.016-0.403,0.025-0.655,0.025c-0.571,0-0.977-0.008-1.214-0.022c-0.229-0.016-0.401-0.059-0.52-0.127
				c-0.125-0.072-0.213-0.176-0.266-0.309c-0.047-0.119-0.07-0.272-0.07-0.463c0-0.358,0.086-0.594,0.26-0.708
				c0.106-0.068,0.266-0.107,0.479-0.115c-0.102-0.066-0.176-0.123-0.223-0.174c-0.088-0.096-0.131-0.225-0.131-0.393
				c0-0.26,0.086-0.442,0.26-0.547c0.066-0.039,0.145-0.066,0.235-0.082c0.092-0.016,0.252-0.025,0.479-0.025
				c0.645,0,1.044,0.01,1.2,0.029c0.301,0.035,0.491,0.147,0.571,0.34c0.043,0.108,0.066,0.281,0.063,0.516h-0.369
				c-0.002-0.149-0.01-0.252-0.022-0.309c-0.025-0.106-0.086-0.174-0.182-0.205c-0.104-0.033-0.34-0.049-0.708-0.049
				c-0.532,0-0.839,0.006-0.917,0.018c-0.082,0.014-0.141,0.045-0.176,0.088c-0.045,0.055-0.068,0.137-0.068,0.244
				c0,0.113,0.033,0.203,0.1,0.266c0.053,0.051,0.164,0.121,0.332,0.211l1.931,1.02c0.014-0.082,0.023-0.174,0.023-0.278
				c0-0.074-0.004-0.19-0.008-0.352h0.375c0.006,0.094,0.01,0.18,0.01,0.258c0,0.197-0.02,0.381-0.059,0.551l0.592,0.311
				L72.999,75.42z M70.024,73.856c-0.235,0.012-0.397,0.066-0.483,0.156c-0.082,0.088-0.123,0.264-0.123,0.53
				c0,0.147,0.016,0.256,0.049,0.322c0.035,0.068,0.082,0.117,0.141,0.147c0.158,0.078,0.555,0.117,1.19,0.117
				c0.52,0,0.88-0.029,1.077-0.088c0.082-0.025,0.141-0.064,0.174-0.121L70.024,73.856z"/>
			<path fill="#B2B2B2" d="M74.6,75.427v-2.934h2.283c0.34,0,0.59,0.033,0.747,0.096c0.186,0.076,0.322,0.184,0.405,0.33
				c0.127,0.217,0.19,0.565,0.19,1.04c0,0.477-0.064,0.825-0.19,1.042c-0.098,0.168-0.26,0.289-0.483,0.36
				c-0.145,0.043-0.368,0.066-0.67,0.066H74.6z M74.952,75.132h1.959c0.414,0,0.68-0.094,0.797-0.285
				c0.1-0.162,0.151-0.453,0.151-0.87c0-0.455-0.053-0.764-0.16-0.925c-0.113-0.176-0.385-0.264-0.815-0.264h-1.933V75.132z"/>
			<path fill="#B2B2B2" d="M78.959,75.427v-2.934h0.354v2.934H78.959z"/>
			<path fill="#B2B2B2" d="M80.018,74.513h0.352v0.078c0,0.139,0.018,0.248,0.053,0.326c0.037,0.078,0.121,0.133,0.25,0.166
				c0.182,0.047,0.508,0.07,0.975,0.07c0.401,0,0.702-0.016,0.903-0.049c0.176-0.029,0.299-0.088,0.369-0.178
				c0.055-0.07,0.082-0.184,0.082-0.346c0-0.156-0.035-0.266-0.104-0.33c-0.084-0.078-0.256-0.123-0.52-0.135
				c-0.119-0.006-0.508-0.012-1.169-0.016c-0.303-0.002-0.518-0.018-0.647-0.047c-0.215-0.049-0.367-0.139-0.45-0.27
				c-0.061-0.096-0.092-0.238-0.092-0.422c0-0.305,0.078-0.522,0.235-0.649c0.133-0.109,0.338-0.178,0.616-0.209
				c0.244-0.027,0.543-0.041,0.897-0.041c0.418,0,0.725,0.02,0.921,0.064c0.244,0.053,0.411,0.153,0.502,0.301
				c0.043,0.074,0.072,0.16,0.084,0.26c0.008,0.07,0.014,0.152,0.016,0.244h-0.342c-0.006-0.207-0.053-0.344-0.141-0.409
				c-0.131-0.1-0.477-0.151-1.038-0.151c-0.539,0-0.905,0.033-1.104,0.096c-0.102,0.031-0.176,0.086-0.219,0.166
				c-0.041,0.074-0.059,0.172-0.059,0.303c0,0.195,0.059,0.319,0.18,0.375c0.086,0.041,0.231,0.066,0.434,0.074
				c0.106,0.004,0.336,0.006,0.684,0.008c0.51,0.002,0.837,0.012,0.985,0.031c0.287,0.037,0.481,0.127,0.579,0.27
				c0.08,0.117,0.121,0.285,0.121,0.504c0,0.272-0.066,0.473-0.194,0.602c-0.123,0.123-0.305,0.199-0.547,0.225
				c-0.229,0.027-0.534,0.039-0.917,0.039c-0.366,0-0.67-0.01-0.907-0.033c-0.295-0.025-0.504-0.107-0.627-0.24
				c-0.106-0.115-0.16-0.272-0.16-0.471V74.513z"/>
			<path fill="#B2B2B2" d="M84.07,75.427v-2.934h2.371c0.248,0,0.422,0.014,0.518,0.043c0.172,0.051,0.291,0.145,0.356,0.285
				c0.055,0.119,0.084,0.299,0.084,0.538c0,0.256-0.029,0.442-0.082,0.561c-0.059,0.131-0.168,0.225-0.324,0.287
				c-0.117,0.045-0.274,0.066-0.475,0.066h-2.097v1.155H84.07z M84.422,73.979h1.835c0.317,0,0.524-0.039,0.62-0.113
				c0.102-0.076,0.154-0.237,0.154-0.483c0-0.242-0.045-0.399-0.135-0.475c-0.098-0.082-0.287-0.121-0.567-0.121h-1.906V73.979z"/>
			<path fill="#B2B2B2" d="M88.015,75.427v-2.934h0.352v2.639h2.328v0.295H88.015z"/>
			<path fill="#B2B2B2" d="M94.199,74.767h-2.402l-0.391,0.659h-0.389l1.728-2.934h0.502l1.73,2.934h-0.389L94.199,74.767z
				 M94.033,74.487l-1.036-1.749l-1.034,1.749H94.033z"/>
			<path fill="#B2B2B2" d="M96.232,73.903l1.398-1.411h0.481l-1.703,1.701v1.233h-0.352v-1.233l-1.703-1.701h0.483L96.232,73.903z"
				/>
		</g>
		<g>
			
				<line fill="none" stroke="#12100B" stroke-linejoin="round" stroke-miterlimit="1" x1="50.006" y1="68.064" x2="50.006" y2="68.064"/>
		</g>
		<g>
			<line fill="#B2B2B2" x1="49.969" y1="72.474" x2="49.969" y2="72.474"/>
		</g>
		<g>
			<line fill="#B2B2B2" x1="50.141" y1="72.474" x2="50.141" y2="72.474"/>
		</g>
	</g>
</g>
</svg>
