<svg width="1080" height="1080" xmlns="http://www.w3.org/2000/svg" xml:space="preserve" version="1.1">
 <desc>Created with Fabric.js 5.2.4</desc>

 <g>
  <title>Layer 1</title>
  <g id="f4f2b2cc-71c9-4b1c-a7dc-771add24b423" transform="matrix(1 0 0 1 540 540)"/>
  <g id="svg_2" transform="matrix(0.157582 0 0 0.157582 -1630.26 -836.311)">
   <path id="svg_3" fill-rule=" nonzero" fill="#222055" stroke-miterlimit="4" stroke-linejoin=" miter" stroke-dashoffset="0" stroke-dasharray=" none" stroke-width="0" stroke-opacity="0" stroke=" rgb(34,32,85)" stroke-linecap=" butt" d="m11147.90805,10439.10238l-524,-522l0,-1054l0,-1055l307,-306c539,-536 750,-741 764,-741c7,0 241,227 519,505l505,505l415,-416c495,-495 602,-596 627,-588c10,4 244,232 520,508l503,501l508,-508c279,-279 514,-507 522,-507c8,0 252,237 542,528l528,527l0,1045l0,1045l-528,528c-290,290 -534,527 -542,527c-8,0 -243,-228 -522,-507l-508,-508l-508,508c-301,300 -515,507 -526,507c-11,0 -225,-206 -525,-505l-506,-504l-505,504c-300,299 -513,505 -524,505c-11,0 -232,-213 -542,-522zm3088,-55c263,-263 478,-482 478,-488c0,-5 -217,-227 -483,-493l-482,-482l-485,485l-485,485l485,485c267,267 487,485 490,485c2,0 220,-215 482,-477zm-2582,-530l0,-968l-472,-472c-260,-260 -476,-473 -480,-473c-5,0 -8,435 -8,967l0,966l472,474c260,260 476,473 480,473c5,0 8,-435 8,-967zm2060,-1983l0,-975l-990,990l-990,990l0,975l0,975l990,-990l990,-990l0,-975zm1070,15l-990,-990l0,975l0,975l988,988l987,987l3,-972l2,-973l-990,-990zm2020,1023c0,-533 -3,-968 -7,-968c-5,0 -218,210 -475,467l-468,468l0,975l0,975l475,-475l475,-475l0,-967zm-4626,-595c295,-298 474,-486 471,-495c-3,-7 -219,-227 -480,-488l-474,-475l-467,465c-257,256 -476,476 -487,488l-20,24l484,484c266,266 487,483 491,482c4,-2 221,-220 482,-485zm4126,2l485,-485l-488,-488l-487,-487l-487,487l-488,488l485,485c267,267 487,485 490,485c3,0 223,-218 490,-485z" vector-effect="non-scaling-stroke"/>
  </g>
  <g id="svg_4" transform="matrix(0 0 0 0 0 0)">
   <g id="svg_5"/>
  </g>
  <g id="svg_6" transform="matrix(0 0 0 0 0 0)">
   <g id="svg_7"/>
  </g>
  <g id="svg_8">
   <g id="svg_9"/>
  </g>
  <g id="svg_10">
   <g id="svg_11"/>
  </g>
  <g id="svg_12">
   <g id="svg_13"/>
  </g>
  <g id="svg_14">
   <g id="svg_15"/>
  </g>
 </g>
</svg>