<svg id="Layer_1" data-name="Layer 1" xmlns="http://www.w3.org/2000/svg" width="185.61" height="32.33" viewBox="0 0 185.61 32.33"><defs><style>.cls-1{fill:#4467b1;}</style></defs><title>mysqlicon</title><path class="cls-1" d="M495.33,1159.9h-6.21v-20.68l-0.3-.07a6.75,6.75,0,0,0-.5.7q-4.77,8.68-9.51,17.37a4.9,4.9,0,0,1-4,2.89,22.24,22.24,0,0,1-4.33-.08,4.76,4.76,0,0,1-3.58-2.78q-4.69-8.58-9.43-17.14c-0.18-.32-0.37-0.63-0.55-0.95l-0.28.09v20.62h-6.27c0-.33,0-0.64,0-0.94q0-9.79,0-19.58c0-2.33.73-3.24,3-3.78a12.73,12.73,0,0,1,6.06-.2,5.33,5.33,0,0,1,3.59,2.82l9,17.08c0.16,0.3.35,0.58,0.6,1a6.14,6.14,0,0,0,.55-0.71c3-5.41,6-10.76,8.84-16.25a7,7,0,0,1,7.55-4.16,20.94,20.94,0,0,1,3,.5c2,0.5,2.75,1.4,2.76,3.51,0,3.11,0,6.21,0,9.32C495.33,1152.23,495.33,1156,495.33,1159.9Z" transform="translate(-450.28 -1135.09)"/><path class="cls-1" d="M599.12,1159.25l5.42,4-0.08.26a52.38,52.38,0,0,1-6.39-.08,5.27,5.27,0,0,1-2.6-1.74c-1.88-1.91-4.12-2-6.61-1.83a99.75,99.75,0,0,1-10.83-.12,13.8,13.8,0,0,1-4.4-1.22,4.67,4.67,0,0,1-3-4.72c0.05-4,.07-8,0-12a4.52,4.52,0,0,1,3-4.71,20.1,20.1,0,0,1,6-1.39c4.67-.2,9.36-0.2,14,0a20.82,20.82,0,0,1,6,1.36,4.58,4.58,0,0,1,3.12,4.78c-0.06,3.81-.09,7.63,0,11.44,0.06,2.55-.71,4.46-3.23,5.41a1.15,1.15,0,0,0-.29.2A2.49,2.49,0,0,0,599.12,1159.25Zm-15.32-6.13,0.09-.3a13.24,13.24,0,0,0,1.85,0,9.46,9.46,0,0,1,8.35,2.73c1,1,2,.71,2.59-0.57a4.07,4.07,0,0,0,.33-1.7c0-3.54,0-7.07,0-10.61,0-2.15-.72-3.08-2.8-3.56a9.14,9.14,0,0,0-2-.24c-3.34,0-6.68,0-10,0a10.22,10.22,0,0,0-2.77.46,2.67,2.67,0,0,0-2.14,3q0,5.36,0,10.72c0,2,.85,3.31,2.86,3.53,2.44,0.27,4.93.19,7.39,0.24a1.84,1.84,0,0,0,.56-0.34Z" transform="translate(-450.28 -1135.09)"/><path class="cls-1" d="M501.31,1167.32v-3.16h1.28c6.17,0,12.34,0,18.51,0a10.72,10.72,0,0,0,2.66-.38c1.53-.41,1.89-1,2-2.64a1.08,1.08,0,0,0-1.33-1.35c-4.16.06-8.33,0.13-12.49,0a39.24,39.24,0,0,1-6.61-1,8.55,8.55,0,0,1-2.71-1.36,3.13,3.13,0,0,1-1.44-2.81c0-3.54,0-7.07,0-10.61a0.8,0.8,0,0,1,1-1c1.41,0,2.83,0,4.24,0,0.82,0,1,.35,1,1.07,0,3.26,0,6.52,0,9.78,0,1.77.49,2.38,2.23,2.76a8.33,8.33,0,0,0,1.75.19c4.4,0,8.8,0,13.2,0,1,0,1.25-.39,1.24-1.31,0-3.73,0-7.47,0-11.2,0-.42,0-0.84,0-1.34H532c0,0.42,0,.83,0,1.24,0,5.66,0,11.32,0,17a4.46,4.46,0,0,1-3,4.6,19.88,19.88,0,0,1-6.14,1.46c-7,.18-14,0.07-21,0.07C501.76,1167.38,501.61,1167.35,501.31,1167.32Z" transform="translate(-450.28 -1135.09)"/><path class="cls-1" d="M555.26,1135.6c3.18,0,6.37.06,9.55,0,1.24,0,1.65.4,1.47,1.55a1.24,1.24,0,0,0,0,.35c0.14,1-.24,1.36-1.3,1.35-4.87-.05-9.75,0-14.62,0a37.73,37.73,0,0,0-4.7.25c-1.56.21-2,.91-2.07,2.49-0.17,3.11.17,4.61,4.59,4.68,3.65,0.05,7.32,0,10.95.31a17.49,17.49,0,0,1,5.28,1.82,2.85,2.85,0,0,1,1.65,3,29.34,29.34,0,0,0,0,3.07,3.58,3.58,0,0,1-1.63,3.21,11.89,11.89,0,0,1-6.76,2.15c-6.41.11-12.82,0.06-19.22,0.09a0.91,0.91,0,0,1-1.09-1.1c0-2,0-2,1.95-2h1.89c5.07,0,10.14-.07,15.21-0.16a5.47,5.47,0,0,0,2-.52,2.1,2.1,0,0,0,1.39-2.24c0-.55,0-1.1,0-1.65,0-1.68-.57-2.44-2.26-2.75a25.8,25.8,0,0,0-3.51-.3c-3.37-.16-6.74-0.27-10.11-0.44a7,7,0,0,1-1.6-.36c-4.56-1.36-5.7-3.21-4.87-7.87a4.17,4.17,0,0,1,2.63-3.39,20.75,20.75,0,0,1,5.54-1.4c3.21-.22,6.44-0.06,9.67-0.06v0Z" transform="translate(-450.28 -1135.09)"/><path class="cls-1" d="M625.6,1160c-3.61-.14-7.22-0.27-10.83-0.43a9.89,9.89,0,0,1-1.63-.26c-4.59-1-5.92-2.63-5.92-7.29,0-5,0-10,0-15,0-1.12.31-1.56,1.46-1.48a26.64,26.64,0,0,0,3.54,0c1-.06,1.26.36,1.26,1.3,0,5.35,0,10.69,0,16,0,2.57.79,3.53,3.38,3.66,3.33,0.16,6.68.15,10,.19,2.48,0,5,0,7.43,0,1.62,0,1.62,0,1.62,1.52s0,1.58-1.67,1.59h-8.61V1160Z" transform="translate(-450.28 -1135.09)"/></svg>