<svg width="240" height="122" xmlns="http://www.w3.org/2000/svg" preserveAspectRatio="xMidYMid meet" version="1.0">

 <g>
  <title>Layer 1</title>
  <g id="svg_1" fill="#000000" transform="translate(0 122) scale(0.1 -0.1)">
   <path stroke="#222055" fill="#222055" id="svg_2" d="m628,1205c-3,-3 -43,-8 -89,-11c-186,-12 -267,-24 -352,-53c-84,-28 -175,-77 -164,-87c3,-3 22,6 44,20c43,28 200,83 259,91c22,3 77,7 124,10c47,3 115,8 151,10c53,4 69,2 79,-10c40,-49 187,-87 277,-73c49,8 63,6 93,-10c39,-22 169,-47 197,-38c10,3 43,-4 73,-15c175,-68 186,-71 221,-65c36,6 106,-17 244,-79c51,-23 57,-29 40,-36c-48,-19 -228,-5 -341,27c-28,8 -62,14 -76,14c-14,0 -40,7 -57,16c-18,9 -57,17 -87,18l-54,1l0,43c0,23 -4,42 -10,42c-5,0 -10,-16 -10,-35l0,-34l-232,1c-197,2 -235,4 -245,17c-10,14 -13,14 -30,1c-15,-13 -50,-15 -208,-12c-382,7 -455,2 -455,-29c0,-8 4,-8 15,1c12,10 117,24 150,20c58,-7 484,-6 498,2c12,6 23,6 32,-2c7,-6 35,-11 62,-11c127,2 417,-9 492,-18c46,-5 87,-15 91,-21c4,-7 23,-14 41,-16c19,-2 63,-10 99,-18c124,-27 212,-35 288,-26c127,16 176,57 139,114c-21,32 -59,40 -102,22l-36,-15l18,30c27,47 67,71 117,71c55,0 102,-24 244,-124c111,-78 166,-108 197,-108c9,0 13,4 10,10c-3,5 -17,10 -30,10c-15,0 -83,40 -166,96c-153,104 -208,133 -253,134c-58,0 -131,-61 -151,-128l-7,-23l34,21c47,28 93,26 114,-5c20,-30 13,-51 -21,-67c-21,-10 -31,-9 -55,5c-16,10 -46,24 -67,32c-21,7 -72,28 -113,45c-56,24 -84,30 -111,26c-37,-6 -97,11 -194,55c-28,12 -74,23 -105,24c-73,4 -164,21 -192,37c-15,8 -62,13 -133,13c-93,0 -118,4 -162,23c-28,13 -61,35 -74,48c-21,22 -49,31 -61,19z"/>
   <path stroke="#222055" fill="#222055" id="svg_3" d="m984,731c-66,-40 -93,-107 -79,-192c15,-86 102,-142 188,-121c32,9 45,7 64,-5c18,-12 27,-13 36,-4c8,8 6,15 -10,26l-21,14l25,48c59,114 -14,253 -131,253c-23,0 -55,-9 -72,-19zm141,-45c33,-33 49,-96 35,-143c-17,-62 -25,-70 -50,-48c-16,14 -23,16 -32,7c-9,-9 -9,-15 0,-24c20,-20 14,-28 -23,-28c-48,0 -80,23 -100,73c-23,57 -13,121 25,159c38,38 109,40 145,4z"/>
   <path stroke="#222055" fill="#222055" id="svg_4" d="m2165,736c-31,-13 -55,-51 -55,-87c0,-35 43,-67 110,-80c92,-18 123,-56 80,-99c-30,-30 -103,-28 -135,5c-14,13 -25,31 -25,40c0,8 -9,15 -20,15c-40,0 -10,-80 37,-98c104,-41 203,-2 203,80c0,44 -36,72 -118,93c-84,20 -104,41 -77,81c29,44 135,25 135,-24c0,-7 11,-12 24,-12c24,0 24,2 14,31c-20,59 -103,86 -173,55z"/>
   <path stroke="#222055" fill="#222055" id="svg_5" d="m60,580c0,-153 1,-160 20,-160c18,0 20,7 20,64l0,64l76,4c69,3 79,6 100,31c36,42 29,110 -15,144c-10,8 -52,12 -108,13l-93,0l0,-160zm174,109c30,-23 33,-45 10,-77c-13,-19 -24,-22 -80,-22l-64,0l0,53c0,30 3,57 7,60c15,16 101,7 127,-14z"/>
   <path stroke="#222055" fill="#222055" id="svg_6" d="m363,632c-23,-59 -51,-131 -62,-159l-21,-53l21,0c15,0 26,13 41,50l21,50l66,0l67,0l18,-50c15,-41 22,-50 41,-50c23,0 23,0 -17,103c-22,56 -50,128 -62,159c-18,49 -25,58 -46,58c-22,0 -29,-11 -67,-108zm92,-2c10,-30 20,-61 23,-67c3,-9 -10,-13 -47,-13c-28,0 -51,3 -51,7c0,21 45,142 51,136c3,-5 15,-33 24,-63z"/>
   <path stroke="#222055" fill="#222055" id="svg_7" d="m610,580c0,-153 1,-160 20,-160c18,0 20,7 20,70l0,70l63,0c75,0 97,-16 97,-72c0,-52 9,-68 36,-68c21,0 23,3 14,26c-6,14 -10,41 -10,60c0,20 -8,42 -20,54c-15,15 -17,21 -6,27c40,24 47,93 11,128c-22,23 -31,25 -125,25l-100,0l0,-160zm190,110c22,-22 23,-25 14,-57c-8,-29 -51,-45 -110,-41l-49,3l-3,44c-5,66 -1,71 68,71c47,0 64,-4 80,-20z"/>
   <path stroke="#222055" fill="#222055" id="svg_8" d="m1260,618c0,-104 3,-128 20,-155c35,-59 152,-68 203,-17c31,31 37,62 37,190l0,104l-25,0l-25,0l0,-125c0,-112 -2,-127 -20,-145c-26,-26 -89,-27 -121,-1c-23,18 -24,27 -27,145c-3,116 -5,126 -23,126c-18,0 -19,-8 -19,-122z"/>
   <path stroke="#222055" fill="#222055" id="svg_9" d="m1590,580l0,-160l110,0c103,0 110,1 110,20c0,19 -7,20 -90,20l-90,0l0,55l0,55l85,0c69,0 85,3 85,15c0,12 -16,15 -85,15l-85,0l0,55l0,55l90,0c73,0 90,3 90,15c0,12 -19,15 -110,15l-110,0l0,-160z"/>
   <path stroke="#222055" fill="#222055" id="svg_10" d="m1830,725c0,-11 12,-15 50,-15l50,0l0,-145l0,-145l25,0l25,0l0,145l0,145l50,0c38,0 50,4 50,15c0,13 -21,15 -125,15c-104,0 -125,-2 -125,-15z"/>
   <path stroke="#222055" fill="#222055" id="svg_11" d="m360,260l0,-50l38,0l37,0l-1,-42c-1,-42 -2,-43 -38,-46l-36,-3l0,-55l0,-54l260,0c224,0 260,2 260,15c0,20 56,20 64,0c8,-23 566,-23 566,0c0,10 10,15 29,15c16,0 31,-6 35,-15c4,-13 36,-15 195,-15c210,0 201,-3 201,71c0,38 1,39 35,39l35,0l0,50l0,50l-34,0c-34,0 -35,1 -38,43l-3,42l-802,3l-803,2l0,-50zm1590,-5l0,-45l40,0c40,0 40,0 40,-39c0,-39 -1,-40 -37,-43c-37,-3 -38,-4 -41,-45l-3,-42l-790,0l-789,0l0,34c0,34 1,35 40,35l41,0l-3,58l-3,57l-37,3c-36,3 -38,5 -38,38l0,34l790,0l790,0l0,-45z"/>
   <path stroke="#222055" fill="#222055" id="svg_12" d="m796,252c-2,-4 4,-8 15,-8c10,0 19,4 19,8c0,4 -6,8 -14,8c-8,0 -17,-4 -20,-8z"/>
   <path stroke="#222055" fill="#222055" id="svg_13" d="m654,205c-23,-35 -9,-76 29,-89c23,-8 31,-6 49,12c12,12 19,24 15,28c-3,4 -15,-4 -26,-17c-27,-32 -55,-16 -59,34c-3,32 0,37 23,43c15,4 32,1 42,-7c14,-12 16,-12 11,1c-2,8 -19,16 -36,18c-24,3 -34,-2 -48,-23z"/>
   <path stroke="#222055" fill="#222055" id="svg_14" d="m772,218c-19,-19 -14,-73 8,-93c47,-43 112,25 76,79c-18,28 -63,35 -84,14zm62,-4c32,-12 15,-94 -20,-94c-20,0 -44,30 -44,54c0,37 27,54 64,40z"/>
   <path stroke="#222055" fill="#222055" id="svg_15" d="m888,223c20,-4 22,-10 22,-60c0,-31 3,-53 7,-49c4,4 6,27 4,51c-2,39 1,46 21,54c19,8 13,10 -27,9c-27,0 -40,-3 -27,-5z"/>
   <path stroke="#222055" fill="#222055" id="svg_16" d="m974,216c-3,-7 -4,-33 -2,-57c3,-44 3,-44 43,-45c32,-1 34,-1 8,3c-27,3 -33,9 -33,28c0,19 6,24 33,28l32,4l-32,1c-25,2 -33,7 -33,21c0,15 8,21 33,24c31,4 31,4 -6,5c-24,1 -40,-3 -43,-12z"/>
   <path stroke="#222055" fill="#222055" id="svg_17" d="m1132,173c3,-55 4,-58 31,-61c42,-5 56,13 54,66l-2,47l-43,3l-43,3l3,-58zm73,27c0,-18 -43,-26 -57,-12c-16,16 2,33 30,30c16,-2 27,-9 27,-18zm3,-52c2,-12 -5,-19 -23,-24c-31,-8 -50,7 -41,31c8,22 60,16 64,-7z"/>
   <path stroke="#222055" fill="#222055" id="svg_18" d="m1251,174c-12,-32 -19,-59 -16,-63c3,-3 8,5 12,17c7,30 59,31 68,1c4,-11 9,-18 12,-15c7,7 -37,116 -47,116c-4,0 -17,-25 -29,-56zm48,-6c1,-5 -8,-8 -19,-8c-23,0 -24,4 -8,33c11,21 11,21 19,2c4,-11 8,-23 8,-27z"/>
   <path stroke="#222055" fill="#222055" id="svg_19" d="m1344,215c-8,-21 3,-33 43,-50c30,-13 33,-17 23,-30c-16,-19 -35,-19 -54,1c-9,8 -16,12 -16,7c0,-31 58,-44 80,-18c18,22 6,41 -34,55c-20,6 -36,16 -36,21c0,16 32,23 51,11c26,-16 34,-15 19,3c-16,19 -69,20 -76,0z"/>
   <path stroke="#222055" fill="#222055" id="svg_20" d="m1456,214c-21,-21 -20,-67 2,-87c10,-9 33,-16 53,-15c33,1 34,3 37,43c2,29 -3,48 -13,59c-21,20 -59,21 -79,0zm78,-26c8,-23 6,-31 -12,-49c-42,-38 -90,9 -62,61c17,31 62,24 74,-12z"/>
   <path stroke="#222055" fill="#222055" id="svg_21" d="m1563,185c8,-70 44,-97 81,-59c18,17 23,104 6,104c-5,0 -10,-22 -10,-49c0,-54 -9,-66 -40,-56c-16,5 -20,15 -20,56c0,28 -5,49 -11,49c-6,0 -9,-17 -6,-45z"/>
   <path stroke="#222055" fill="#222055" id="svg_22" d="m1680,170l0,-60l43,1l42,2l-35,6c-26,4 -36,12 -38,28c-3,18 3,22 30,26l33,4l-32,1c-25,2 -33,7 -33,21c0,15 8,21 38,24l37,4l-42,1l-43,2l0,-60z"/>
   <path stroke="#222055" fill="#222055" id="svg_23" d="m1070,160c0,-5 9,-10 21,-10c11,0 17,5 14,10c-3,6 -13,10 -21,10c-8,0 -14,-4 -14,-10z"/>
  </g>
 </g>
</svg>