<svg id="Layer_1" data-name="Layer 1" xmlns="http://www.w3.org/2000/svg" width="85.45" height="41.32" viewBox="0 0 85.45 41.32"><defs><style>.cls-1{fill:#4467b1;}</style></defs><title>phpicon</title><path class="cls-1" d="M342.85,1168.44l0.39-2,1.64-8.29,1.63-8.26,1.63-8.26q0.57-2.89,1.14-5.79a0.25,0.25,0,0,1,.29-0.24c4.89,0,9.77,0,14.66,0a11.53,11.53,0,0,1,6.22,1.75,7.52,7.52,0,0,1,3.28,4.73,13.34,13.34,0,0,1,.25,4.29,15.36,15.36,0,0,1-1.42,5.42,14.18,14.18,0,0,1-6.31,6.59,12.57,12.57,0,0,1-4.21,1.39c-0.8.11-1.61,0.1-2.42,0.14h-7.43l-0.44,2.29-1.14,6a0.19,0.19,0,0,1-.21.19H343Zm13-26.7-2,12.13h0.31c1.18,0,2.36,0,3.54,0a16.22,16.22,0,0,0,1.9-.13,7.89,7.89,0,0,0,2.94-1,6.29,6.29,0,0,0,2.79-3.72,14.44,14.44,0,0,0,.61-3.43,3.23,3.23,0,0,0-2-3.36,6.35,6.35,0,0,0-2.57-.52c-1.74,0-3.48,0-5.22,0h-0.26Z" transform="translate(-288.59 -1127.14)"/><path class="cls-1" d="M296.3,1168.44h-7.7l0.31-1.58,1.68-8.52,1.44-7.27,1.64-8.29q0.69-3.47,1.37-6.94a0.22,0.22,0,0,1,.27-0.22h2.22c4.1,0,8.2,0,12.3,0a12.64,12.64,0,0,1,5.33,1.17,7.64,7.64,0,0,1,4.39,5.59,13.72,13.72,0,0,1,.2,3.85,15.25,15.25,0,0,1-1.43,5.57,14.17,14.17,0,0,1-6.41,6.65,12.54,12.54,0,0,1-4.13,1.34,22.47,22.47,0,0,1-2.42.13c-0.8,0-1.61,0-2.41,0h-4.75a0.25,0.25,0,0,0-.3.25q-0.75,4-1.52,8C296.34,1168.29,296.32,1168.36,296.3,1168.44Zm3.25-14.58h0.33c1.19,0,2.38,0,3.57,0a11.88,11.88,0,0,0,2.37-.23,6.31,6.31,0,0,0,5.26-4.71,15.54,15.54,0,0,0,.57-3.27,3.15,3.15,0,0,0-1.38-3,5.55,5.55,0,0,0-3.16-.88c-1.76,0-3.53,0-5.3,0h-0.24Z" transform="translate(-288.59 -1127.14)"/><path class="cls-1" d="M318.27,1159.94c0.08-.41.15-0.8,0.23-1.19l1.6-8.08,1.45-7.31,1.91-9.67q0.62-3.15,1.24-6.3a0.26,0.26,0,0,1,.31-0.25h7.46l-1.61,8.48h0.31c2.26,0,4.52,0,6.79,0a12,12,0,0,1,5.14,1.17,5.68,5.68,0,0,1,2.89,2.93,6.22,6.22,0,0,1,.28,3.53l-0.88,5.14-1,6c-0.3,1.78-.61,3.57-0.91,5.35a0.2,0.2,0,0,1-.25.2H335.5l-0.22,0,0.4-2.13,1.3-6.88c0.4-2.12.81-4.25,1.2-6.38a6.63,6.63,0,0,0,.08-1.47,1.11,1.11,0,0,0-.8-1,5.15,5.15,0,0,0-1.45-.28c-2.07,0-4.15,0-6.22,0h-0.16l-0.39,1.94-1.82,9.11q-0.69,3.47-1.39,6.94a0.22,0.22,0,0,1-.26.22h-7.28Z" transform="translate(-288.59 -1127.14)"/></svg>