<?xml version="1.0" encoding="utf-8"?>
<!-- Generator: Adobe Illustrator 18.0.0, SVG Export Plug-In . SVG Version: 6.00 Build 0)  -->
<!DOCTYPE svg PUBLIC "-//W3C//DTD SVG 1.1//EN" "http://www.w3.org/Graphics/SVG/1.1/DTD/svg11.dtd">
<svg version="1.1" id="Layer_1" xmlns="http://www.w3.org/2000/svg" xmlns:xlink="http://www.w3.org/1999/xlink" x="0px" y="0px"
	 viewBox="0 0 287.4 281.1" enable-background="new 0 0 287.4 281.1" xml:space="preserve">
<g>
	<path fill="none" stroke="#000000" stroke-miterlimit="10" d="M102.8,26.3c20.3-15.4,56.2-30.6,95.8,9.6
		c4.9,4.9,8.6,10.8,11.2,17.2c5.6,14,11.7,39.6-4.2,63.1c0,0-4.9,7.7-15.4,14.8c0,0-18.1,12.2-19.7,17.5c0,0,8.6,14.3,19.4,13.6
		c0,0,7.7,2.8,29.9-9.9s52-12.4,57.6,4.2c0,0,5.7,11.6-5.4,16.5c0,0-5.9,3.4-12-6.3c-2.2-3.5-6-5.5-10.1-5.5
		c-6.4,0.1-17,2.2-32.2,11.1c0,0-26.2,12-38.3,3.7c0,0,11.1,14.8,47.2,8.3s44.5,18.8,44.5,18.8s15.2,33.4-23,47.4
		c0,0-7.7,1.7-10.3-5.7c-2.6-7.4,5.7-10.3,5.7-10.3s12.4-2.4,14.3-16.3c1.9-13.9-13.1-17.6-13.1-17.6s-11.3-2.1-27.7,1.9
		s-45.3-3.3-60.3-29.3c0,0-1.6,30.7,22.2,34.3s49.8,7.6,46.4,37c-2.8,23.9-25.5,25.9-33.7,25.8c-2,0-4-0.4-5.9-1.2
		c-6.4-2.6-20.9-10.2-18-25.6c0.6-3.3,2.7-6.4,5.8-7.8c2.3-1.1,5.2-1.4,8,1.2c2.1,2,3.1,4.9,2.9,7.9c-0.3,3.3,0.9,8.5,10.5,9.3
		c14.2,1.2,17.9-14.8,11.1-22.2c0,0-3.1-4.3-24.4-6.8s-29.9-11.7-36.7-26.6c0,0-9.5,18.3-28.3,22.3s-15.9,3.3-26.4,5.8
		c-5.6,1.3-8.3,6-9.3,10.5c-1.3,5.6,0.4,11.5,4.8,15.2c1.5,1.2,3.2,2.1,4.9,2c0,0,13,2.1,12.5-8.1c0,0-2.1-11.3,10-12.3
		c12-0.9,6.3,20.1,6.3,20.1s-5.9,16-22.6,16.6s-24.4-7.4-31.5-18.5c-7.1-11.1-3.4-34.2,16.4-39.8c15.1-4.3,25.7-5.3,28.6-6.2
		c4.3-1.2,9.4-2.8,10.5-3.4c7.7-4.3,11.7-3.5,11.9-29.6c0,0-17,24.6-30.5,26.4c-0.7,0.1,2.4-0.6-1.9,0.4c-3.6,0.9-17.2,5.4-37.1,0.9
		c-23.2-5.2-30.9,6.9-31.2,15c-0.2,6.8,4.2,12.4,5.7,14.1c0.3,0.3,0.6,0.6,1,0.9c1,0.7,3.4,2.2,5.2,3c2.5,1.1,4.8,2.9,6,5.4
		c1.4,2.9,1.7,6.8-3.1,10.7c-9.6,7.7-27.5-15.1-27.5-15.1s-13.9-19.1,3.7-42c0,0,7.6-14.2,44.4-8.2s43.6-9.9,43.6-9.9
		s-9.3,9.4-31.2,1.1s-45.1-21.9-50.6-10.5c-5.6,11.4-12.1,8.3-12.1,8.3s-7.4-1.7-4.9-11.5s12.4-15.7,12.4-15.7s11.1-8,29.9,0
		c18.8,8,25.6,10.2,29,11.7s22.3,8.3,35.9-10.3c0,0-13.7-15.1-22.5-22c-7.6-6-23.7-22.7-22-49.5C76.1,56.7,86.8,38.5,102.8,26.3z"/>
	<g>
		<circle cx="130" cy="132.6" r="6.5"/>
		<circle cx="147.3" cy="132.6" r="6.5"/>
	</g>
</g>
</svg>
