<svg id="Layer_1" data-name="Layer 1" xmlns="http://www.w3.org/2000/svg" viewBox="0 0 240.98 46.62"><defs><style>.cls-1{fill:#4467b1;}</style></defs><title>stackicon</title><path class="cls-1" d="M758.74,1517.85c-0.89,2.8-1.78,5.59-2.65,8.39s-1.76,5.68-2.6,8.54a0.87,0.87,0,0,1-1,.76c-3,0-3,.06-3.92-2.74l-2.81-8.45c-0.22.54-.36,0.85-0.47,1.17-1,3.08-2.06,6.15-3.06,9.24a0.94,0.94,0,0,1-1.06.78c-2.93,0-2.93,0-3.78-2.73l-4.72-15.39c1.56,0,3,0,4.49,0a1.21,1.21,0,0,1,.56.8c0.83,3.07,1.63,6.14,2.43,9.22,0,0.18.12,0.35,0.29,0.81l2.2-6.65c0.39-1.19.75-2.39,1.21-3.55a1.26,1.26,0,0,1,.9-0.65c2.58-.14,2.58-0.12,3.38,2.28s1.64,4.94,2.47,7.4c0.11,0.34.27,0.67,0.47,1.18,0.91-3.48,1.78-6.75,2.6-10a1,1,0,0,1,1.16-.9c1.28,0.08,2.57,0,3.86.05v0.41Z" transform="translate(-517.76 -1496.07)"/><path class="cls-1" d="M542.46,1496.07a7.85,7.85,0,0,0,.56,1q5.76,7.75,11.54,15.49c0.12,0.16.22,0.33,0.42,0.62l-3.31,2.46-12.65-17,3.24-2.62h0.2Z" transform="translate(-517.76 -1496.07)"/><path class="cls-1" d="M678.71,1530.11l2.62,2.76a8.72,8.72,0,0,1-7.94,2.76c-4.45-.49-6.85-3.06-7.18-7.63a14,14,0,0,1,.57-5.72,7.3,7.3,0,0,1,7.59-5.08,7.21,7.21,0,0,1,7.18,5.75,44.83,44.83,0,0,1,.54,4.85H670.66a3.51,3.51,0,0,0,1.72,3.43C674.67,1532.42,676.77,1531.86,678.71,1530.11Zm-1.41-5.45a3.15,3.15,0,0,0-3.19-3.64,3.2,3.2,0,0,0-3.36,3.64h6.55Z" transform="translate(-517.76 -1496.07)"/><path class="cls-1" d="M732.68,1526.54c0.07,2.4,0,4.79-1.76,6.69-2.26,2.46-5.11,2.94-8.19,2.12a6.35,6.35,0,0,1-5-5.83,31.55,31.55,0,0,1,0-6.27,6.6,6.6,0,0,1,6-5.94,11.52,11.52,0,0,1,3.92.26c3,0.76,4.86,3.33,5,6.63C732.71,1525,732.68,1525.76,732.68,1526.54Zm-10.75-.14a26.64,26.64,0,0,0,.43,3.21,2.9,2.9,0,0,0,5.48,0,11.65,11.65,0,0,0,0-6.31,2.66,2.66,0,0,0-2.74-2,2.63,2.63,0,0,0-2.74,2A26.34,26.34,0,0,0,721.92,1526.39Z" transform="translate(-517.76 -1496.07)"/><path class="cls-1" d="M649.76,1526.45a35.29,35.29,0,0,1-.39,3.63,7.15,7.15,0,0,1-7.74,5.62c-4.32-.26-7-2.95-7.18-7.28a28.8,28.8,0,0,1,.07-4.77c0.52-4.13,3.54-6.58,7.73-6.44,4.44,0.14,7.17,2.92,7.39,7.51,0,0.57,0,1.15,0,1.73h0.11Zm-4.63.41c-0.06-1.17-.09-2-0.15-2.79a3.38,3.38,0,0,0-.2-0.79,2.76,2.76,0,0,0-2.75-2,2.63,2.63,0,0,0-2.75,2,11.51,11.51,0,0,0,0,6.31,2.57,2.57,0,0,0,2.82,2,2.6,2.6,0,0,0,2.72-2.13A21.07,21.07,0,0,0,645.14,1526.87Z" transform="translate(-517.76 -1496.07)"/><path class="cls-1" d="M658.13,1528.06c1.06-3.24,2.14-6.47,3.16-9.72a1.12,1.12,0,0,1,1.35-1c1.21,0.08,2.43,0,3.78,0l-1.68,4.58c-1.55,4.22-3.11,8.44-4.64,12.67a1.08,1.08,0,0,1-1.21.88c-2.65,0-2.65,0-3.56-2.45l-5.47-14.85c-0.08-.22-0.14-0.44-0.27-0.83,1.53,0,3,0,4.4,0a1.2,1.2,0,0,1,.62.76c1,3,2,6,3,9,0.1,0.31.22,0.62,0.33,0.92Z" transform="translate(-517.76 -1496.07)"/><path class="cls-1" d="M706.49,1521.29h-3.23v14.1h-4.53v-1q0-9.4,0-18.8a4.83,4.83,0,0,1,4.72-5.18c1-.08,2,0,3,0v3.55c-1,.32-2.27.35-2.86,1s-0.36,1.81-.52,2.91h3.39v3.48Z" transform="translate(-517.76 -1496.07)"/><path class="cls-1" d="M616.61,1510.41h2.5v15.24l1.89-1.8c1.51-1.46,3.08-2.87,4.49-4.42a3.55,3.55,0,0,1,3.36-1.36,5.38,5.38,0,0,0,.89,0l-6,5.93,7.36,11.45a25.36,25.36,0,0,1-2.84,0,1.55,1.55,0,0,1-.84-0.75c-1.57-2.49-3.11-5-4.66-7.51-0.19-.31-0.4-0.62-0.73-1.12-1,1-1.88,1.94-2.73,2.93a1.58,1.58,0,0,0-.21.94c0,1.79,0,3.59,0,5.47h-2.52v-25Z" transform="translate(-517.76 -1496.07)"/><path class="cls-1" d="M595.83,1525.47a2,2,0,0,0,.08-0.32c0-1.81.16-3.72-1.94-4.59-1.78-.73-5.09-0.75-6.49,1.13l-0.31.42-1.7-1.67a5,5,0,0,1,3-2.16,11.16,11.16,0,0,1,6.41.09c2.43,0.76,3.58,2.36,3.65,5.35,0.09,3.66,0,7.32,0,11a0.63,0.63,0,0,1-.76.78c-0.57,0-1.14,0-1.77,0l-0.15-1.48c-2,1.78-4.27,1.9-6.65,1.58a5,5,0,0,1,.3-9.95c1.89-.12,3.79-0.06,5.69-0.08C595.41,1525.53,595.6,1525.5,595.83,1525.47Zm0.16,2.14c-2.22,0-4.24,0-6.27,0a2.31,2.31,0,0,0-.78.22,2.73,2.73,0,0,0-1.74,2.72,2.49,2.49,0,0,0,1.88,2.58,7.59,7.59,0,0,0,4.59,0,2.77,2.77,0,0,0,2.07-2.27C595.9,1529.82,595.91,1528.77,596,1527.61Z" transform="translate(-517.76 -1496.07)"/><path class="cls-1" d="M708.8,1510.4h4.35c0,0.4.05,0.79,0.05,1.18q0,8.74,0,17.47c0,2.34.2,2.54,2.53,2.59,0.23,0,.46,0,0.75.07v3.76a11.2,11.2,0,0,1-4.9-.44,4.33,4.33,0,0,1-2.85-4.09c-0.07-6.74,0-13.47,0-20.21A1.46,1.46,0,0,1,708.8,1510.4Z" transform="translate(-517.76 -1496.07)"/><path class="cls-1" d="M684.14,1535.46v-18h4.34l0.11,1.47a6.71,6.71,0,0,1,4.37-1.75,5.36,5.36,0,0,1,4.24,1.56l-3.45,3.41a1.11,1.11,0,0,1-.21-0.15,2.9,2.9,0,0,0-4.82,2.22c0,3.32,0,6.64,0,10,0,0.4,0,.8,0,1.25h-4.53Z" transform="translate(-517.76 -1496.07)"/><path class="cls-1" d="M560.82,1533.12l1.76-1.57a8,8,0,0,0,7.63,1.57,2.75,2.75,0,0,0,2.13-1.84,2.38,2.38,0,0,0-2.07-3.27c-1.27-.18-2.56-0.27-3.84-0.4-3-.3-4.69-1.72-4.83-4a4.84,4.84,0,0,1,4.2-5.46,10.38,10.38,0,0,1,8.09,1.36l0.35,0.2-1.76,1.68a8,8,0,0,0-6-1.13,2.64,2.64,0,0,0-2.28,3.33c0.27,1,1.12,1.65,2.55,1.79s2.77,0.23,4.14.42c2.32,0.32,3.68,1.54,4.05,3.52a4.88,4.88,0,0,1-2.47,5.34C569.14,1536.54,563.36,1535.81,560.82,1533.12Z" transform="translate(-517.76 -1496.07)"/><path class="cls-1" d="M547.44,1520.86l-1.75,3.75-19.26-9,1.74-3.75Z" transform="translate(-517.76 -1496.07)"/><path class="cls-1" d="M531.8,1506.18l2.65-3.18,16.34,13.59-2.65,3.18Z" transform="translate(-517.76 -1496.07)"/><path class="cls-1" d="M544.43,1530l-20.73-4.35,0.79-4,5.59,1.16c4.69,1,9.38,2,14.09,2.93,0.89,0.18,1.23.42,0.92,1.38A28.37,28.37,0,0,0,544.43,1530Z" transform="translate(-517.76 -1496.07)"/><path class="cls-1" d="M523.29,1535.23a1.88,1.88,0,0,1-.08-0.37c0-1.14.06-2.29,0.09-3.43,1.1-.06,2.2-0.17,3.31-0.18,5.52,0,11,0,16.57,0,1,0,1.4.27,1.29,1.31a26.19,26.19,0,0,0,0,2.69H523.29Z" transform="translate(-517.76 -1496.07)"/><path class="cls-1" d="M612.24,1522.06a4.72,4.72,0,0,0-4.84-1.76,4.35,4.35,0,0,0-3.79,3.74,15.75,15.75,0,0,0,0,5.52c0.81,3.84,5.17,5.07,8.1,2.44l0.66-.59,1.72,1.64a6.92,6.92,0,0,1-6,2.64,7.15,7.15,0,0,1-7.19-6.66,18.42,18.42,0,0,1,.23-5.52,6.58,6.58,0,0,1,5.21-5.37,7.3,7.3,0,0,1,7.71,2.3Z" transform="translate(-517.76 -1496.07)"/><path class="cls-1" d="M577.1,1512.85h2.47v5.62h4.7c-1.22,1.63-2.38,3-4.66,2.33,0,1.71,0,3.23,0,4.74s0,3.25,0,4.88c0,2.14.62,2.78,2.76,2.86l0.75,0.05a0.64,0.64,0,0,1,.09.14c0.28,2,.27,2-1.68,2-2.69,0-4.47-1.58-4.49-4.19-0.06-6,0-12,0-18A2.54,2.54,0,0,1,577.1,1512.85Z" transform="translate(-517.76 -1496.07)"/><rect class="cls-1" y="28.2" width="2.18" height="18.42"/><rect class="cls-1" x="0.31" y="44.54" width="31.5" height="2.07"/><rect class="cls-1" x="29.97" y="28.2" width="2.18" height="18.42"/></svg>