<svg id="Calque_1" data-name="Calque 1" width="23mm" height="21.85mm" viewBox="0 0 65.21 61.93"><title>mp</title><g><path class="cls-1" d="M1603.85,5237.67c0,2-.07,4-0.17,6a14,14,0,0,0,6.17-4,12,12,0,0,0,0-15.8,14.32,14.32,0,0,0-7.72-4.5,65.23,65.23,0,0,1,1.34,9.13C1603.73,5231.51,1603.85,5234.59,1603.85,5237.67Z" transform="translate(-1560.68 -5205.56)"></path><path class="cls-1" d="M1560.69,5205.56v61.92h65.21v-61.92h-65.21Zm18.51,41.34a64.58,64.58,0,0,1-1.37,9.23,64,64,0,0,1-1.37-9.23c-0.26-3.08-.37-6.16-0.37-9.23s0.12-6.16.38-9.23a65.71,65.71,0,0,1,1.36-9.23,64.94,64.94,0,0,1,1.37,9.23c0.26,3.08.37,6.16,0.38,9.23S1579.46,5243.82,1579.2,5246.9Zm14.75-17.34c-0.81,1.24-1.68,2.42-2.58,3.58l-0.93,1.19-1.32-1.16a58,58,0,0,1-6.25-6.42c-1-1.15-1.87-2.34-2.71-3.58a28.56,28.56,0,0,1-2.31-4,30.15,30.15,0,0,1,3.89,2.52q1.82,1.37,3.48,2.89a58.08,58.08,0,0,1,5.19,5.43c0.68-.6,1.35-1.21,2.07-1.78a33.69,33.69,0,0,1,3.71-2.58A32.8,32.8,0,0,1,1594,5229.56Zm17.84,11.94a12.19,12.19,0,0,1-8.16,2.93c0,0.83-.08,1.65-0.15,2.48a64.16,64.16,0,0,1-1.37,9.23,64.16,64.16,0,0,1-1.37-9.23q-0.38-4.62-.37-9.23c0-3.08.12-6.16,0.37-9.23a66.26,66.26,0,0,1,1.35-9.14h0a11.2,11.2,0,0,1,9.7,2.63A12.84,12.84,0,0,1,1611.79,5241.5Z" transform="translate(-1560.68 -5205.56)"></path></g></svg>