<?xml version="1.0" encoding="utf-8"?>
<!-- Generator: Adobe Illustrator 19.2.0, SVG Export Plug-In . SVG Version: 6.00 Build 0)  -->
<svg version="1.1"
	 id="svg2" inkscape:version="0.48.4 r9939" sodipodi:docname="trucksvg.svg" xmlns:cc="http://creativecommons.org/ns#" xmlns:dc="http://purl.org/dc/elements/1.1/" xmlns:inkscape="http://www.inkscape.org/namespaces/inkscape" xmlns:rdf="http://www.w3.org/1999/02/22-rdf-syntax-ns#" xmlns:sodipodi="http://sodipodi.sourceforge.net/DTD/sodipodi-0.dtd" xmlns:svg="http://www.w3.org/2000/svg"
	 xmlns="http://www.w3.org/2000/svg" xmlns:xlink="http://www.w3.org/1999/xlink" x="0px" y="0px" viewBox="0 0 1557.6 899.9"
	 style="enable-background:new 0 0 1557.6 899.9;" xml:space="preserve">
<style type="text/css">
	.st0{fill:none;stroke:#1F1C4C;stroke-width:3.0254;}
	.st1{fill:none;stroke:#1F1C4C;}
	.st2{fill:none;stroke:#1F1C4C;stroke-width:2.5998;}
	.st3{fill:none;stroke:#1F1C4C;stroke-width:2.574;}
	.st4{fill:none;stroke:#1F1C4C;stroke-width:2.774;}
	.st5{fill:none;stroke:#1F1C4C;stroke-width:3.674;}
	.st6{display:none;}
	.st7{display:inline;opacity:0.5233;fill:#C80000;stroke:#DE0000;stroke-width:0.1027;enable-background:new    ;}
	.st8{display:inline;fill:none;stroke:#000000;stroke-width:2.574;}
</style>
<sodipodi:namedview  bordercolor="#666666" borderopacity="1" fit-margin-bottom="0" fit-margin-left="0" fit-margin-right="0" fit-margin-top="0" gridtolerance="10" guidetolerance="10" id="namedview4" inkscape:current-layer="svg2" inkscape:cx="464.76637" inkscape:cy="532.08115" inkscape:guide-bbox="true" inkscape:pageopacity="0" inkscape:pageshadow="2" inkscape:snap-bbox="true" inkscape:window-height="744" inkscape:window-maximized="1" inkscape:window-width="1366" inkscape:window-x="0" inkscape:window-y="24" inkscape:zoom="0.45" objecttolerance="10" pagecolor="#ffffff" showgrid="false" showguides="true">
	</sodipodi:namedview>
<g id="g10" transform="scale(1,-1)" inkscape:groupmode="layer" inkscape:label="ink_ext_XXXXXX">
	<path id="rims"  class="st0" d="M1291.7-530.8c46.7,1.4,92.5-27.6,111.1-70.3
		c19.8-42.2,11.8-95.6-19.7-130.2c-31.9-37-87.9-51-133.3-32.4c-43.5,16.6-75,59.8-76.8,106.3c-2.9,47.1,24.9,94.4,67.6,114.4
		C1256.4-535.3,1274-531.1,1291.7-530.8L1291.7-530.8z M1291.5-548.4c39.7,1.2,78.7-23.5,94.5-59.8c16.8-35.9,10-81.4-16.8-110.8
		c-27.2-31.5-74.8-43.4-113.4-27.5c-37,14.1-63.8,50.9-65.3,90.4c-2.4,40,21.2,80.3,57.5,97.3
		C1261.5-552.3,1276.4-548.6,1291.5-548.4z M332.1-541.9c46.7,1.4,92.5-27.6,111.1-70.3c19.8-42.2,11.8-95.6-19.7-130.2
		c-31.9-37-87.9-51-133.3-32.4c-43.5,16.6-75,59.8-76.8,106.3c-2.9,47.1,24.9,94.4,67.6,114.4C296.8-546.4,314.4-542.2,332.1-541.9
		L332.1-541.9z M332-559.5c39.7,1.2,78.7-23.5,94.5-59.8c16.8-35.9,10-81.4-16.8-110.8c-27.2-31.5-74.8-43.4-113.4-27.5
		c-37,14.1-63.8,50.9-65.3,90.4c-2.4,40,21.2,80.3,57.5,97.3C302-563.4,316.9-559.7,332-559.5L332-559.5z"/>
	
		<path id="painting"  inkscape:label="painting" sodipodi:nodetypes="ccccccscsssssccscc" class="st1" d="
		M64.7-180.6l517,16.9l21.2,121.4l31.7,13l367-6l193-118.4c0,0,283.4,11.2,317.7-39.9c27.2-40.6,37.4-164,37.4-164s-36-4.7-37.1,1.3
		c-40,213.2-353.2,200.7-450.6-27.1c-1.6-3.7-488.9-3.1-488.9-3.1C511-231,402.6-230.2,319.8-233.1
		c-74.3-2.5-146.8-57.3-184.5-109.7c-1.5-2.1-72.3,1.9-72.3,1.9l-0.7,36.1c0,0,38.8-5.5,38.9,47.5c0.1,44.4-35.5,53.9-35.5,53.9
		L64.7-180.6z"/>
	<path id="frame"  inkscape:label="#path16" class="st2" d="M517.1-449.3c-0.1-0.6-0.1-1.2-0.2-1.9
		c8.9-0.1,17.9-0.3,26.8-0.4c0,0.6,0,1.1,0,1.7C534.8-449.7,525.9-449.5,517.1-449.3L517.1-449.3z M803.8-593.6
		c2.3,4.5,0.4,10.4-4,12.6c-4.2,2.1-10.5,0.1-12.8-4.1c-2.4-4.5-0.3-10.8,4.4-13C796.4-600.4,801.3-598.6,803.8-593.6z M868.8-601.4
		c4.5-2.1,10.6,0.2,12.5,4.6c2,4.7-0.1,10.5-4.5,12.6c-4.8,2.3-10.5,0.1-12.8-4.9C861.9-593.9,863.9-599.2,868.8-601.4z
		 M1288.5-323.7c-0.3-15.6-0.7-30.3-1-45.7c3.1,0,5.6,0.1,8.2,0.1c0.3,15.5,0.6,30.3,0.9,45.3
		C1293.9-323.9,1291.7-323.8,1288.5-323.7L1288.5-323.7z M1310.9-407.8c0.9,27.6,1.8,54.7,2.7,82c-2.7-0.1-4.6-0.2-6.7-0.2
		c-0.9-26-1.7-51.6-2.7-77.2C1303.9-408.4,1307.2-407.6,1310.9-407.8L1310.9-407.8z M1269.5-417c0.2,29,0.4,57.9,0.6,87.1
		c-2.7-0.2-4.6-0.3-6.7-0.5c-0.3-29.6-0.6-58.7-1-88.1C1265.2-417.9,1267.2-417.5,1269.5-417L1269.5-417z M352.6-243.9
		c-5.5,1.2-5.5-1.9-5.6-5.2c-0.9-42.7-1.8-85.5-2.8-128.2c-0.1-4.4,1.7-5,5.5-3.4C350.7-335.2,351.7-289.6,352.6-243.9z M553.2-9
		c1.3-6.4,3.7-12.8,3.7-19.3c0.2-29.4-0.1-58.9-0.7-88.3c-0.3-13.7-1.7-27.4-2.6-41.1c0.8-0.3,1.6-0.6,2.4-1c0.9,1.7,2.6,3.3,2.7,5
		c1.6,30.7,3.2,61.5,4.5,92.2c0.6,13.2,1,26.3,1,39.5C564.2-14,560.3-10,553.2-9L553.2-9z M1262.8-277c-0.2-14.2-0.3-27.4-0.5-40.9
		c7-0.1,13.1-0.2,19.7-0.3c0.2,13.8,0.4,27.2,0.6,40.8C1275.7-277.3,1269.5-277.2,1262.8-277z M1324-278.3
		c-6.8,0.1-13.1,0.3-19.8,0.4c-0.2-14-0.4-27.2-0.6-40.9c6.9-0.1,13.2-0.3,19.7-0.4C1323.5-305.5,1323.7-292.4,1324-278.3
		L1324-278.3z M336.4-407.4c0.2,1.8,0.5,2.8,0.5,3.9c1,49.9,1.8,99.7,2.9,149.6c0.1,5-2.4,4.6-5.9,4.3c-0.6-48.9-1.3-97.5-1.8-146
		c-0.1-4.8,0.1-9.3-6.2-11.1C329.2-406.9,332.4-407.1,336.4-407.4L336.4-407.4z M371-250.6c-0.7-51.3-1.4-102.2-2.1-153.3
		c-2.5-1-4.8-1.8-7.1-2.7c0.1-0.3,0.1-0.7,0.2-1c3.7-0.1,7.4-0.3,11.8-0.5c0.2,13.6,0.4,26.7,0.6,39.8c0.7,37.4,1.5,74.8,2.3,112.2
		C376.8-252.5,377-248.9,371-250.6L371-250.6z M642.3-395.1c-4.4-0.1-8.3-0.2-12.2-0.4c-0.3-3-0.4-5.2-0.6-7.4
		c-2.3-20.6-7.7-26.9-27.7-32.8c-1.2-0.4-2.6-1.7-3-2.9c-1-2.8-1.4-5.9-2.1-8.8C623.8-450.7,642.9-428.9,642.3-395.1L642.3-395.1z
		 M930.3-518c0.2-0.5,0.5-1,0.7-1.5c30.8,17.5,61.6,34.9,92.4,52.4c-0.2,0.6-0.4,1.1-0.7,1.7c-90.1-2.4-180.1-4.7-270.2-7.1
		c0-0.6,0-1.3,0-1.9c82.5,0.5,164.9,1,247.4,1.5c0.1-0.4,0.2-0.9,0.3-1.3C976.9-488.8,953.6-503.4,930.3-518L930.3-518z
		 M1254.4-369.5c0.3,15.2,1,30.1,0.6,44.9c-0.1,2.4-4.6,5-7.5,7c-0.9,0.6-3.5,0.2-4.4-0.7c-13.8-13.6-27.5-27.2-41-41
		c-1.1-1.2-2.1-4-1.4-5.1c1.4-2.2,3.8-5.3,5.9-5.3C1222.3-370,1238-369.7,1254.4-369.5L1254.4-369.5z M1401.5-368.8
		c0.1,0.5,0.2,1.1,0.4,1.6c-19.1,15.9-38.2,31.8-57.3,47.7c-4.1,3.4-14.6-0.5-14.8-5.8c-0.6-14.6-0.7-29.2-0.9-44
		C1353.5-369.1,1377.5-369,1401.5-368.8z M1078.3-368.5c0.6-0.7,1.1-1.3,1.7-2c27.5,0.2,55.1,0.3,83.7,0.5
		c-15,20.9-29.3,40.9-44.7,62.4C1104.9-328.7,1091.6-348.6,1078.3-368.5z M535.6-47.6c-0.4,0.5-0.9,1.1-1.3,1.6
		C431.2-86.4,328.1-126.7,225-167.1c8.7-1.5,17.1-1.9,25.5-1.8c3.2,0,6.7,0.7,9.7,1.9c44.7,18.7,89.3,37.7,134,56.5
		C439-91.6,483.9-72.9,528.8-54C531.5-52.8,533.3-49.8,535.6-47.6z M1536.1-258c-5.3,17.2-10.1,33.4-15.3,49.5
		c-0.6,2-2.9,4.8-4.5,4.9c-14.6,0.9-29.3,1.5-43.9,1.7c-4,0.1-7.3-2.3-7.8-6.9c-1.4-14,2.1-26.2,13.6-35.1
		C1494.8-256.7,1514.6-257.1,1536.1-258L1536.1-258z M77.8-216.8c-1.8-2.4-2.9-5.1-4.9-6.3c-5.8-3.4-8.3-8.7-9.5-14.7
		c-2.2-11.4-4.1-23-6.1-34.4c-0.6,12.8,0.1,25.4,1.2,38.1c0.8,9.6,6.6,15.6,15.6,19.4c-4.6,0.6-9.3,1.2-13.3-0.1
		c-8.7-3-11.9-10.6-12.4-19c-0.7-13.1-0.7-26.3-0.8-39.5c0-3.5,0.4-7.2,1.4-10.5c1.9-6.4,12.5-15.8,17-15.1
		c14.1,2.4,25.6,5.7,27.2,25.8c0.9,12,0.7,24.1-0.1,36C92.6-227.3,87.2-220.2,77.8-216.8L77.8-216.8z M559.5-377.7
		c-14.9,34.6-33.7,64.7-62.9,89.2c-0.1-7.8,0.6-14.3-0.3-20.6c-1.3-8,4.4-17.4-4.6-24c-0.5-0.3-0.4-1.7-0.3-2.6
		c0.3-14.2,0.7-28.5,1.1-43.2C514.5-378.5,536.3-378.1,559.5-377.7L559.5-377.7z M470-268.6c-0.8-0.2-1.6-0.4-2.5-0.6
		c-15.7-36.6-31.4-73.2-47.7-111.1c20.5,0.4,39.5,0.8,58.6,1.2c0.2,14.9,0.5,29,0.4,43c0,1.7-2,3.4-3.1,5.1
		c-1.5,17.8-1.5,36.1-2,54.4C473.7-273.9,471.3-271.3,470-268.6L470-268.6z M382.8-380.7c6.1,0.1,11.4-2.4,14.7,5.1
		c16.3,37,33.1,73.8,49.6,110.7c0.7,1.5,0.9,3.3,1.5,5.4c-20.2,8.6-40.9,12.5-62.9,14.9C384.8-290.3,383.8-335.1,382.8-380.7z
		 M314.1-245.3c-31.2,0-59.9-6.6-86.4-22.3c0.8-1.6,1.4-2.8,2.1-3.9c21.3-34.3,42.8-68.5,63.6-103.1c4.5-7.5,9.6-9.4,17.8-6.7
		C312.2-336.3,313.1-291.2,314.1-245.3L314.1-245.3z M1190-349.7c16.3,14.1,31.9,27.7,47.5,41.4c0.9,0.8,1.5,2.5,1.5,3.8
		c0,9.8-0.8,19.7,0.1,29.4c0.5,5.4,2.9,11.3,6.1,15.8c5.2,7.4,13.6,9.4,22.7,9.3c0.7,11.6,1.4,22.8,2.2,34.5
		c-6.2-1.3-11.8-2.1-17.1-3.6c-41-11.1-76.3-32.2-107-61.4c-2.7-2.6-3.1-4.1-0.9-7.1C1159.9-308,1174.6-328.4,1190-349.7L1190-349.7
		z M533.6-79.4c-79.8-28.7-158.5-56.9-237.2-85.2c0.1-0.5,0.2-1,0.3-1.5c77.2,2.3,154.5,4.7,232.1,7
		C530.4-132.7,532-106.7,533.6-79.4z M1311.1-251.1c2.7,0,6,0,9.3-0.2c16.6-0.9,26.8-11.5,26.7-28c-0.1-8-0.8-16-0.7-24
		c0-2,1.3-4.6,2.9-5.8c12.7-9.8,25.5-19.5,38.4-29c9.6-7.1,19.3-14.1,29.5-21.5c19.8,23.8,39.3,47,58.5,70.4c1,1.2,0.6,4.7-0.5,6.2
		c-10.8,15.6-24.6,28.1-40.5,38.3c-27.2,17.5-57.5,26.2-89.2,30.2c-10.2,1.3-20.6,1.8-31.6,2.8c0-11.8,0.1-22.2-0.2-32.7
		C1313.4-246.5,1312-248.6,1311.1-251.1z M623.2-35.8c-16.8-3.6-23.2-9.9-25.6-26.6c-4.1-28.9-7.9-57.8-11.9-86.7
		c-0.8-5.5,0.2-13.2-3-15.8c-3.6-3-11-1.7-16.7-1.8c-67.8-2-135.7-3.9-203.5-6c-57.8-1.8-115.6-3.8-173.4-5.6
		c-39.5-1.2-79-2.3-118.5-3.6c-1.9-0.1-5.3-1.7-5.4-2.9c-0.7-7-0.6-14.1-0.8-21c3.6-0.7,6.2-1,8.7-1.8c12.8-4,23.9-10.3,26.1-24.9
		c2.3-15.7,3.3-31.5-0.2-47.3c-2.9-13.2-10.9-21.1-24-24c-3.9-0.9-7.8-1.6-12.4-2.5c0-11.8,0.1-23.5,0.1-35.5
		c23.9-0.9,46.8-1.7,69.8-2.4c2,0,4.9,1.3,5.9,2.9c11.6,17.9,25.3,34,40.6,48.7c27,25.9,57.9,45.2,95,52.2
		c33,6.2,66.6,6.8,100.1,5.5c26.5-1.1,52.3-6,77-15.9c43.6-17.6,75.6-48.4,98.8-88.6c8.7-15.1,15.8-31,24.1-47.3
		c11.4,0.1,24,0.2,36.8,0.3c-13.5,58.1-14.7,171.3-7.8,190.8c0.3-12.9,0.4-24.5,0.8-36.1c1-26.3,1.5-52.7,3.5-78.9
		c1.8-22.7,5.6-45.2,8.5-67.8c0.8-6,3.7-8.2,10.3-8.1c45.8,0.7,91.5,0.9,137.3,1.3c48.2,0.4,96.3,0.9,144.5,1.3
		c49.6,0.5,99.1,1.1,148.7,1.5c5,0,7.2,1.8,9.4,6.1c6.8,13.1,13.6,26.2,21.4,38.7c14.7,23.3,32.2,44.3,52.2,63.3
		c30.6,29.2,65.4,51.2,106.5,62.1c65,17.2,127.6,10.3,186.7-21.8c29-15.8,50.3-39.6,64.4-69.6c8.1-17.4,12.9-35.7,15.2-55.4
		c10.8-0.1,21.3-0.3,33.4-0.4c-3.1,32-6,63.2-8.8,92.2c-17.6,3.6-33.6,5.4-48.7,10.3c-22.6,7.4-33.9,26.1-30.5,49.5
		c0.8,5.6,3.7,10,9.3,11c7.2,1.4,14.5,2.3,21.8,2.3c7.9,0.1,15.8-1,25.7-1.7c-3.9,4.3-6.1,7.7-9.1,10.1c-12,9.6-26.8,12-41.1,15
		c-47.3,9.8-95.4,13.1-143.5,15.2c-40.3,1.7-80.8,1.9-121.1,3c-3.6,0.1-7.6,1.1-10.6,2.9c-12.5,7.4-24.7,15.2-37,23
		c-16.6,10.5-33.1,21.3-49.8,31.6c-25,15.3-50,30.5-75.2,45.4c-12.5,7.4-25,14.1-40.4,14.4c-41.7,0.7-83.3,2.9-125,3.4
		c-65.6,0.8-131.2,0.7-196.8,0.8c-11.3,0-22.6-0.7-33.3-1.1c-8.8-43-17.4-84.9-25.9-126.9c-0.9,0.2-1.7,0.3-2.6,0.5
		C610.1-117.7,616.7-76.7,623.2-35.8L623.2-35.8z M918.3-587.5c49.1-9.1,98.1-18.2,147.4-27.3c0.6-6.7,0.6-12.3-6-15.9
		c-1.8-1-3.1-4.1-3.4-6.5c-0.7-4.6-0.5-9.3-0.8-14.9c-12.1,2.2-23.9,4.2-35.6,6.4c-46.5,8.6-92.8,17.8-139.4,25.6
		c-14.6,2.4-29.8,0.8-44.7,1.2c-16.1,0.4-32.1,0.8-48.2,1.4c-2.8,0.1-6.2,0.5-8.3,2c-5.7,4-10.8,2.5-16.8,0.7
		c-44.9-13.5-89.9-26.7-134.9-40c-15.7-4.6-31.3-9.3-46.9-13.9c-2.8-0.8-5.6-1.5-9.1-2.4c-0.2,3-0.6,5.6-0.4,8.1
		c0.5,5.4-1.1,9-5.6,13c-3.4,3-3.6,9.8-5.4,15.7c67.9,19.9,134.5,39.5,201.8,59.3c0.1,6.1,0.6,13,0.2,19.8c-0.1,1.9-2.7,4.4-4.7,5.4
		c-24.3,12.8-48.8,25.4-73.2,38.1c-18.8,9.8-37.5,19.9-56.4,29.5c-3.2,1.7-7.2,2.5-10.9,2.6c-47.1,1.7-94.1,3.2-141.2,4.7
		c-2,0.1-4,0.2-6.6,0.4c-0.3,1.8-0.5,3.7-0.8,6c1.3,0.1,2.1,0.3,2.9,0.3c30.1,0,60.3-0.4,90.4,0.1c18.5,0.3,29.3,9.3,32.4,27.5
		c2.1,12.2,1.8,24.8,2.7,37.3c0.5,6-1.5,8.9-7.9,7.6c-1.5-0.3-3.1-0.2-4-0.3c-0.8-12.7-1.4-25.1-2.5-37.4c-0.3-3.7-1.8-7.4-3-10.9
		c-2.6-7.3-7.6-11.1-15.7-11.1c-25.7,0.1-51.3-0.2-77,0c-2.9,0-5.7,1.7-10.3,3.1c16.1,5.2,30.6,7.7,45.6,7.2
		c13.6-0.4,27.2-0.7,40.8-1.6c11.3-0.8,11.8-0.7,14.1,11.6c-29.4,2.3-58.8,5.2-88-0.6c-6.1-1.2-12-4.7-17.5-8
		c-2.1-1.3-2.7-5.1-4.1-7.7c0.5-0.6,1.1-1.2,1.6-1.8c-3.8-0.8-7.6-1.9-11.4-2.4c-6-0.6-12.4-2-18.2-0.9c-7.9,1.5-15.6,4.9-23.2,7.8
		c-0.9,0.3-1,3.1-1.2,4.8c-0.9,10.7-1.6,21.3-2.5,32.9c-11.4-0.1-22.5-0.1-33.5-0.2c-0.3-9.2-0.6-17.7-0.9-26.1c-0.8,0-1.6,0-2.3,0
		c0,8.5,0,17-0.1,26c-6.4,0-12.6,0-19.3,0c-0.3-6.1-0.6-11.8-0.8-17.6c-0.6,0-1.2,0-1.8,0c-0.2,2.7-0.6,5.3-0.7,8
		c-0.1,2.9,0,5.8,0.1,9.4c-4.1,0.1-8,0.1-12.3,0.2c-0.4-5-0.7-9.6-1.1-14.2c-0.7,0-1.3,0-2,0.1c-0.2,4.5-0.3,8.9-0.5,14.1
		c-6.4,0-12.7,0-19.2,0c-0.4-8.1-0.7-15.5-1-23c-0.8,0-1.6,0.1-2.5,0.1c0.1,6.1,0.1,12.1,0.2,18.2c0.1,3.6-1,4.9-5,4.9
		c-32.8-0.4-65.6-0.5-98.4-0.7c-13.6-0.1-27.2,0.2-40.8-0.4c-3.4-0.1-6.8-2.9-10-4.8c-25.8-15.5-51.6-31.1-77.4-46.8
		c-5.1-3.1-9.7-3.2-14.9,0.2c-17.6,11.4-35.5,22.4-53.1,33.8c-2.7,1.8-5.1,4.4-7.2,7c-4,5-2.2,9.2,4.2,9.3
		c5.5,0.1,11.2-0.6,16.5-2.1c7.7-2.1,15.1-5.5,22.8-7.9c2.1-0.7,5.3-0.6,7.1,0.5c17.4,11,34.4,22.5,51.9,33.2
		c4,2.5,9.5,3.5,14.3,3.6c48,1.2,95.9,2.1,143.9,3.1c2.7,0.1,5.3,0,9.2,0c-23.4,34.5-46.3,68.4-70,103.5
		c-10.6-9.6-21.7-18-30.7-28.1c-11.9-13.5-22.2-28.4-33.4-42.5c-1.3-1.6-3.7-3.5-5.6-3.4c-27.6,0.9-55.3,2.2-83.7,3.4
		c-0.1,12.7-0.3,25.4-0.3,38.1c0,5.9-0.7,10.7-6.3,14.9c-5.9,4.5-8.8,11.8-8.7,19.6c0.2,15.4,0.6,30.8,1.1,46.1
		c0.3,8.8,4,16.1,11.2,21.2c3.9,2.7,4.7,6,4.7,10.2c0.1,8.7,0.4,17.3,0.6,26.7c16.8,0.5,33.2,1.1,49.7,1.6
		c30.1,0.9,60.3,1.5,90.4,2.8c5.6,0.2,11.3,2.6,16.6,4.7c43.6,16.9,87.1,34.1,130.6,51.1C406-89,468.2-64.5,530.5-40.3
		c3.9,1.5,4.7,3.5,4.9,7.3c0.3,5.3,1,10.7,2.1,15.9c2.4,10.8,8.3,16.2,16.2,15.5c8.8-0.7,16.9-9.6,17.3-19.3
		c0.2-6.9-0.1-13.8-0.4-20.7c-1.7-37.4-3.5-74.9-5.2-112.3c-0.1-1.1,0.2-2.2,0.3-3.2c10.2-1.2,10-1.2,11.4,8.9
		c3.8,29.2,7.8,58.3,11.5,87.5c2.1,16.3,11,25.9,26.2,32.2c14.3,5.9,28.8,5.8,43.4,6c50.4,0.4,100.9,0.8,151.3,0.2
		c56-0.7,111.9-3,167.9-3.4c23.1-0.1,42.3-8.9,61.2-20.3c25.6-15.5,51.4-30.7,76.9-46.5c19.4-12,38.3-24.6,57.5-36.9
		c7.1-4.6,14.3-9.1,21.7-13.4c1.8-1,4.2-1.2,6.4-1.2c66.1,0.1,132.1-1.8,197.9-8.2c31.1-3,62-7,92-16.4
		c17.7-5.6,29.5-16.6,36.8-33.5c11.2-25.7,16.6-52.9,19.9-80.5c3.3-28.1,5.1-56.4,7.7-86.1c-17.8,0.4-34.1,0.7-50.9,1
		c-1.9,18.4-4.3,36.4-12.7,54.2c-18.1-18.3-35.6-36-54.5-55.1c10-0.1,18.3-0.3,26.5-0.1c16.6,0.2,16.7,0.3,21.1-15.6
		c1.3-4.7,2.5-9.5,3.1-14.4c1-8.6-0.3-10.5-8.7-11.9c-25.1-4.3-50.3-8.2-75.4-12.2c-9.7-1.5-19.5-3.9-29.2-3.8
		c-7.5,0.1-15.1,3.1-22.4,5.3c-4.2,1.3-7.4,1.5-10.9-1.9c-1.7-1.7-5.1-2.3-7.7-2.3c-4,0-8.1,0.5-11.8,1.7c-2.9,0.9-5.3,3.1-7.9,4.8
		c-2.6,1.6-5,4.1-7.8,4.5c-5.5,0.8-11.1,0.9-16.7,0.5c-2.4-0.2-5.4-1.6-6.9-3.5c-3-3.8-6.5-5.8-11.3-5.6c-7.1,0.2-15.3-4.2-20.7,4.6
		c-0.5,0.8-3.4,0.3-5.1,0c-5-1.1-9.9-2.9-15-3.6c-4.2-0.6-5.8-3-7.4-6.6c-1.1-2.4-3.5-4.7-5.9-6c-3.7-1.9-8.2-2.5-11.9-4.5
		c-4.9-2.6-9.3-4-14.2-0.2c-0.9,0.7-2.9,1.3-3.7,0.9c-7.2-4.6-14.1-9.4-21.2-14.1c-1.7-1.1-3.7-2.2-5.7-2.4
		c-35.5-4.6-70.9-9.4-106.4-13.4c-9.4-1.1-16.8-5.7-24.6-9.9c-28.8-15.3-57.5-30.9-86.2-46.4c-1.3-0.7-2.6-1.5-3.6-3.3
		c2.7,0.8,5.4,1.6,9.1,2.8c-1.2-7.7-2.4-15-3.6-22.7c17.1-4.2,33.9-8.3,51.4-12.6c0.8,3,1.1,6,2.4,8.4c1.4,2.5,4,4.3,6,6.4
		c1.1-2.8,2.4-5.6,3.3-8.6c0.3-1.1-0.4-2.5-0.7-4.3c21.8-4.4,43.4-8.7,64.7-12.9c-9.2-6.8-7.1-18.3-11.8-27.7
		c-18.8,4.3-38.3,8.8-56.3,13c-3.5-3.5-6.3-6.2-9-8.9c-1.5,4.4-3.1,8.8-4.6,13.1c0.6,0.6,1.2,1.1,1.8,1.7
		c-16.9,4-33.9,8.1-51.1,12.2c-0.6-3.9-1-6.7-1.5-9.5c-1.8-9.9-1.8-9.8-11.9-9.5c-3.2,0.1-6.4-0.2-9.7-0.3c-2.9,1.7-5.8,3.3-8.5,5.2
		c-5.8,3.9-4,10.3-5.4,15.8c-2.4,9-2.4,17.2,6.1,23.6c-2.9-1-5.7-2.1-7.8-3.8c-2.1-1.8-5-4.2-5.2-6.5c-0.8-8.4-0.4-16.9-0.9-25.3
		c-0.2-3.7,1.2-5.1,4.6-5.7C906.9-585.2,912.6-586.4,918.3-587.5	">
<title  id="title3215">frame</title>
	</path>
	
		<path id="backwheel"  inkscape:label="#path18" sodipodi:nodetypes="ccccccccccccccsccccccccccccccccccccccccccccccccccccccccccccccccccccccccccccccccccccccccccccccccccccccccccccccccccccccccccccccccccccccccccsc" class="st3" d="
		M338.4-468.5c-1.9-7,2.8-6.5,6.8-6.8c35-1.9,67.2-12.6,95.6-33c51.9-37.4,79.2-88.3,80.7-152.6c0.1-5.3,1.9-6.6,6.6-5.3
		C531-558.8,442.9-469.6,338.4-468.5L338.4-468.5z M329.4-850.8c-51.6,2.4-95.7,21.3-131.3,58.3c-35.7,37.2-52.4,82.2-52.5,133.8
		c-2.3-0.2-4.2-0.3-6-0.5c-2.8-71.9,39.1-146.2,112.9-180.5c24.2-11.2,49.9-17.1,77-17.5C329.4-854.5,329.4-852.8,329.4-850.8
		L329.4-850.8z M223.1-608.4c-29.6-59.1-7.4-133.9,56.6-165.3c61.9-30.3,134.6-4.4,164.7,55.9c30.6,61.2,5.2,135.4-56,165.6
		C326.9-521.8,253.3-546.9,223.1-608.4L223.1-608.4z M203.5-851c-1.3,2.5-2,5.6-3.9,7.5c-3.8,3.7-8,7.1-12.5,9.9
		c-2.5,1.6-6,1.8-9,2.7c-2.9,0.9-6.2,1.5-8.7,3.2c-3,2.1-5.8,4.9-7.8,8c-1.5,2.2-2.7,5.4-2.5,8c0.4,4.2,0.1,7.7-2.9,11
		c-2.7,2.9-5.1,6.2-7.3,9.6c-2.4,3.9-5.1,6.3-10.2,6c-1.8-0.1-4.4,1.8-5.6,3.6c-2.5,3.7-4.5,7.7-6.3,11.8c-0.6,1.4-1,3.8-0.3,4.9
		c3.9,5.2,2.3,9.9-0.4,14.9c-1.9,3.5-3.2,7.4-4.3,11.2c-1.5,5.2-4.1,8.6-9.3,11.2c-3,1.6-4.3,7.1-5.8,11c-2,5.3-3.5,10.7,2.7,14.9
		c1.1,0.8,1.7,3.1,1.6,4.7c-0.4,6.4-1.1,12.9-1.9,19.3c-0.2,1.4-1,3.5-2,3.9c-8.8,3.6-6.3,11-6.5,17.7c-0.2,5.9,0.3,11,6.7,13.7
		c1.2,0.5,2.3,2.6,2.6,4.1c1.1,6.1,2.1,12.3,2.7,18.5c0.2,2-0.4,4.4-1.6,6c-6.1,8.6-1.9,23.1,7.8,27.4c2.3,1,4.2,3.7,5.4,6
		c2.3,4.6,3.7,9.6,6.1,14.2c2.4,4.6,3.5,8.6,1.1,13.7c-2.7,5.8,7.3,20.4,13.7,20.5c4.3,0.1,7,1.4,9.3,5.1c1.9,3.2,4.5,6.1,7.1,8.8
		c3.6,3.6,5.3,7.4,3.7,12.6c-0.5,1.6,0.7,4.2,2,5.6c3.3,3.6,6.8,7.1,10.6,10.2c1.6,1.3,4.5,2.2,6.4,1.8c4.6-1,8.1-0.3,11.6,3
		c2.6,2.4,5.6,4.4,8.7,6.2c4.3,2.6,7.1,5.7,7,11.1c0,1.7,1.6,4,3.1,5.1c3.2,2.4,6.7,4.6,10.4,6c2.3,0.9,5.8,1.1,7.9,0
		c4.1-2.2,7.4-1.8,11.3,0.1c4.6,2.3,9.4,4.1,14.3,5.7c5,1.7,9.8,3,10.2,9.6c0.1,1.1,1.8,2.6,3.1,2.9c4.9,1.5,9.9,2.8,15,3.7
		c1.7,0.3,4.3-0.5,5.3-1.8c3.3-4.2,7.2-4.4,12-3.5c4.6,0.9,9.3,0.8,14,1.5c1.6,0.2,4,0.7,4.6,1.9c3.4,6.4,8.9,6.8,15.2,6.7
		c6.8-0.1,13.5,0.5,16.8-7.5c0.5-1.1,2.8-1.7,4.4-2c5-0.9,10.1-2.1,15.2-2.2c3.4-0.1,6.8,1.8,10.3,2.5c3,0.6,6.2,1.5,9,1
		c7.3-1.3,15.3-1.9,17-11.8c0.2-1.4,2.9-2.5,4.6-3.4c6.5-3,13-5.9,19.7-8.6c1.7-0.7,3.9-0.8,5.6-0.2c10.7,3.5,22.5-3.6,24.2-14.6
		c0.3-1.8,1.2-3.9,2.5-5.1c4.5-4,9.2-7.8,14.1-11.3c1.8-1.3,4.5-2.1,6.7-2c10.4,0.7,21.5-11,20.3-21.5c-0.2-1.8,0.2-4.1,1.1-5.6
		c3.4-5.2,7.1-10.3,11-15.1c1.2-1.5,3.4-2.8,5.3-3.2c10.4-1.8,17.8-14.9,13.9-24.5c-0.8-2-0.9-4.8-0.2-6.8
		c1.8-5.3,4.5-10.2,6.2-15.5c1.8-5.5,3.4-10.5,10.4-11.2c1.1-0.1,2.4-2.5,2.9-4c1.3-4.5,2.3-9.1,3.1-13.7c0.2-1.4,0-3.7-0.8-4.2
		c-7-4-4.7-10.2-4-16c0.4-3.8,0.7-7.6,1.4-11.3c0.3-1.6,0.9-3.8,2.1-4.5c10.7-6.5,5.1-16.6,5.9-25.3c0.1-0.9-0.8-2.5-1.6-2.7
		c-8.4-2.9-7.5-10.3-8.5-16.9c-0.4-2.6-1.5-5.2-1.5-7.9c0-2.4,0.2-5.9,1.7-7.1c5.8-4.8,2.9-10.2,1.6-15.3c-1.4-5-1.8-11.4-9.5-11.7
		c-1.4-0.1-3.2-1.7-3.9-3.1c-3.4-7-6.7-14.1-9.6-21.4c-0.7-1.8-0.7-4.4,0-6.2c3.6-9.8-4.4-23.2-14.5-24.3c-2.1-0.2-4.5-1.6-6-3.2
		c-3.1-3.2-5.5-7-8.5-10.3c-3.3-3.6-5.4-7.2-4-12.5c0.5-2-1-5.1-2.5-6.9c-2.8-3.4-6.2-6.5-9.6-9.3c-1.5-1.2-4.2-2.6-5.7-2.1
		c-6,2.2-10.2-0.2-14.4-4c-2.8-2.5-6.3-4.3-9-6.9c-1.8-1.8-3.8-4.4-4-6.7c-0.3-4.6-2.1-7.4-6.3-9.2c-3.3-1.4-6.2-3.7-9.5-4.9
		c-1.8-0.7-4.7-1-6.1,0c-4.3,3-8.1,2.3-12.5,0.2c-4.4-2.2-9-4.1-13.7-5.4c-4.9-1.4-8.2-3.8-9.8-8.9c-0.5-1.7-2.8-3.4-4.6-4
		c-4.2-1.4-8.6-2.4-13-3.1c-1.6-0.3-4.2,0.3-5.1,1.4c-3.6,4.3-7.9,4.9-13.1,3.8c-4.1-0.9-8.5-0.6-12.6-1.6c-2.7-0.7-5.1-2.8-7.6-4.2
		c-2.7-1.5-5.3-3.8-8.2-4.2c-4.3-0.6-8.9-0.2-13.3,0.3c-1.8,0.2-4.3,1.2-4.9,2.5c-2.8,5.7-7.5,7.2-13.2,7.1c-0.9,0-1.8,0.3-2.6,0.4
		c-8,1.6-16.3,4.2-21.6-5.2l-32.3,6.8c0.3,0.1-0.2,14.9-20.2,15.8C217.5-867.5,203.5-851,203.5-851L203.5-851z	">
<title  id="title3177">backwheel</title>
	</path>
	<path id="frontwheel"  inkscape:label="#path20" class="st3" d="M1098.7-647.4
		c-3.5-112.7,92.8-198.7,189.7-197.3c0.1,1,0.3,2.1,0.2,3.1c0,0.8-0.3,1.6-0.5,2.4c-106.7,4-185.8,92.2-183.8,192.2
		C1102.4-647.1,1100.5-647.3,1098.7-647.4L1098.7-647.4z M1487.3-655.1c2.8,111.3-89.6,198.8-189.7,198.1c-0.1-0.8-0.4-1.7-0.4-2.5
		c0-1,0.1-2,0.3-3.4c51.5-2.1,95.6-21,131-57.9c35.6-37.1,52.8-82.1,52.6-133.7C1483.3-654.7,1485.1-654.9,1487.3-655.1
		L1487.3-655.1z M1234.2-759.4c56.4-31.3,134.4-12.7,168.1,51.3c28.4,54.1,14.2,126.8-46,163.2c-56,33.9-131.3,19.1-168.4-41.1
		C1149.6-648,1172.7-726.4,1234.2-759.4z M1072.1-717.8c-1.7,3-4.1,5.8-5,9c-2.1,7-5.5,14.2,2.6,20.3c2.8,2.1-2.1,26.8-5.4,28.5
		c-4.4,2.2-5.1,5.7-4.8,10c0.2,2.7,0.3,5.4,0.3,8c-0.1,4.7,1,8.4,5.7,10.8c1.9,1,3.2,4,3.8,6.3c1.1,4.5,1,9.3,2.1,13.8
		c1.2,4.6,0.6,8.1-2.8,11.6c-1.2,1.2-1.9,3.8-1.6,5.6c0.6,4,1.7,7.9,3,11.7c0.7,2,1.9,5.2,3.3,5.4c9.2,1.5,10.3,9.4,13.4,15.8
		c1.6,3.4,3.4,6.8,4.6,10.4c0.7,2.1,1.1,4.8,0.4,6.8c-3.1,9.5,4.8,22.5,14.5,24c2.3,0.4,4.7,2.1,6.4,3.8c2.9,3,5.1,6.8,8,9.8
		c3.6,3.6,5.2,7.4,3.8,12.6c-0.5,1.7,0.6,4.3,1.9,5.8c2.6,3.1,5.9,5.5,8.5,8.4c2.8,3.1,5.5,4.3,9.9,3.3c2.7-0.6,6.2,0.9,8.9,2.4
		c3.5,1.9,6.4,4.9,9.8,6.9c4.3,2.6,7.2,5.5,7,11.1c0,1.7,1.6,4,3.2,5.2c3.4,2.5,7.1,4.7,11,6.4c2,0.8,5,1.1,6.7,0.1
		c4.7-2.7,8.7-2.1,13.2,0.1c4.2,2.1,8.6,3.9,13.1,5.2c5.1,1.4,9,3.3,9.9,9.3c0.2,1.3,2.1,3,3.5,3.4c4.9,1.5,9.9,2.6,15,3.6
		c1.3,0.2,3.5-0.3,4.2-1.3c3.9-5.9,9.4-4.7,15-3.8c3.5,0.6,7.2,0.4,10.6,1.3c2.6,0.7,5.6,2,7.3,4.1c2.7,3.2,5.2,5.1,9.6,4.6
		c3.7-0.5,7.7,0,11.3-0.7c2.5-0.5,4.7-2.4,7-3.8c3.2-1.9,6.3-4.4,9.8-5.6c3.5-1.2,7.5-1,11.1-1.8c4.6-1,8.5-0.9,12.1,3
		c1.3,1.4,4.4,1.7,6.5,1.5c3.9-0.5,8-1.4,11.6-3c2.3-1,5.1-3.3,5.6-5.6c1.2-4.5,3.9-6.6,7.8-8.2c6.2-2.4,12.3-5.3,18.6-7.7
		c1.5-0.6,3.4-0.5,5-0.3c2.7,0.4,6,2.4,8,1.5c5.5-2.4,10.4-6,15.5-9.2c0.4-0.3,0.7-1.2,0.7-1.7c-1.3-14,12.7-15.5,19-23.2
		c0.6-0.7,2.5-0.5,3.8-0.4c11.2,0.8,22.2-10.6,21.1-21.4c-0.2-2.1,0.7-4.7,1.9-6.6c2.3-3.8,5.6-7,7.8-10.9c2.6-4.6,6-6.8,11.3-7
		c1.6-0.1,3.6-1.3,4.5-2.7c2.6-3.9,5-7.9,7-12.2c0.8-1.7,1.1-4.6,0.2-6.1c-3-4.6-2.5-8.5-0.1-13.1c2.1-3.9,3.5-8.2,4.8-12.5
		c1.5-5.2,3.5-9.5,9.7-10.5c1.4-0.2,3-2.5,3.5-4.1c1.3-4,2.4-8.2,2.8-12.4c0.2-2.4-0.6-5.6-2.1-7.3c-2.8-3.1-3.8-6.1-3-10.3
		c0.8-3.9,1.5-8,1.5-12c0-5.2,1.9-8.8,6.3-11.6c1.4-0.9,2.5-3.2,2.6-4.9c0.3-4.9,0.2-9.8-0.3-14.7c-0.2-2.1-1.6-4.9-3.3-5.9
		c-4.6-2.5-6-6.2-6.3-10.9c-0.3-3.8-0.6-7.6-1.6-11.2c-1.2-4.2-0.8-7.4,2.5-10.8c1.6-1.6,2-5.2,1.6-7.7c-0.7-4.4-2.2-8.7-3.8-12.8
		c-0.6-1.5-2.6-3-4.2-3.4c-5.3-1.2-7.8-4.3-9.3-9.3c-1.2-4.3-3.1-8.5-5.3-12.3c-2.9-4.8-4.2-9.1-0.4-14.1c0.9-1.1,0.5-3.9-0.3-5.4
		c-1.9-3.8-4-7.5-6.7-10.8c-1.4-1.8-4-3.6-6-3.6c-5,0-8.3-1.9-10.8-6.2c-1.8-3-4.4-5.6-6.7-8.3c-3.1-3.5-4.9-7.1-3.7-12.1
		c0.4-1.9-0.8-4.7-2.2-6.4c-2.4-3.1-5.6-5.7-8.3-8.7c-2.7-2.9-5.5-3.5-9.5-2.9c-2.9,0.4-6.3-0.6-9-2c-3.9-2.1-7.1-5.5-10.9-7.8
		c-4-2.4-6.1-5.3-5.9-10.2c0-1.7-1.6-4-3.2-5.1c-3.6-2.6-7.5-4.9-11.6-6.7c-1.7-0.8-4.6-1-6.1-0.1c-4.8,3.2-9.1,2.3-13.7-0.1
		c-3.8-1.9-7.7-3.6-11.8-4.7c-5.2-1.5-9.3-3.7-10.9-9.4c-0.5-1.6-2.8-3.2-4.7-3.8c-4-1.4-8.2-2.5-12.4-3c-2-0.2-4.9,0.5-6.3,1.8
		c-3.3,3.3-6.7,4.5-11.4,3.3c-3.6-0.9-7.5-1.1-11.3-1.2c-4.7-0.1-8.4-1-11.1-5.7c-1.1-1.9-4.6-3.1-7.2-3.4
		c-3.5-0.5-7.1,0.4-10.7,0.3c-4.2-0.1-6.9,1.3-9.3,4.9c-1.5,2.2-4.6,3.6-7.3,4.4c-3.8,1.1-7.9,1.1-11.9,2c-5,1.1-9.5,1.6-13.4-3
		c-1-1.1-3.7-1.6-5.3-1.2c-4.8,1-9.5,2.5-14.1,4.1c-1.1,0.4-2.8,1.4-2.9,2.3c-0.7,7.9-7.2,9.4-12.7,11.9c-3.9,1.8-7.5,4.1-11.6,5.3
		c-3.1,0.9-7.1,1.5-9.8,0.3c-3.9-1.6-6.7-1.3-9.9,0.8c-3.2,2.1-6.6,3.9-9.5,6.3c-1.5,1.2-3.1,3.6-3,5.3c0.4,5.6-2.6,8.6-6.7,11.2
		c-2.4,1.6-4.7,3.4-6.8,5.4c-3.8,3.8-7.6,6.3-13.5,4.5c-1.7-0.5-4.6,1.1-6.2,2.6c-3.5,3.1-6.6,6.6-9.6,10.2c-1,1.2-2.3,3.5-1.8,4.5
		c2.8,6.5-0.6,11-4.3,15.6c-2.4,3-4.2,6.4-6.8,9.1c-1.6,1.7-4,3.3-6.3,3.7c-5.7,1.1-15.6,12.6-15.3,18.5c0,0.4,0.1,0.9,0.3,1.3
		c7.4,13.1-5.3,22.1-6.9,33.4c-0.2,1.4-3,2.3-4.6,3.5C1073.2-717.1,1072.6-717.5,1072.1-717.8	">
<title  id="title3175">frontwheel</title>
	</path>
	<path id="titletruck"  class="st3" d="M899-286.4c-1.6,0-2.9-1.1-4.4-2.7s-3.2-4-5.1-7
		c-3.8-6.2-7.3-13.4-10.5-21.7c-1.9-4.9-3.2-9.3-4-13.2c-1.6-3.5-3.7-6.4-6.3-8.6c-2.9-2.4-5.7-3.6-8.5-3.6c-1.6,0-2.6,0.4-3.3,1.2
		s-1.1,2-1.1,4c0,3.6,1.3,7.5,4.1,11.7c2.8,4.2,5.3,6,7.3,6c0.3,0,0.3-0.1,0.3-0.1s0.1-0.1,0.1-0.6c0-1-0.2-2-0.8-3.2v0
		c-0.5-1.1-1-1.6-1.4-1.8l-1.5-0.7l1-1.3c0.8-1,2-1.7,3.2-1.7c1.6,0,3.1,0.9,3.9,2.3c0.8,1.3,1.2,2.9,1.2,4.7c0,1.8-0.5,3.5-1.6,4.8
		c-1.1,1.5-3,2.2-5.2,2.2c-4.5,0-8.7-2.5-12.5-7c-2.6-3.1-4.3-6.4-5.2-9.9c-1.4-2.5-3.1-4.6-4.9-6.2c-2.4-2.2-4.4-3.1-5.6-3.1
		c-0.6,0-0.8,0.1-0.9,0.3s-0.3,0.6-0.3,1.4c0,1.3,0.4,3.2,1.2,5.7c0.8,2.5,1.7,4.7,2.5,6.6c0.4,1,0.8,1.7,1,2.3
		c0.1,0.3,0.2,0.5,0.3,0.7c0,0.1,0,0.2,0.1,0.3s0.1,0.1,0.1,0.4c0,1-0.8,1.9-1.6,2.3s-1.8,0.7-3.1,1l-0.9,0.2l-0.5-0.8
		c-0.4-0.6-0.8-1.5-1.4-3l0,0l-1.8-3.7l0,0l-2-3.8c-0.8-1.5-1.5-2.7-2.1-3.6c-0.7-1-1.4-2-2.2-3c-0.7-0.9-1.4-1.6-2-2c0,0,0,0,0,0
		c-0.6-0.4-1-0.5-1.4-0.5c-0.5,0-0.7,0.1-1,0.6c-0.3,0.6-0.6,1.7-0.6,3.3c0,2.1,0.6,4.7,1.7,7.8c1.2,3.1,2.3,5.5,3.3,7.1l0.5,0.8
		l-0.7,0.7c-1.1,1.2-2.4,2-3.8,2c-0.7,0-1.3-0.3-1.8-0.7s-0.9-0.9-1.2-1.5c-0.8-1.2-1.6-2.9-2.5-5.2c-0.9-2.3-1.6-4.4-2-6.4
		c-1-1.6-2.4-3.2-4.1-4.8c-2.6-2.5-4.8-3.5-6.6-3.5c-0.6,0-0.8,0.1-0.9,0.2s-0.2,0.3-0.2,0.8c0,0.4,0.6,2.5,1.9,5.5
		c1.4,3.1,2.1,5.6,2.1,7.6c0,1.7-0.5,3.4-1.5,4.8c0,0,0,0,0,0c-0.9,1.3-1.9,2.4-3.1,3.1c0,0,0,0,0,0c-0.9,0.6-1.8,1.2-2.5,1.9
		c-0.5,0.5-0.7,0.7-0.8,0.9c0,0.1,0,0.2,0,0.3c0,0.2,0.1,0.5,0.2,0.9c0.2,0.8,0.3,1.2,0.3,1.8c0,0.7-0.1,1.4-0.4,2s-1.2,1.1-1.9,1.1
		c-1.4,0-2.2-0.9-3.1-2.1c-1-1.3-1.5-2.8-1.5-4.5c0-0.7,0.3-1.4,0.7-2c-1.6-4.8-3.6-9.4-6-14l1.1-0.6c0,0,0,0,0-0.1l-1.1-0.6
		l0.7-1.3l1.1-2.1l1.2,2c2,3.5,4.2,8.1,6.5,13.6c0.3-0.2,0.6-0.4,0.6-0.4h0l0.8-0.8l0,0c0.3-0.3,0.5-0.5,0.5-0.5c0,0,0,0,0,0
		c0.1-0.2,0.2-0.6,0.4-1c0.1-0.4,0.2-0.7,0.2-1.1c0-0.9-0.7-3.3-2.1-6.6c-1.4-3.5-2.2-6-2.2-7.9c0-1.8,0.7-3.4,1.9-4.6
		c1.3-1.2,3.1-1.8,5.1-1.8c3.5,0,6.9,1.6,10.1,4.5h0c0.7,0.7,1.4,1.4,2.1,2.1c0.3-1.5,0.8-3,1.7-4.2c1.3-1.8,3.1-2.8,5.2-2.8
		c2,0,4,1,5.8,2.8c0.9,0.9,1.8,1.9,2.7,3.1c0.2-1.6,0.6-3,1.6-4.1c1.2-1.3,3-1.8,5-1.8c3.2,0,6.4,1.5,9.5,4.4
		c0.8,0.7,1.5,1.4,2.2,2.2c0.4-2.2,1.2-4.1,2.5-5.5c1.8-2,4.4-2.9,7.2-2.9c4.1,0,8.1,1.7,12,4.8c1.4,1.2,2.7,2.5,3.8,3.9
		c0-0.4,0-0.8,0.1-1.1c0.1-0.7,0.2-1.5,0.3-2.3c0.2-1,0.5-1.8,1.2-2.4c0.6-0.6,1.5-1,2.4-1h0.1c1.4,0,2.7,0.7,3.5,1.8l0,0
		c0.1,0.1,0.1,0.1,0.1,0.2c0,0,0,0,0,0.1c0,0,0,0,0,0c0,0,0.1,0.1,0.1,0.2c0,0.1,0,0.1,0.1,0.1c0,0.1,0.1,0.2,0.1,0.2
		c0.1,0.2,0.2,0.5,0.3,0.8c0.3,0.7,0.6,1.8,1.1,3.1c0,0,0,0,0,0c1,2.7,2,5.4,3.1,8c1.1,2.5,2.5,4.8,4.4,7v0c1.8,2.1,3.5,3,5.2,3
		c0.8,0,1.3-0.2,1.9-0.7c0.5-0.4,0.7-0.8,0.7-1.6c0-1.3-0.5-2.3-1.6-3.3c-1.3-1.1-2.5-1.8-3.8-2.2c-1.4-0.4-2.4-0.7-3.2-0.7h-1.3
		v-1.3c0-2,0.3-4,0.8-6.1c0.5-2.2,1.4-4.2,2.8-6c1.4-2,3.4-3.2,5.6-3.2c3.1,0,6.1,1.8,9,4.9c2.9,3.1,4.9,6.8,6.1,10.9l0.2,0.7
		l-0.5,0.5l-0.8,0.8l-1.3,1.4l-0.8-1.8c-1.9-4.2-3.7-7.3-5.5-9.2s-3.3-2.8-4.8-2.8c-0.7,0-1.4,0.4-2.2,1.7c-0.9,1.5-1.5,2.7-1.8,3.9
		c-0.2,0.8-0.3,1.5-0.5,2.2c1,0.1,2,0.2,3.1,0.6c1.8,0.6,3.5,1.8,5.1,3.3c1.7,1.7,2.6,3.8,2.6,6.2c0,2.2-0.9,4.2-2.4,5.8h0
		c-1.6,1.5-3.5,2.4-5.8,2.4c-3.4,0-6.7-2.1-9.7-5.9c-1.9-2.3-3.7-5.6-5.5-9.3c0.8,4.2,2.1,8.7,4.1,13.7c4.4,2.8,8.2,6.5,11.2,11.2
		c3.1,4.9,4.8,9.3,4.8,13.4c0,1.5-0.3,2.9-0.8,4.1h0c-0.3,0.6-0.7,1.1-1.1,1.5S899.7-286.4,899-286.4L899-286.4z M782.2-285.9
		c-6.2,0-11-0.6-14.4-1.8s-5.6-3.4-5.9-6.2l1.3-0.1l0.2-1.3c4.7,0.8,11.4,1.3,19.6,1.5c-4.6-10.2-9.7-22.9-15.1-38.7c0,0,0,0,0,0
		c-1.9-5.6-2.9-9.3-2.9-11.8c0-2.1,0.6-3.9,2-5.1s3.2-1.7,5.4-1.7h1.5l-0.2,1.5c0,0.2-0.1,0.8-0.1,1.5c0,0.6,0,1.2,0.1,1.9
		c0,0.7,0.1,1.3,0.2,1.8c0.1,0.5,0.2,1.2,0.4,2.1v0v0l0.3,1.9c0,0,0,0.1,0,0.1v0c0.2,0.6,0.4,1.3,0.6,2.3v0l0.5,2.3l0,0.1
		c0.2,0.5,0.4,1.4,0.8,2.8c0.4,1.4,0.7,2.4,0.8,2.9c3.8,13.7,7.7,25.7,11.8,36.1c0.5,0,1,0,1.9,0c1.3,0,2.2,0,2.8,0
		c6.3,0,11,1.2,14.1,4l2.5,2.2h-3.3c-2.1,0-5.8,0.3-11.1,0.8C790.8-286.2,786.2-285.9,782.2-285.9L782.2-285.9z"/>
	<path id="windows"  class="st4" d="M533.2-78.2c-79.8-28.7-158.6-56.9-237.2-85.2l-1-0.4l0.2-1.1
		c0.1-0.5,0.2-1,0.3-1.5l0.2-1.1l1.1,0c77.2,2.3,154.5,4.7,232.1,7.1l1.2,0l0.1,1.2c1.6,26.4,3.2,52.4,4.8,79.7l-1.3,0.1L533.2-78.2
		L533.2-78.2z M879.5-34.2c-16.7-0.1-33.5-1.5-50.1-3.2c-5.5-0.6-9-1.5-11.1-4s-2.4-6.1-2.4-11.5c-0.1-17.6-0.5-35.2-0.2-52.9
		c0.2-16.8,0.9-33.5,1.5-50.2c0.1-2.6,0.5-4.9,2-6.6s3.9-2.4,7.3-2.3c15.3,0.6,30.7-0.6,46.2,0.2c44.2,2.2,87.7-2.9,131.2-10
		c24.2-4,48.7-6.1,73.1-7.9c9.8-0.7,20,0.7,29.5,2.9c5.5,1.3,9.3,3.8,10.8,7.6c1.5,3.7,0.7,8.2-2.1,13.1c-3.8,6.5-8.5,13.1-14.3,18
		c-21.5,18-43.1,36.1-65.7,52.7c-22.3,16.4-45.9,31.1-70.8,47.8l-0.7-1.1l0.3,1.2c-5.3,1.2-12.6,3.7-20.2,4.2
		C922.4-35,901-34.1,879.5-34.2L879.5-34.2z M703.4-33.3c-2.6,0-5.3,0-7.9,0c-11.4-0.1-22.1-4.1-31.4-10.7
		c-5.9-4.1-8.9-9.9-9.4-17.4c-1.5-24.7-3.4-49.3-5.2-74c-0.8-10.3-1.8-20.7-2.8-31.6l-0.1-1.4l1.4,0c38.4,0.7,76,1.3,113.8,2l1.2,0
		v1.3c-0.1,43.3-0.2,85.9-0.3,128.6h-1.3l0.3,1.2c-1.3,0.3-2.2,0.7-3.3,0.7C740.1-34.1,721.8-33.4,703.4-33.3L703.4-33.3z"/>
	<path id="screws"  class="st5" d="M340.9-638.2c-9.8,0.2-19.2-5.3-23.8-14.8v0
		c-6.2-12.9-0.7-28,12.3-34.5c3.3-1.6,6.7-2.5,10-2.7c10.1-0.7,19.7,4.7,24.5,14.4c6.4,13,1.4,28-11.7,34.6
		C348.7-639.2,344.8-638.2,340.9-638.2L340.9-638.2z M363.1-715.3c1.8,0,3.7-0.4,5.6-1.3c2.4-1.2,4.4-3.5,5.4-6.2
		c1-2.7,1.1-5.7,0.1-8c-1.1-2.4-3.6-4.4-6.7-5.4c-1.5-0.5-3.1-0.8-4.7-0.8c-1.6,0-3.1,0.2-4.4,0.8c0,0,0,0,0,0
		c-4.7,2-7.2,9.4-4.5,15C355.6-717.4,359.1-715.3,363.1-715.3L363.1-715.3z M304.8-713.8c1.6,0,3.3-0.4,5.1-1.3c0,0,0,0,0,0
		c5.4-2.8,7.6-9.3,4.8-14.7c-2-3.9-6.5-6.4-10.8-6.5c-1.4,0-2.8,0.2-4,0.8c-5.1,2.3-7.1,9.4-3.9,15.6c1.5,3,3.6,4.8,6,5.7
		C302.8-714,303.8-713.9,304.8-713.8L304.8-713.8z M398.4-671c2,0.1,4.3-0.4,6.8-1.6c2.4-1.2,4.3-3.6,5.2-6.3s1-5.7-0.1-8.1
		c-1.1-2.3-3.8-4.4-6.9-5.5c-1.5-0.6-3.2-0.8-4.7-0.9c-1.5,0-2.9,0.2-4,0.8c-5.3,2.6-7.2,9.4-4.2,15.7c1.5,3.1,3.5,4.8,5.9,5.5
		C397.1-671.2,397.7-671.1,398.4-671z M268.8-665.4c1.1-0.3,2.2-0.6,3.6-0.7c8.7-0.6,14.6-5.5,15.2-12.3c0.6-7.6-4.5-13.7-13.1-15.5
		c-0.4-0.1-0.8-0.2-1.2-0.3c-0.1,0-0.1-0.1-0.2-0.1c-0.3-0.1-0.7-0.2-1-0.4c-0.7-0.3-1.3-0.5-1.8-0.7c-7,3.5-10.4,8.3-10.7,13.5
		C259.3-676.8,262.2-670.9,268.8-665.4L268.8-665.4z M387.4-614.2c2.7,0.1,4.8-0.3,6.4-1.1c2.7-1.3,4.3-3.8,5.3-8
		c0.9-3.7,0.1-5.9-1.5-7.8c-1.5-1.8-4-3.3-6.5-4.9c-1.7,0.3-3.4,0.6-5.1,1c-6.4,1.3-10.5,8.7-7.9,14.5c0.1,0.3,0.2,0.5,0.4,0.8
		c0.9,1.6,2.3,3.2,3.5,4.9C384-614.5,385.8-614.3,387.4-614.2z M283.3-611.9c0.3,0,0.7,0,1-0.1c2.7-0.3,5.4-1.7,8.2-3.7
		c0.4-1.1,0.7-2.1,1.1-3.2v0c0.8-2.5,1.1-4.8,0.6-6.8c-0.5-2-1.7-3.8-3.9-5.4c-1.8-1.3-3.6-2.1-5.4-2.2c-1-0.1-2,0-3,0.2
		c-0.5,0.1-1,0.3-1.5,0.5c-0.5,0.2-1,0.5-1.5,0.8c-0.3,0.2-0.5,0.3-0.8,0.5c-4.4,3.1-5.4,7.1-4,12.2c0.1,0.4,0.2,0.7,0.4,1.1
		c0.4,1,0.9,2.2,1.4,3.3C278.6-612.6,281-611.9,283.3-611.9L283.3-611.9z M335.8-587c2-0.1,4.1-0.6,6.3-1.7c3.2-1.6,5.2-3.9,6.1-6.6
		s0.6-5.8-1.1-9.1c-2.4-4.7-6.7-7-11.5-6.4c-1.6,0.2-3.3,0.7-4.9,1.6c-6.1,3.2-8.2,9.9-5.1,15.9c1.6,3.1,4,5.1,6.9,5.9
		C333.4-587.1,334.6-587,335.8-587z M1316.4-702.9c1.8,0,3.7-0.4,5.6-1.3c2.4-1.2,4.4-3.5,5.4-6.2c1-2.7,1.1-5.7,0.1-8
		c-1.1-2.4-3.6-4.4-6.7-5.4c-1.5-0.5-3.1-0.8-4.7-0.8c-1.6,0-3.1,0.2-4.4,0.8c0,0,0,0,0,0c-4.7,2-7.2,9.4-4.5,15
		C1309-705.1,1312.5-703,1316.4-702.9L1316.4-702.9z M1258.1-701.5c1.6,0,3.3-0.4,5.1-1.3c0,0,0,0,0,0c5.4-2.8,7.6-9.3,4.8-14.7
		c-2-3.9-6.5-6.4-10.8-6.5c-1.4,0-2.8,0.2-4,0.8c-5.1,2.3-7.1,9.4-3.9,15.6c1.5,3,3.6,4.8,6,5.7
		C1256.2-701.7,1257.1-701.5,1258.1-701.5L1258.1-701.5z M1351.7-658.7c2,0.1,4.3-0.4,6.8-1.6c2.4-1.2,4.3-3.6,5.2-6.3
		s1-5.7-0.1-8.1c-1.1-2.3-3.8-4.4-6.9-5.5c-1.5-0.6-3.2-0.8-4.7-0.9c-1.5,0-2.9,0.2-4,0.8c-5.3,2.6-7.2,9.4-4.2,15.7
		c1.5,3.1,3.5,4.8,5.9,5.5C1350.4-658.9,1351-658.8,1351.7-658.7z M1222.1-653.1c1.1-0.3,2.2-0.6,3.6-0.7
		c8.7-0.6,14.6-5.5,15.2-12.3c0.6-7.6-4.5-13.7-13.1-15.5c-0.4-0.1-0.8-0.2-1.2-0.3c-0.1,0-0.1-0.1-0.2-0.1c-0.3-0.1-0.7-0.2-1-0.4
		c-0.7-0.3-1.3-0.5-1.8-0.7c-7,3.5-10.4,8.3-10.7,13.5C1212.6-664.5,1215.5-658.6,1222.1-653.1L1222.1-653.1z M1340.7-601.9
		c2.7,0.1,4.8-0.3,6.4-1.1c2.7-1.3,4.3-3.8,5.3-8c0.9-3.7,0.1-5.9-1.5-7.8c-1.5-1.8-4-3.3-6.5-4.9c-1.7,0.3-3.4,0.6-5.1,1
		c-6.4,1.3-10.5,8.7-7.9,14.5c0.1,0.3,0.2,0.5,0.4,0.8c0.9,1.6,2.3,3.2,3.5,4.9C1337.3-602.2,1339.1-602,1340.7-601.9z
		 M1236.7-599.6c0.3,0,0.7,0,1-0.1c2.7-0.3,5.4-1.7,8.2-3.7c0.4-1.1,0.7-2.1,1.1-3.2v0c0.8-2.5,1.1-4.8,0.6-6.8s-1.7-3.8-3.9-5.4
		c-1.8-1.3-3.6-2.1-5.4-2.2c-1-0.1-2,0-3,0.2c-0.5,0.1-1,0.3-1.5,0.5c-0.5,0.2-1,0.5-1.5,0.8c-0.3,0.2-0.5,0.3-0.8,0.5
		c-4.4,3.1-5.4,7.1-4,12.2c0.1,0.4,0.2,0.7,0.4,1.1c0.4,1,0.9,2.2,1.4,3.3C1231.9-600.3,1234.3-599.6,1236.7-599.6L1236.7-599.6z
		 M1289.1-574.7c2-0.1,4.1-0.6,6.3-1.7c3.2-1.6,5.2-3.9,6.1-6.6s0.6-5.8-1.1-9.1c-2.4-4.7-6.7-7-11.5-6.4c-1.6,0.2-3.3,0.7-4.9,1.6
		c-6.1,3.2-8.2,9.9-5.1,15.9c1.6,3.1,4,5.1,6.9,5.9C1286.7-574.8,1287.9-574.7,1289.1-574.7z M1293-624.9
		c-9.8,0.2-19.2-5.3-23.8-14.8v0c-6.2-12.9-0.7-28,12.3-34.5c3.3-1.6,6.7-2.5,10-2.7c10.1-0.7,19.7,4.7,24.5,14.4
		c6.4,13,1.4,28-11.7,34.6C1300.7-625.9,1296.8-625,1293-624.9L1293-624.9z"/>
	<path id="titlemonster"  class="st3" d="M960.3-234.3v-1.3V-281v-1.3h1.3h10.1h1.3v1.3v13.2h5.1
		l9.7-13.9l0.4-0.6h0.7h12.4h2.5l-1.4,2l-10.7,15.1c5.2,2.6,8,7.5,8,14.5c0,5.5-1.6,9.8-5,12.5c-3.4,2.7-8.7,3.8-15.9,3.8h-17.2
		H960.3z M917.8-234.3v-1.3V-281v-1.3h1.3h33.4h1.3v1.3v9v1.3h-1.3h-22v6.8h19h1.3v1.3v8.6v1.3h-1.3h-19v6.8h21.3h1.3v1.3v9h-1.3
		v1.3h-32.7H917.8z M874.6-234.3v-1.3v-8.8v-1.3h1.3h11.6V-281v-1.3h1.3h10.1h1.3v1.3v35.3h11.5h1.3v1.3v8.8v1.3h-1.3h-35.8H874.6z
		 M784.4-234.3v-1.3V-281v-1.3h1.3h10.1h1.3v1.3v24.7l19.3-25.4l0.4-0.5h0.7h10.1h1.3v1.3v45.4v1.3h-1.3h-10.1v-1.3h-1.3V-261
		l-19.9,26.2l-0.4,0.5h-0.6h-9.5H784.4z M668.9-234.3v-1.3V-281v-1.3h1.3h10.1h1.3v1.3v23l9.8-19.8l0.3-0.7h0.8h6h0.8l0.3,0.7
		l9.8,19.9V-281v-1.3h1.3h10.1h1.3v1.3v45.4v1.3h-1.3h-13.6h-0.8l-0.3-0.8l-10.6-22.4L685-235.1l-0.3,0.8h-0.8h-13.7H668.9z
		 M853.6-233.3c-4.8,0-9-1.2-12.3-3.8c-3.4-2.6-5.2-6.4-5.2-11c0-4.5,1.3-8.2,4.1-10.5c2.7-2.2,6.7-3.9,12.1-5.2c0,0,0,0,0,0
		c3.3-0.8,5.4-1.6,6.2-2.2c0.8-0.6,1.2-1.2,1.2-2.2c0-1-0.3-1.6-1.1-2.2c-0.8-0.6-1.9-1-3.6-1c-3.7,0-8,2-12.7,6.1l-1,0.9l-0.8-1
		l-6-7.4l-0.8-0.9l0.9-0.8c5.9-5.5,12.8-8.3,20.3-8.3c5.2,0,9.5,1.3,12.8,4.1c3.3,2.7,5,6.5,5,10.9c0,4.3-1.3,7.8-4,10.2
		c-2.6,2.3-6.1,4-10.6,5.1c-4.3,1.1-7,2.1-7.8,2.6c-0.9,0.6-1.2,1.1-1.2,2.1c0,1,0.3,1.6,1,2.2c0.7,0.6,1.7,0.9,3.2,0.9
		c3.9,0,7.7-1.4,11.4-4.2l1.1-0.8l0.8,1.1l5.1,7.4l0.7,1l-0.9,0.8c-2.4,2-5.2,3.6-8.3,4.7C859.9-233.9,856.8-233.3,853.6-233.3
		L853.6-233.3z M753.3-233.3c-7,0-13-2.4-17.8-7.1c-4.8-4.7-7.3-10.7-7.3-17.6c0-7,2.5-12.9,7.3-17.6c4.8-4.7,10.8-7.1,17.8-7.1
		c7,0,13,2.4,17.8,7.1c4.8,4.7,7.2,10.7,7.2,17.6c0,7-2.4,12.9-7.2,17.6C766.3-235.7,760.3-233.3,753.3-233.3z"/>
	<path id="path4879"  class="st3" d="M752.8-244.2c-3.7,0-7-1.5-9.5-4.3c-2.5-2.8-3.8-6.2-3.8-10.2
		c0-3.9,1.3-7.3,3.8-10.1h0c2.5-2.8,5.8-4.2,9.5-4.2c3.7,0,7,1.5,9.5,4.2h0c2.5,2.8,3.8,6.2,3.8,10.1c0,3.9-1.3,7.4-3.8,10.2
		C759.8-245.7,756.5-244.2,752.8-244.2L752.8-244.2z"/>
	<path id="path4877"  class="st3" d="M972.3-244.6v-1.2v-12.1v-1.2h1.2h6.6c3.2,0,5.6,0.5,7.2,1.8
		c1.4,1.3,2.1,3.3,2.1,5.7c0,2.4-0.7,4.4-2.3,5.5c-1.5,1.1-3.8,1.4-6.8,1.4h-6.8L972.3-244.6L972.3-244.6z"/>
	<path id="shadows"  class="st3" d="M712.4-40.1c-3.7,0-7.5-0.1-11.2-0.3c-9.7-0.6-19.5-3-28.6-6.5
		c-2.4-0.9-4.9-2.8-6.9-5.1s-3.5-4.8-3.8-7.4c-2.1-23-2.8-46.2-4.1-70.1l2.4-0.6c0.6,1.2,1.2,1.9,1.5,3.1
		c3.4,13.6,6.4,27.3,10.3,40.7c4.8,16.5,13.3,29,31.6,32.6c14.2,2.8,28.2,6.5,44.2,10.2l-0.3,2.5C735.1-40.7,723.6-40.1,712.4-40.1z
		 M850.4-41.7c-8.3,0-16.4-1.9-24.3-2.9l-1.2-0.2l0.1-1.2c0-0.5,0.1-1.1,0.1-1.7l0.1-1.1l1.1-0.1c3.2-0.2,6.5-0.5,9.8-0.6
		c35.4-1.7,70.7-3.3,106-5.2c9.9-0.6,18.7-4.2,26.2-11.3c11.8-11.2,24.1-21.8,36.3-32.6c22.8-20.2,45.6-40.5,68.8-60.3
		c6.8-5.8,14.7-10.6,22.8-14.3c2-0.9,4.4-0.5,6.7,0.2c2.3,0.7,4.6,1.8,6.4,2.8c0.8,0.4,0.8,0.9,0.9,1.3c0.1,0.4,0.1,0.7,0.1,1.1
		c0,0.8-0.1,1.8-0.3,2.8c-0.4,2-1.1,4.3-2.2,5.8c-4.9,6.6-10.2,13.1-16.4,18.7h0c-37.9,34-80,62.2-123.1,88.8
		c-7.2,4.4-14.6,8.9-24.1,9C912.8-42.6,881.6-41.7,850.4-41.7L850.4-41.7z M446.7-192.5c-46.4-0.1-92.8-0.2-139.2-0.3
		c-48.2-0.1-96.4-0.1-144.6-0.1c-17.4,0-34.7-0.1-52.6-0.2h-1.3l0.1-1.3c0.1-2.4,0.2-4.2,0.3-6.7l0.1-1.3l1.2,0
		c5.6,0.1,10.7,0.3,15.8,0.3c46.4,0.7,92.8,1.4,139.2,2.1c37,0.5,74.1,1,111.1,1.7c25.6,0.5,51.2,1.2,76.8,1.8l0,1.3
		c9.2-0.1,18.3-0.1,27.5-0.2c0,0.6,0,1.1,0,1.7c-8.8-0.3-17.5-0.7-26.3-1l-0.1,0.3l-0.2,0.8l-0.8,0.1
		C451.3-193.1,449.1-192.5,446.7-192.5L446.7-192.5z M947.7-184.8c-62,0.1-124-1.4-186-2.3c-19.3-0.3-38.6-0.6-58-1v-1.3l-1.2,0
		c0-0.4,0-0.7,0-1.1l-0.1-1.3l1.3-0.1c2.1-0.1,4.2-0.3,6.4-0.3c43.9,0,87.9,0.1,131.8-0.1c56.6-0.3,113.2-0.7,169.8-1.8
		c29.6-0.5,59.2-2.5,88.8-3.7c3.5-0.1,5.8-0.8,7.5-2.2c1.7-1.4,2.9-3.6,3.7-7.3c4.7-21.5,7-42.7,2.5-64.4l-0.8-3.6l2.8,2.4
		c0.9,0.8,1.6,1.7,2,2.6c9.5,19.6,9.9,40.1,4,60.3c-1.6,5.5-2.5,9.5-3.3,12.4s-1.5,5-3.1,6.4c-1.6,1.4-3.8,1.9-6.9,2.2
		c-3.2,0.3-7.4,0.3-13.6,0.6C1046.2-186,996.9-184.9,947.7-184.8L947.7-184.8z M1027-54.9l-0.8-1l-1,0.8c-0.2-0.2-0.4-0.5-0.6-0.8
		l-0.8-1l0.9-0.8c1.8-1.6,3.5-3.3,5.4-4.8c22.6-18.4,45-37.2,68.1-55.1c18.8-14.6,37.8-29.6,61.5-36.9c8.3-2.6,17-6.3,28.3-3
		l2.4,0.7l-1.9,1.6c-2.8,2.3-4.3,4.6-6.9,5.5c-12.2,3.9-25.7,5.1-35.6,11.4c-30.1,18.9-59,39.8-88.2,60.2
		C1047.2-70.9,1037.3-62.7,1027-54.9z"/>
</g>
<g id="layer3" inkscape:groupmode="layer" inkscape:label="flowers" class="st6">
	<path id="flowers"  class="st7" d="M1257,176.5c0-0.4,0.1-0.9,0.2-1.4c0.8-2.3,2.9-3.2,5.5-3.2
		c1.4,0,2.9,0.3,4.4,0.8c3.4,1.1,6.2,2.8,8,4.5c-1-2.3-1.8-5.4-1.8-9c0-4.3,1.6-8.6,5.4-8.6s5.4,4.3,5.4,8.6c0,3.6-0.7,6.7-1.8,9
		c1.8-1.7,4.6-3.3,8-4.5c1.5-0.5,3-0.8,4.4-0.8c2.5,0,4.7,0.9,5.5,3.2c0.2,0.5,0.2,0.9,0.2,1.4c0,3-3.2,5.3-6.8,6.4
		c-2.6,0.9-5.1,1.2-7.3,1.2c-0.7,0-1.3,0-1.8-0.1c2.2,1.2,4.6,3.3,6.7,6.3c1.5,2,2.5,4.4,2.5,6.4c0,1.5-0.5,2.8-1.8,3.7
		c-0.8,0.6-1.6,0.8-2.5,0.8c-2.5,0-5.1-2.1-6.9-4.6c-2.1-2.9-3.4-5.9-3.9-8.3c-0.5,2.4-1.8,5.4-3.9,8.3c-1.9,2.6-4.5,4.6-6.9,4.6
		c-0.9,0-1.7-0.3-2.5-0.8c-1.3-0.9-1.8-2.2-1.8-3.7c0-2.1,1-4.4,2.5-6.4c2.1-2.9,4.6-5,6.7-6.3c-0.6,0.1-1.2,0.1-1.8,0.1
		c-2.1,0-4.6-0.4-7.3-1.2C1260.2,181.7,1257,179.4,1257,176.5L1257,176.5z M1276.6,182.1c0,1.2,1,2.2,2.2,2.2s2.2-1,2.2-2.2
		c0-1.2-1-2.2-2.2-2.2S1276.6,180.9,1276.6,182.1z M1411,193.8c0-0.6,0.1-1.1,0.3-1.7c0.9-2.9,3.7-4,6.9-4c1.8,0,3.7,0.4,5.5,0.9
		c4.3,1.4,7.7,3.5,10.1,5.6c-1.3-2.8-2.2-6.8-2.2-11.3c0-5.4,2-10.8,6.8-10.8c4.7,0,6.8,5.4,6.8,10.8c0,4.5-0.9,8.5-2.2,11.3
		c2.3-2.1,5.7-4.2,10.1-5.6c1.8-0.6,3.7-0.9,5.5-0.9c3.2,0,5.9,1.1,6.9,4c0.2,0.6,0.3,1.2,0.3,1.7c0,3.7-4,6.6-8.5,8.1
		c-3.3,1.1-6.4,1.5-9.1,1.5c-0.8,0-1.6,0-2.3-0.1c2.7,1.6,5.8,4.2,8.4,7.8c1.9,2.5,3.1,5.5,3.1,8.1c0,1.8-0.7,3.5-2.3,4.6
		c-1,0.7-2.1,1-3.1,1c-3.1,0-6.3-2.6-8.7-5.8c-2.7-3.7-4.2-7.4-4.9-10.4c-0.6,3-2.2,6.8-4.9,10.4c-2.4,3.2-5.6,5.8-8.7,5.8
		c-1.1,0-2.1-0.3-3.1-1c-1.6-1.2-2.3-2.8-2.3-4.6c0-2.6,1.3-5.5,3.1-8.1c2.7-3.7,5.7-6.3,8.4-7.8c-0.7,0.1-1.5,0.1-2.3,0.1
		c-2.7,0-5.8-0.4-9.1-1.5C1415,200.4,1411,197.5,1411,193.8L1411,193.8z M1435.5,200.8c0,1.5,1.2,2.7,2.7,2.7c1.5,0,2.7-1.2,2.7-2.7
		c0-1.5-1.2-2.7-2.7-2.7C1436.7,198.1,1435.5,199.3,1435.5,200.8z M391.2,200.1c0-0.6,0.1-1.1,0.3-1.7c0.9-2.9,3.7-4,6.9-4
		c1.8,0,3.7,0.4,5.5,0.9c4.3,1.4,7.7,3.5,10.1,5.6c-1.3-2.8-2.2-6.8-2.2-11.3c0-5.4,2-10.8,6.8-10.8c4.7,0,6.8,5.4,6.8,10.8
		c0,4.5-0.9,8.5-2.2,11.3c2.3-2.1,5.7-4.2,10.1-5.6c1.8-0.6,3.7-0.9,5.5-0.9c3.2,0,5.9,1.1,6.9,4c0.2,0.6,0.3,1.2,0.3,1.7
		c0,3.7-4,6.6-8.5,8.1c-3.3,1.1-6.4,1.5-9.1,1.5c-0.8,0-1.6,0-2.3-0.1c2.7,1.6,5.8,4.2,8.4,7.8c1.9,2.5,3.1,5.5,3.1,8.1
		c0,1.8-0.7,3.5-2.3,4.6c-1,0.7-2.1,1-3.1,1c-3.1,0-6.3-2.6-8.7-5.8c-2.7-3.7-4.2-7.4-4.9-10.4c-0.6,3-2.2,6.8-4.9,10.4
		c-2.4,3.2-5.6,5.8-8.7,5.8c-1.1,0-2.1-0.3-3.1-1c-1.6-1.2-2.3-2.8-2.3-4.6c0-2.6,1.3-5.5,3.1-8.1c2.7-3.7,5.7-6.3,8.4-7.8
		c-0.7,0.1-1.5,0.1-2.3,0.1c-2.7,0-5.8-0.4-9.1-1.5C395.2,206.7,391.2,203.8,391.2,200.1L391.2,200.1z M415.7,207.1
		c0,1.5,1.2,2.7,2.7,2.7s2.7-1.2,2.7-2.7c0-1.5-1.2-2.7-2.7-2.7S415.7,205.6,415.7,207.1z M250.5,206.6c0-0.6,0.1-1.1,0.3-1.7
		c0.9-2.9,3.7-4,6.9-4c1.8,0,3.7,0.4,5.5,0.9c4.3,1.4,7.7,3.5,10.1,5.6c-1.3-2.8-2.2-6.8-2.2-11.3c0-5.4,2-10.8,6.8-10.8
		c4.7,0,6.8,5.4,6.8,10.8c0,4.5-0.9,8.5-2.2,11.3c2.3-2.1,5.7-4.2,10.1-5.6c1.8-0.6,3.7-0.9,5.5-0.9c3.2,0,5.9,1.1,6.9,4
		c0.2,0.6,0.3,1.2,0.3,1.7c0,3.7-4,6.6-8.5,8.1c-3.3,1.1-6.4,1.5-9.1,1.5c-0.8,0-1.6,0-2.3-0.1c2.7,1.6,5.8,4.2,8.4,7.8
		c1.9,2.5,3.1,5.5,3.1,8.1c0,1.8-0.7,3.5-2.3,4.6c-1,0.7-2.1,1-3.1,1c-3.1,0-6.3-2.6-8.7-5.8c-2.7-3.7-4.2-7.4-4.9-10.4
		c-0.6,3-2.2,6.8-4.9,10.4c-2.4,3.2-5.6,5.8-8.7,5.8c-1.1,0-2.1-0.3-3.1-1c-1.6-1.2-2.3-2.8-2.3-4.6c0-2.6,1.3-5.5,3.1-8.1
		c2.7-3.7,5.7-6.3,8.4-7.8c-0.7,0.1-1.5,0.1-2.3,0.1c-2.7,0-5.8-0.4-9.1-1.5C254.5,213.2,250.5,210.3,250.5,206.6L250.5,206.6z
		 M275.1,213.7c0,1.5,1.2,2.7,2.7,2.7s2.7-1.2,2.7-2.7c0-1.5-1.2-2.7-2.7-2.7S275.1,212.2,275.1,213.7z M112.3,244.8
		c0-0.8,0.1-1.7,0.4-2.5c1.4-4.3,5.5-6,10.2-6c2.6,0,5.5,0.5,8.2,1.4c6.4,2.1,11.5,5.2,15,8.3c-1.9-4.2-3.3-10.1-3.3-16.8
		c0-8,3-16.1,10.1-16.1s10.1,8,10.1,16.1c0,6.8-1.4,12.6-3.3,16.8c3.4-3.1,8.6-6.2,15-8.3c2.7-0.9,5.6-1.4,8.2-1.4
		c4.7,0,8.8,1.7,10.2,6c0.3,0.9,0.4,1.7,0.4,2.5c0,5.5-6,9.8-12.6,12c-4.9,1.6-9.6,2.3-13.6,2.3c-1.2,0-2.4-0.1-3.4-0.2
		c4,2.3,8.6,6.2,12.5,11.7c2.8,3.8,4.7,8.2,4.7,12c0,2.7-1,5.2-3.4,6.9c-1.5,1.1-3.1,1.6-4.7,1.6c-4.6,0-9.4-3.8-12.9-8.7
		c-4-5.5-6.3-11-7.2-15.5c-1,4.5-3.3,10.1-7.2,15.5c-3.5,4.8-8.3,8.7-12.9,8.7c-1.6,0-3.2-0.5-4.7-1.6c-2.4-1.7-3.4-4.2-3.4-6.9
		c0-3.8,1.9-8.2,4.7-12c4-5.5,8.5-9.4,12.5-11.7c-1.1,0.1-2.2,0.2-3.4,0.2c-4,0-8.6-0.7-13.6-2.3
		C118.2,254.7,112.3,250.3,112.3,244.8L112.3,244.8z M148.8,255.3c0,2.2,1.8,4,4,4c2.2,0,4-1.8,4-4c0-2.2-1.8-4-4-4
		C150.6,251.3,148.8,253.1,148.8,255.3L148.8,255.3z M508.3,221.2c0-0.8,0.1-1.7,0.4-2.5c1.4-4.3,5.5-6,10.2-6
		c2.6,0,5.5,0.5,8.2,1.4c6.4,2.1,11.5,5.2,15,8.3c-1.9-4.2-3.3-10.1-3.3-16.8c0-8,3-16.1,10.1-16.1s10.1,8,10.1,16.1
		c0,6.8-1.4,12.6-3.3,16.8c3.4-3.1,8.6-6.2,15-8.3c2.7-0.9,5.6-1.4,8.2-1.4c4.7,0,8.8,1.7,10.2,6c0.3,0.9,0.4,1.7,0.4,2.5
		c0,5.5-6,9.8-12.6,12c-4.9,1.6-9.6,2.3-13.6,2.3c-1.2,0-2.4-0.1-3.4-0.2c4,2.3,8.6,6.2,12.5,11.7c2.8,3.8,4.7,8.2,4.7,12
		c0,2.7-1,5.2-3.4,6.9c-1.5,1.1-3.1,1.6-4.7,1.6c-4.6,0-9.4-3.8-12.9-8.7c-4-5.5-6.3-11-7.2-15.5c-1,4.5-3.3,10.1-7.2,15.5
		c-3.5,4.8-8.3,8.7-12.9,8.7c-1.6,0-3.2-0.5-4.7-1.6c-2.4-1.7-3.4-4.2-3.4-6.9c0-3.8,1.9-8.2,4.7-12c4-5.5,8.5-9.4,12.5-11.7
		c-1.1,0.1-2.2,0.2-3.4,0.2c-4,0-8.6-0.7-13.6-2.3C514.2,231.1,508.3,226.7,508.3,221.2L508.3,221.2z M544.8,231.8c0,2.2,1.8,4,4,4
		c2.2,0,4-1.8,4-4c0-2.2-1.8-4-4-4C546.6,227.7,544.8,229.5,544.8,231.8z M588.4,315.5c0-0.8,0.1-1.7,0.4-2.5c1.4-4.3,5.5-6,10.2-6
		c2.6,0,5.5,0.5,8.2,1.4c6.4,2.1,11.5,5.2,15,8.3c-1.9-4.2-3.3-10.1-3.3-16.8c0-8,3-16.1,10.1-16.1s10.1,8,10.1,16.1
		c0,6.8-1.4,12.6-3.3,16.8c3.4-3.1,8.6-6.2,15-8.3c2.7-0.9,5.6-1.4,8.2-1.4c4.7,0,8.8,1.7,10.2,6c0.3,0.9,0.4,1.7,0.4,2.5
		c0,5.5-6,9.8-12.6,12c-4.9,1.6-9.6,2.3-13.6,2.3c-1.2,0-2.4-0.1-3.4-0.2c4,2.3,8.6,6.2,12.5,11.7c2.8,3.8,4.7,8.2,4.7,12
		c0,2.7-1,5.2-3.4,6.9c-1.5,1.1-3.1,1.6-4.7,1.6c-4.6,0-9.4-3.8-12.9-8.7c-4-5.5-6.3-11-7.2-15.5c-1,4.5-3.3,10.1-7.2,15.5
		c-3.5,4.8-8.3,8.7-12.9,8.7c-1.6,0-3.2-0.5-4.7-1.6c-2.4-1.7-3.4-4.2-3.4-6.9c0-3.8,1.9-8.2,4.7-12c4-5.5,8.5-9.4,12.5-11.7
		c-1.1,0.1-2.2,0.2-3.4,0.2c-4,0-8.6-0.7-13.6-2.3C594.3,325.4,588.4,321,588.4,315.5L588.4,315.5z M625,326c0,2.2,1.8,4,4,4
		c2.2,0,4-1.8,4-4c0-2.2-1.8-4-4-4C626.8,322,625,323.8,625,326z M888.5,210.2c0-0.8,0.1-1.7,0.4-2.5c1.4-4.3,5.5-6,10.2-6
		c2.6,0,5.5,0.5,8.2,1.4c6.4,2.1,11.5,5.2,15,8.3c-1.9-4.2-3.3-10.1-3.3-16.8c0-8,3-16.1,10.1-16.1s10.1,8,10.1,16.1
		c0,6.8-1.4,12.6-3.3,16.8c3.4-3.1,8.6-6.2,15-8.3c2.7-0.9,5.6-1.4,8.2-1.4c4.7,0,8.8,1.7,10.2,6c0.3,0.9,0.4,1.7,0.4,2.5
		c0,5.5-6,9.8-12.6,12c-4.9,1.6-9.6,2.3-13.6,2.3c-1.2,0-2.4-0.1-3.4-0.2c4,2.3,8.6,6.2,12.5,11.7c2.8,3.8,4.7,8.2,4.7,12
		c0,2.7-1,5.2-3.4,6.9c-1.5,1.1-3.1,1.6-4.7,1.6c-4.6,0-9.4-3.8-12.9-8.7c-4-5.5-6.3-11-7.2-15.5c-1,4.5-3.3,10.1-7.2,15.5
		c-3.5,4.8-8.3,8.7-12.9,8.7c-1.6,0-3.2-0.5-4.7-1.6c-2.4-1.7-3.4-4.2-3.4-6.9c0-3.8,1.9-8.2,4.7-12c4-5.5,8.5-9.4,12.5-11.7
		c-1.1,0.1-2.2,0.2-3.4,0.2c-4,0-8.6-0.7-13.6-2.3C894.5,220.1,888.5,215.7,888.5,210.2L888.5,210.2z M925.1,220.8c0,2.2,1.8,4,4,4
		c2.2,0,4-1.8,4-4c0-2.2-1.8-4-4-4C926.9,216.7,925.1,218.5,925.1,220.8z M1128.9,188.2c0-0.8,0.1-1.7,0.4-2.5c1.4-4.3,5.5-6,10.2-6
		c2.6,0,5.5,0.5,8.2,1.4c6.4,2.1,11.5,5.2,15,8.3c-1.9-4.2-3.3-10.1-3.3-16.8c0-8,3-16.1,10.1-16.1s10.1,8,10.1,16.1
		c0,6.8-1.4,12.6-3.3,16.8c3.4-3.1,8.6-6.2,15-8.3c2.7-0.9,5.6-1.4,8.2-1.4c4.7,0,8.8,1.7,10.2,6c0.3,0.9,0.4,1.7,0.4,2.5
		c0,5.5-6,9.8-12.6,12c-4.9,1.6-9.6,2.3-13.6,2.3c-1.2,0-2.4-0.1-3.4-0.2c4,2.3,8.6,6.2,12.5,11.7c2.8,3.8,4.7,8.2,4.7,12
		c0,2.7-1,5.2-3.4,6.9c-1.5,1.1-3.1,1.6-4.7,1.6c-4.6,0-9.4-3.8-12.9-8.7c-4-5.5-6.3-11-7.2-15.5c-1,4.5-3.3,10.1-7.2,15.5
		c-3.5,4.8-8.3,8.7-12.9,8.7c-1.6,0-3.2-0.5-4.7-1.6c-2.4-1.7-3.4-4.2-3.4-6.9c0-3.8,1.9-8.2,4.7-12c4-5.5,8.5-9.4,12.5-11.7
		c-1.1,0.1-2.2,0.2-3.4,0.2c-4,0-8.6-0.7-13.6-2.3C1134.9,198.1,1128.9,193.7,1128.9,188.2L1128.9,188.2z M1165.5,198.8
		c0,2.2,1.8,4,4,4s4-1.8,4-4c0-2.2-1.8-4-4-4C1167.3,194.7,1165.5,196.5,1165.5,198.8z M665.4,231.2c0-0.8,0.1-1.6,0.4-2.4
		c1.3-4,5.1-5.6,9.5-5.6c2.5,0,5.1,0.5,7.7,1.3c6,1.9,10.7,4.9,14,7.7c-1.8-3.9-3.1-9.4-3.1-15.7c0-7.5,2.8-15,9.4-15
		c6.6,0,9.4,7.5,9.4,15c0,6.3-1.3,11.7-3.1,15.7c3.2-2.9,8-5.8,14-7.7c2.5-0.8,5.2-1.3,7.7-1.3c4.4,0,8.2,1.6,9.5,5.6
		c0.3,0.8,0.4,1.6,0.4,2.4c0,5.1-5.5,9.2-11.8,11.2c-4.6,1.5-8.9,2.1-12.6,2.1c-1.1,0-2.2-0.1-3.2-0.2c3.7,2.2,8,5.8,11.7,10.9
		c2.6,3.5,4.4,7.6,4.4,11.2c0,2.6-0.9,4.8-3.1,6.4c-1.4,1-2.9,1.4-4.4,1.4c-4.3,0-8.8-3.6-12-8.1c-3.7-5.1-5.8-10.2-6.7-14.5
		c-0.9,4.2-3,9.4-6.7,14.5c-3.3,4.5-7.8,8.1-12,8.1c-1.5,0-3-0.4-4.4-1.4c-2.2-1.6-3.1-3.9-3.1-6.4c0-3.6,1.8-7.7,4.4-11.2
		c3.7-5.1,7.9-8.7,11.7-10.9c-1,0.1-2.1,0.2-3.2,0.2c-3.7,0-8.1-0.6-12.6-2.1C670.9,240.4,665.4,236.4,665.4,231.2L665.4,231.2z
		 M699.5,241c0,2.1,1.7,3.7,3.7,3.7s3.7-1.7,3.7-3.7c0-2.1-1.7-3.7-3.7-3.7S699.5,239,699.5,241z M835.9,320.1
		c0-0.8,0.1-1.6,0.4-2.4c1.3-4,5.1-5.6,9.5-5.6c2.5,0,5.1,0.5,7.7,1.3c6,1.9,10.7,4.9,14,7.7c-1.8-3.9-3.1-9.4-3.1-15.7
		c0-7.5,2.8-15,9.4-15c6.6,0,9.4,7.5,9.4,15c0,6.3-1.3,11.7-3.1,15.7c3.2-2.9,8-5.8,14-7.7c2.5-0.8,5.2-1.3,7.7-1.3
		c4.4,0,8.2,1.6,9.5,5.6c0.3,0.8,0.4,1.6,0.4,2.4c0,5.1-5.5,9.2-11.8,11.2c-4.6,1.5-8.9,2.1-12.6,2.1c-1.1,0-2.2-0.1-3.2-0.2
		c3.7,2.2,8,5.8,11.7,10.9c2.6,3.5,4.4,7.6,4.4,11.2c0,2.6-0.9,4.8-3.1,6.4c-1.4,1-2.9,1.4-4.4,1.4c-4.3,0-8.8-3.6-12-8.1
		c-3.7-5.1-5.8-10.2-6.7-14.5c-0.9,4.2-3,9.4-6.7,14.5c-3.3,4.5-7.8,8.1-12,8.1c-1.5,0-3-0.4-4.4-1.4c-2.2-1.6-3.1-3.9-3.1-6.4
		c0-3.6,1.8-7.7,4.4-11.2c3.7-5.1,7.9-8.7,11.7-10.9c-1,0.1-2.1,0.2-3.2,0.2c-3.7,0-8.1-0.6-12.6-2.1
		C841.5,329.3,835.9,325.3,835.9,320.1L835.9,320.1z M870,329.9c0,2.1,1.7,3.7,3.7,3.7s3.7-1.7,3.7-3.7c0-2.1-1.7-3.7-3.7-3.7
		S870,327.9,870,329.9z M978.9,285.8c0-0.8,0.1-1.7,0.4-2.5c1.4-4.3,5.5-6,10.2-6c2.6,0,5.5,0.5,8.2,1.4c6.4,2.1,11.5,5.2,15,8.3
		c-1.9-4.2-3.3-10.1-3.3-16.8c0-8,3-16.1,10.1-16.1c7,0,10.1,8,10.1,16.1c0,6.8-1.4,12.6-3.3,16.8c3.4-3.1,8.6-6.2,15-8.3
		c2.7-0.9,5.6-1.4,8.2-1.4c4.7,0,8.8,1.7,10.2,6c0.3,0.9,0.4,1.7,0.4,2.5c0,5.5-6,9.8-12.6,12c-4.9,1.6-9.6,2.3-13.6,2.3
		c-1.2,0-2.4-0.1-3.4-0.2c4,2.3,8.6,6.2,12.5,11.7c2.8,3.8,4.7,8.2,4.7,12c0,2.7-1,5.2-3.4,6.9c-1.5,1.1-3.1,1.6-4.7,1.6
		c-4.6,0-9.4-3.8-12.9-8.7c-4-5.5-6.3-11-7.2-15.5c-1,4.5-3.3,10.1-7.2,15.5c-3.5,4.8-8.3,8.7-12.9,8.7c-1.6,0-3.2-0.5-4.7-1.6
		c-2.4-1.7-3.4-4.2-3.4-6.9c0-3.8,1.9-8.2,4.7-12c4-5.5,8.5-9.4,12.5-11.7c-1.1,0.1-2.2,0.2-3.4,0.2c-4,0-8.6-0.7-13.6-2.3
		C984.9,295.7,978.9,291.3,978.9,285.8L978.9,285.8z M1015.5,296.4c0,2.2,1.8,4,4,4c2.2,0,4-1.8,4-4c0-2.2-1.8-4-4-4
		C1017.3,292.3,1015.5,294.1,1015.5,296.4z"/>
</g>
<g id="layer1" inkscape:groupmode="layer" inkscape:label="Layer" class="st6">
	<path id="path5167"  class="st8" d="M401.9,716.4C400.8,717.9,401.1,717.3,401.9,716.4z"/>
	<path id="path5490"  class="st8" d="M359.5,745.5C356.9,745.6,358.5,745.5,359.5,745.5z"/>
</g>
</svg>
