<svg id="Layer_1" data-name="Layer 1" xmlns="http://www.w3.org/2000/svg" width="70.05" height="70.02" viewBox="0 0 70.05 70.02"><defs><style>.cls-1{fill:#4467b1;}</style></defs><title>wordpressicon</title><path class="cls-1" d="M595,1273.19c-0.09.5-.22,1-0.27,1.51a30.64,30.64,0,0,1-2.41,9,35.15,35.15,0,0,1-12.17,15.08,32,32,0,0,1-9.74,4.77,35.06,35.06,0,0,1-5.82,1.21,44.46,44.46,0,0,1-7.29.27,31.94,31.94,0,0,1-10.81-2.58,37,37,0,0,1-8.84-5.34,33.48,33.48,0,0,1-6.69-7.32,35.42,35.42,0,0,1-5.3-12.54,37.33,37.33,0,0,1-.63-9.87,32,32,0,0,1,2.59-10.81,36.79,36.79,0,0,1,5.34-8.84,34.92,34.92,0,0,1,12.78-9.72,31.25,31.25,0,0,1,8.57-2.53c0.82-.12,1.64-0.28,2.46-0.42H563a1,1,0,0,0,.28.14c1.16,0.15,2.33.22,3.48,0.45a34.19,34.19,0,0,1,11.31,4.39,34.73,34.73,0,0,1,8.89,7.69,35.88,35.88,0,0,1,5.36,8.91,30.45,30.45,0,0,1,2.33,8.84c0,0.51.18,1,.27,1.51v6.16Zm-33.33-36c-20.12.13-33.9,14.7-34.57,31.47a32.92,32.92,0,1,0,56.47-21.48C577.08,1240.54,569.08,1237.27,561.63,1237.19Z" transform="translate(-524.91 -1235.1)"/><path class="cls-1" d="M550.73,1258.52v0.92l1.86,0.27a4.09,4.09,0,0,1,3.13,2.54c1.11,2.42,2,5,3.15,7.36a4,4,0,0,1-.11,3.64c-1.78,4.1-3.45,8.25-5.16,12.38-0.27.65-.52,1.3-0.84,2.11-0.39-.93-0.73-1.71-1-2.5-1.45-3.59-2.92-7.18-4.34-10.79s-2.86-7.25-4.23-10.9a4.44,4.44,0,0,1-.32-2.21c0.21-1.21,1.18-1.64,2.77-1.73,1-.06,1-0.05.87-1.11h-14.1c4.27-9.37,11.26-15.49,21.23-17.59,11.49-2.42,21.24,1.15,29.27,9.83l-1.52.45a3.81,3.81,0,0,0-2.62,4.57c0.5,2,1.15,4,1.63,6a29.53,29.53,0,0,1,.73,4.39,23.66,23.66,0,0,1,0,4.49,25.74,25.74,0,0,1-1,5.24c-1.1,3.33-2.41,6.59-3.64,9.88a7.45,7.45,0,0,1-.49.88l-2.29-6c-1.17-3-2.35-6.08-3.51-9.13-1.05-2.77-2.06-5.56-3.13-8.32-0.93-2.41.54-3.46,2.54-3.6,0.23,0,.47,0,0.7,0,1,0,1,0,.87-1.08H550.73Z" transform="translate(-524.91 -1235.1)"/><path class="cls-1" d="M560.73,1274.34l9.18,23.92c-5.68,2.33-14.53,2.14-19.37.16Z" transform="translate(-524.91 -1235.1)"/><path class="cls-1" d="M588.27,1260.47a29.65,29.65,0,0,1-13.53,35.46Z" transform="translate(-524.91 -1235.1)"/><path class="cls-1" d="M545.72,1296.34a29.62,29.62,0,0,1-14.26-34.79C536.49,1273,540.92,1284.67,545.72,1296.34Z" transform="translate(-524.91 -1235.1)"/></svg>